roboto-mono_light-italic.sfdir
StartChar: exclam
Encoding: 33 33 1040
Width: 1202
Flags: W
LayerCount: 2
Back
Fore
SplineSet
607 435 m 1,0,-1
 488 435 l 1,1,-1
 666 1456 l 1,2,-1
 785 1456 l 1,3,-1
 607 435 l 1,0,-1
406 72 m 0,4,5
 409 106 409 106 434.5 131 c 128,-1,6
 460 156 460 156 495 157 c 0,7,8
 513 157 513 157 528 150.5 c 128,-1,9
 543 144 543 144 554 132.5 c 128,-1,10
 565 121 565 121 570.5 105.5 c 128,-1,11
 576 90 576 90 575 72 c 0,12,13
 573 37 573 37 546.5 14.5 c 128,-1,14
 520 -8 520 -8 485 -9 c 256,15,16
 450 -10 450 -10 427 13.5 c 128,-1,17
 404 37 404 37 406 72 c 0,4,5
EndSplineSet
EndChar
StartChar: quotedbl
Encoding: 34 34 4
Width: 1202
Flags: W
LayerCount: 2
Back
Fore
SplineSet
621 1404 m 1,0,-1
 556 1090 l 1,1,-1
 465 1090 l 1,2,-1
 520 1413 l 1,3,-1
 538 1536 l 1,4,-1
 643 1536 l 1,5,-1
 621 1404 l 1,0,-1
915 1407 m 1,6,-1
 850 1090 l 1,7,-1
 759 1090 l 1,8,-1
 814 1412 l 1,9,-1
 833 1536 l 1,10,-1
 938 1536 l 1,11,-1
 915 1407 l 1,6,-1
EndSplineSet
EndChar
StartChar: numbersign
Encoding: 35 35 5
Width: 1202
Flags: W
LayerCount: 2
Back
Fore
SplineSet
672 410 m 1,0,-1
 373 410 l 1,1,-1
 226 0 l 1,2,-1
 125 0 l 1,3,-1
 271 410 l 1,4,-1
 25 410 l 1,5,-1
 41 503 l 1,6,-1
 303 503 l 1,7,-1
 461 944 l 1,8,-1
 191 944 l 1,9,-1
 208 1040 l 1,10,-1
 494 1040 l 1,11,-1
 644 1456 l 1,12,-1
 746 1456 l 1,13,-1
 596 1040 l 1,14,-1
 896 1040 l 1,15,-1
 1046 1456 l 1,16,-1
 1147 1456 l 1,17,-1
 998 1040 l 1,18,-1
 1220 1040 l 1,19,-1
 1203 944 l 1,20,-1
 964 944 l 1,21,-1
 807 503 l 1,22,-1
 1054 503 l 1,23,-1
 1037 410 l 1,24,-1
 774 410 l 1,25,-1
 627 0 l 1,26,-1
 525 0 l 1,27,-1
 672 410 l 1,0,-1
405 503 m 1,28,-1
 705 503 l 1,29,-1
 862 944 l 1,30,-1
 563 944 l 1,31,-1
 405 503 l 1,28,-1
EndSplineSet
EndChar
StartChar: dollar
Encoding: 36 36 6
Width: 1202
Flags: W
LayerCount: 2
Back
Fore
SplineSet
893 367 m 0,0,1
 899 430 899 430 879 478 c 128,-1,2
 859 526 859 526 821.5 562.5 c 128,-1,3
 784 599 784 599 735 626 c 128,-1,4
 686 653 686 653 635 674 c 0,5,6
 564 703 564 703 500.5 739 c 128,-1,7
 437 775 437 775 390.5 824 c 128,-1,8
 344 873 344 873 319 937.5 c 128,-1,9
 294 1002 294 1002 300 1087 c 0,10,11
 306 1174 306 1174 341 1242.5 c 128,-1,12
 376 1311 376 1311 431.5 1360.5 c 128,-1,13
 487 1410 487 1410 559.5 1439 c 128,-1,14
 632 1468 632 1468 715 1476 c 1,15,-1
 749 1677 l 1,16,-1
 851 1677 l 1,17,-1
 816 1473 l 1,18,19
 901 1460 901 1460 959.5 1418.5 c 128,-1,20
 1018 1377 1018 1377 1052 1316.5 c 128,-1,21
 1086 1256 1086 1256 1098.5 1181.5 c 128,-1,22
 1111 1107 1111 1107 1105 1028 c 1,23,-1
 988 1028 l 1,24,25
 993 1090 993 1090 983 1150.5 c 128,-1,26
 973 1211 973 1211 944.5 1259 c 128,-1,27
 916 1307 916 1307 868 1337.5 c 128,-1,28
 820 1368 820 1368 749 1370 c 0,29,30
 685 1372 685 1372 628 1352.5 c 128,-1,31
 571 1333 571 1333 527 1296 c 128,-1,32
 483 1259 483 1259 454 1206.5 c 128,-1,33
 425 1154 425 1154 418 1090 c 0,34,35
 411 1024 411 1024 431 975.5 c 128,-1,36
 451 927 451 927 488.5 890.5 c 128,-1,37
 526 854 526 854 576 827.5 c 128,-1,38
 626 801 626 801 679 780 c 0,39,40
 749 751 749 751 812.5 715 c 128,-1,41
 876 679 876 679 922.5 630.5 c 128,-1,42
 969 582 969 582 993.5 517.5 c 128,-1,43
 1018 453 1018 453 1012 369 c 0,44,45
 1005 280 1005 280 969 211.5 c 128,-1,46
 933 143 933 143 876 94.5 c 128,-1,47
 819 46 819 46 744.5 18 c 128,-1,48
 670 -10 670 -10 587 -19 c 1,49,-1
 554 -208 l 1,50,-1
 451 -208 l 1,51,-1
 485 -18 l 1,52,53
 395 -8 395 -8 328.5 28.5 c 128,-1,54
 262 65 262 65 219 122.5 c 128,-1,55
 176 180 176 180 157 255.5 c 128,-1,56
 138 331 138 331 144 418 c 1,57,-1
 262 418 l 1,58,59
 257 347 257 347 272.5 286.5 c 128,-1,60
 288 226 288 226 323.5 181.5 c 128,-1,61
 359 137 359 137 414 111 c 128,-1,62
 469 85 469 85 543 84 c 0,63,64
 607 83 607 83 667 102 c 128,-1,65
 727 121 727 121 775 157.5 c 128,-1,66
 823 194 823 194 854.5 247 c 128,-1,67
 886 300 886 300 893 367 c 0,0,1
EndSplineSet
EndChar
StartChar: percent
Encoding: 37 37 7
Width: 1202
Flags: W
LayerCount: 2
Back
Fore
SplineSet
143 1184 m 2,0,1
 153 1238 153 1238 177.5 1290.5 c 128,-1,2
 202 1343 202 1343 239 1384.5 c 128,-1,3
 276 1426 276 1426 325.5 1451.5 c 128,-1,4
 375 1477 375 1477 435 1477 c 0,5,6
 496 1477 496 1477 538 1451 c 128,-1,7
 580 1425 580 1425 604.5 1383 c 128,-1,8
 629 1341 629 1341 636.5 1288.5 c 128,-1,9
 644 1236 644 1236 637 1184 c 2,10,-1
 624 1107 l 2,11,12
 614 1053 614 1053 589.5 1001 c 128,-1,13
 565 949 565 949 528 908.5 c 128,-1,14
 491 868 491 868 442 842.5 c 128,-1,15
 393 817 393 817 333 817 c 256,16,17
 273 817 273 817 231 843 c 128,-1,18
 189 869 189 869 164 910 c 128,-1,19
 139 951 139 951 130.5 1003 c 128,-1,20
 122 1055 122 1055 130 1107 c 2,21,-1
 143 1184 l 2,0,1
224 1107 m 2,22,23
 219 1075 219 1075 220.5 1039 c 128,-1,24
 222 1003 222 1003 234.5 973 c 128,-1,25
 247 943 247 943 272 924 c 128,-1,26
 297 905 297 905 338 905 c 256,27,28
 379 905 379 905 411 923.5 c 128,-1,29
 443 942 443 942 466.5 971 c 128,-1,30
 490 1000 490 1000 505 1036 c 128,-1,31
 520 1072 520 1072 528 1107 c 2,32,-1
 543 1184 l 2,33,34
 548 1216 548 1216 546.5 1252 c 128,-1,35
 545 1288 545 1288 533 1318.5 c 128,-1,36
 521 1349 521 1349 496.5 1369 c 128,-1,37
 472 1389 472 1389 430 1389 c 0,38,39
 389 1389 389 1389 356.5 1370.5 c 128,-1,40
 324 1352 324 1352 300 1322 c 128,-1,41
 276 1292 276 1292 260.5 1255.5 c 128,-1,42
 245 1219 245 1219 238 1184 c 2,43,-1
 224 1107 l 2,22,23
608 348 m 2,44,45
 618 402 618 402 642.5 454.5 c 128,-1,46
 667 507 667 507 704.5 547.5 c 128,-1,47
 742 588 742 588 791.5 613.5 c 128,-1,48
 841 639 841 639 901 639 c 256,49,50
 961 639 961 639 1003 613 c 128,-1,51
 1045 587 1045 587 1069.5 545.5 c 128,-1,52
 1094 504 1094 504 1102.5 452 c 128,-1,53
 1111 400 1111 400 1104 348 c 2,54,-1
 1091 270 l 2,55,56
 1081 216 1081 216 1056.5 163.5 c 128,-1,57
 1032 111 1032 111 995 70.5 c 128,-1,58
 958 30 958 30 908.5 4.5 c 128,-1,59
 859 -21 859 -21 799 -21 c 256,60,61
 739 -21 739 -21 696.5 5 c 128,-1,62
 654 31 654 31 629.5 72 c 128,-1,63
 605 113 605 113 596.5 165 c 128,-1,64
 588 217 588 217 595 270 c 2,65,-1
 608 348 l 2,44,45
690 270 m 2,66,67
 685 237 685 237 686.5 201 c 128,-1,68
 688 165 688 165 700 135 c 128,-1,69
 712 105 712 105 737 85.5 c 128,-1,70
 762 66 762 66 804 66 c 0,71,72
 845 66 845 66 877.5 84.5 c 128,-1,73
 910 103 910 103 933.5 132.5 c 128,-1,74
 957 162 957 162 972 198.5 c 128,-1,75
 987 235 987 235 994 270 c 2,76,-1
 1009 348 l 2,77,78
 1014 381 1014 381 1012.5 416.5 c 128,-1,79
 1011 452 1011 452 999 482 c 128,-1,80
 987 512 987 512 962.5 531.5 c 128,-1,81
 938 551 938 551 896 551 c 256,82,83
 854 551 854 551 822 533 c 128,-1,84
 790 515 790 515 766.5 485.5 c 128,-1,85
 743 456 743 456 727.5 420 c 128,-1,86
 712 384 712 384 705 348 c 2,87,-1
 690 270 l 2,66,67
274 160 m 1,88,-1
 202 209 l 1,89,-1
 966 1292 l 1,90,-1
 1036 1246 l 1,91,-1
 274 160 l 1,88,-1
EndSplineSet
EndChar
StartChar: ampersand
Encoding: 38 38 8
Width: 1202
Flags: W
LayerCount: 2
Back
Fore
SplineSet
434 793 m 1,0,1
 413 833 413 833 394 875 c 128,-1,2
 375 917 375 917 361.5 960 c 128,-1,3
 348 1003 348 1003 342 1048 c 128,-1,4
 336 1093 336 1093 340 1140 c 0,5,6
 346 1212 346 1212 374 1274 c 128,-1,7
 402 1336 402 1336 447.5 1382 c 128,-1,8
 493 1428 493 1428 555 1453.5 c 128,-1,9
 617 1479 617 1479 692 1478 c 0,10,11
 750 1476 750 1476 797 1454 c 128,-1,12
 844 1432 844 1432 877 1394 c 128,-1,13
 910 1356 910 1356 926.5 1306 c 128,-1,14
 943 1256 943 1256 939 1199 c 0,15,16
 935 1146 935 1146 913.5 1101.5 c 128,-1,17
 892 1057 892 1057 860 1018.5 c 128,-1,18
 828 980 828 980 789 947 c 128,-1,19
 750 914 750 914 711 884 c 2,20,-1
 574 780 l 1,21,-1
 857 315 l 1,22,23
 914 391 914 391 949.5 474.5 c 128,-1,24
 985 558 985 558 1002 651 c 1,25,-1
 1109 651 l 1,26,27
 1093 530 1093 530 1045.5 423.5 c 128,-1,28
 998 317 998 317 916 225 c 1,29,-1
 1052 0 l 1,30,-1
 920 0 l 1,31,-1
 835 140 l 1,32,33
 753 70 753 70 657.5 24.5 c 128,-1,34
 562 -21 562 -21 452 -19 c 0,35,36
 371 -18 371 -18 302.5 9.5 c 128,-1,37
 234 37 234 37 185 85.5 c 128,-1,38
 136 134 136 134 111.5 202.5 c 128,-1,39
 87 271 87 271 94 354 c 0,40,41
 100 427 100 427 130.5 489.5 c 128,-1,42
 161 552 161 552 206 605 c 128,-1,43
 251 658 251 658 307 702 c 128,-1,44
 363 746 363 746 420 784 c 2,45,-1
 434 793 l 1,0,1
456 81 m 0,46,47
 551 79 551 79 631.5 120 c 128,-1,48
 712 161 712 161 781 222 c 1,49,-1
 493 701 l 1,50,-1
 485 713 l 1,51,-1
 445 681 l 2,52,53
 407 651 407 651 368 615.5 c 128,-1,54
 329 580 329 580 297 538.5 c 128,-1,55
 265 497 265 497 242.5 451 c 128,-1,56
 220 405 220 405 214 354 c 0,57,58
 208 295 208 295 223 245.5 c 128,-1,59
 238 196 238 196 270.5 160 c 128,-1,60
 303 124 303 124 350.5 103.5 c 128,-1,61
 398 83 398 83 456 81 c 0,46,47
458 1142 m 0,62,63
 450 1067 450 1067 472 997.5 c 128,-1,64
 494 928 494 928 527 863 c 1,65,-1
 668 971 l 2,66,67
 696 992 696 992 722 1017 c 128,-1,68
 748 1042 748 1042 769.5 1070.5 c 128,-1,69
 791 1099 791 1099 805 1131 c 128,-1,70
 819 1163 819 1163 823 1200 c 0,71,72
 826 1233 826 1233 818.5 1264.5 c 128,-1,73
 811 1296 811 1296 793 1320.5 c 128,-1,74
 775 1345 775 1345 748 1360 c 128,-1,75
 721 1375 721 1375 685 1376 c 0,76,77
 636 1377 636 1377 596 1357.5 c 128,-1,78
 556 1338 556 1338 527 1305 c 128,-1,79
 498 1272 498 1272 480.5 1229.5 c 128,-1,80
 463 1187 463 1187 458 1142 c 0,62,63
EndSplineSet
EndChar
StartChar: quotesingle
Encoding: 39 39 9
Width: 1202
Flags: W
LayerCount: 2
Back
Fore
SplineSet
734 1389 m 1,0,-1
 670 1090 l 1,1,-1
 575 1090 l 1,2,-1
 628 1395 l 1,3,-1
 651 1536 l 1,4,-1
 757 1536 l 1,5,-1
 734 1389 l 1,0,-1
EndSplineSet
EndChar
StartChar: parenleft
Encoding: 40 40 10
Width: 1202
Flags: W
LayerCount: 2
Back
Fore
SplineSet
367 585 m 2,0,1
 382 681 382 681 407.5 782.5 c 128,-1,2
 433 884 433 884 469.5 983.5 c 128,-1,3
 506 1083 506 1083 554.5 1178 c 128,-1,4
 603 1273 603 1273 664 1357.5 c 128,-1,5
 725 1442 725 1442 800 1512 c 128,-1,6
 875 1582 875 1582 965 1633 c 1,7,-1
 986 1551 l 1,8,9
 871 1471 871 1471 786.5 1360.5 c 128,-1,10
 702 1250 702 1250 642.5 1122.5 c 128,-1,11
 583 995 583 995 545.5 858.5 c 128,-1,12
 508 722 508 722 487 590 c 2,13,-1
 484 570 l 2,14,15
 473 496 473 496 465.5 411 c 128,-1,16
 458 326 458 326 459 237 c 128,-1,17
 460 148 460 148 471.5 58.5 c 128,-1,18
 483 -31 483 -31 508.5 -113 c 128,-1,19
 534 -195 534 -195 576.5 -267 c 128,-1,20
 619 -339 619 -339 682 -392 c 1,21,-1
 648 -469 l 1,22,23
 574 -412 574 -412 520.5 -336.5 c 128,-1,24
 467 -261 467 -261 431.5 -174 c 128,-1,25
 396 -87 396 -87 376.5 8.5 c 128,-1,26
 357 104 357 104 350 200.5 c 128,-1,27
 343 297 343 297 347 390.5 c 128,-1,28
 351 484 351 484 364 569 c 2,29,-1
 367 585 l 2,0,1
EndSplineSet
EndChar
StartChar: parenright
Encoding: 41 41 11
Width: 1202
Flags: W
LayerCount: 2
Back
Fore
SplineSet
795 576 m 2,0,1
 780 480 780 480 755 379.5 c 128,-1,2
 730 279 730 279 694 180 c 128,-1,3
 658 81 658 81 610.5 -14 c 128,-1,4
 563 -109 563 -109 502.5 -193.5 c 128,-1,5
 442 -278 442 -278 368.5 -349.5 c 128,-1,6
 295 -421 295 -421 207 -473 c 1,7,-1
 180 -391 l 1,8,9
 294 -312 294 -312 377.5 -200.5 c 128,-1,10
 461 -89 461 -89 520.5 39 c 128,-1,11
 580 167 580 167 617 304 c 128,-1,12
 654 441 654 441 675 572 c 2,13,-1
 678 592 l 2,14,15
 689 665 689 665 696.5 750 c 128,-1,16
 704 835 704 835 702.5 924 c 128,-1,17
 701 1013 701 1013 690 1103 c 128,-1,18
 679 1193 679 1193 653 1275.5 c 128,-1,19
 627 1358 627 1358 585 1429.5 c 128,-1,20
 543 1501 543 1501 480 1554 c 1,21,-1
 515 1631 l 1,22,23
 588 1574 588 1574 641.5 1498.5 c 128,-1,24
 695 1423 695 1423 730.5 1336 c 128,-1,25
 766 1249 766 1249 785.5 1153.5 c 128,-1,26
 805 1058 805 1058 812 961 c 128,-1,27
 819 864 819 864 814.5 770 c 128,-1,28
 810 676 810 676 798 592 c 2,29,-1
 795 576 l 2,0,1
EndSplineSet
EndChar
StartChar: asterisk
Encoding: 42 42 12
Width: 1202
Flags: W
LayerCount: 2
Back
Fore
SplineSet
590 856 m 1,0,-1
 233 967 l 1,1,-1
 285 1076 l 1,2,-1
 633 933 l 1,3,-1
 687 1342 l 1,4,-1
 804 1342 l 1,5,-1
 722 936 l 1,6,-1
 1104 1080 l 1,7,-1
 1124 962 l 1,8,-1
 729 846 l 1,9,-1
 941 523 l 1,10,-1
 838 456 l 1,11,-1
 655 797 l 1,12,-1
 375 460 l 1,13,-1
 286 533 l 1,14,-1
 590 856 l 1,0,-1
EndSplineSet
EndChar
StartChar: plus
Encoding: 43 43 13
Width: 1202
Flags: W
LayerCount: 2
Back
Fore
SplineSet
679 740 m 1,0,-1
 1110 740 l 1,1,-1
 1089 623 l 1,2,-1
 659 623 l 1,3,-1
 575 146 l 1,4,-1
 456 146 l 1,5,-1
 539 623 l 1,6,-1
 118 623 l 1,7,-1
 139 740 l 1,8,-1
 559 740 l 1,9,-1
 641 1206 l 1,10,-1
 760 1206 l 1,11,-1
 679 740 l 1,0,-1
EndSplineSet
EndChar
StartChar: comma
Encoding: 44 44 14
Width: 1202
Flags: W
LayerCount: 2
Back
Fore
SplineSet
488 36 m 2,0,1
 471 -63 471 -63 422.5 -146 c 128,-1,2
 374 -229 374 -229 299 -295 c 1,3,-1
 227 -245 l 1,4,5
 278 -183 278 -183 312 -115 c 128,-1,6
 346 -47 346 -47 360 32 c 2,7,-1
 387 188 l 1,8,-1
 513 188 l 1,9,-1
 488 36 l 2,0,1
EndSplineSet
EndChar
StartChar: period
Encoding: 46 46 16
Width: 1202
Flags: W
LayerCount: 2
Back
Fore
SplineSet
436 83 m 256,0,1
 437 104 437 104 445.5 122.5 c 128,-1,2
 454 141 454 141 468 155.5 c 128,-1,3
 482 170 482 170 500.5 178.5 c 128,-1,4
 519 187 519 187 540 187 c 256,5,6
 561 187 561 187 579.5 179.5 c 128,-1,7
 598 172 598 172 611 158.5 c 128,-1,8
 624 145 624 145 631 126.5 c 128,-1,9
 638 108 638 108 637 87 c 0,10,11
 635 44 635 44 604.5 16 c 128,-1,12
 574 -12 574 -12 532 -13 c 0,13,14
 511 -13 511 -13 493 -6 c 128,-1,15
 475 1 475 1 462 13.5 c 128,-1,16
 449 26 449 26 442 44 c 128,-1,17
 435 62 435 62 436 83 c 256,0,1
EndSplineSet
EndChar
StartChar: zero
Encoding: 48 48 18
Width: 1202
Flags: W
LayerCount: 2
Back
Fore
SplineSet
1042 577 m 2,0,1
 1030 505 1030 505 1009 432 c 128,-1,2
 988 359 988 359 956.5 292 c 128,-1,3
 925 225 925 225 882 167 c 128,-1,4
 839 109 839 109 783 66.5 c 128,-1,5
 727 24 727 24 658 1 c 128,-1,6
 589 -22 589 -22 505 -20 c 0,7,8
 425 -18 425 -18 365 8.5 c 128,-1,9
 305 35 305 35 262.5 79.5 c 128,-1,10
 220 124 220 124 194 182.5 c 128,-1,11
 168 241 168 241 155 306.5 c 128,-1,12
 142 372 142 372 141.5 441 c 128,-1,13
 141 510 141 510 150 576 c 2,14,-1
 199 879 l 2,15,16
 211 950 211 950 232 1023 c 128,-1,17
 253 1096 253 1096 285 1163 c 128,-1,18
 317 1230 317 1230 360 1288 c 128,-1,19
 403 1346 403 1346 459 1389 c 128,-1,20
 515 1432 515 1432 584 1455.5 c 128,-1,21
 653 1479 653 1479 737 1477 c 0,22,23
 818 1475 818 1475 878 1448.5 c 128,-1,24
 938 1422 938 1422 980 1377.5 c 128,-1,25
 1022 1333 1022 1333 1048 1274 c 128,-1,26
 1074 1215 1074 1215 1086.5 1149.5 c 128,-1,27
 1099 1084 1099 1084 1099.5 1014.5 c 128,-1,28
 1100 945 1100 945 1091 879 c 2,29,-1
 1042 577 l 2,0,1
263 558 m 2,30,31
 258 538 258 538 255 519 c 128,-1,32
 252 500 252 500 248 480 c 1,33,-1
 989 1077 l 1,34,35
 985 1136 985 1136 968.5 1189 c 128,-1,36
 952 1242 952 1242 920.5 1283 c 128,-1,37
 889 1324 889 1324 842 1348.5 c 128,-1,38
 795 1373 795 1373 730 1375 c 0,39,40
 664 1377 664 1377 611 1357.5 c 128,-1,41
 558 1338 558 1338 515.5 1303.5 c 128,-1,42
 473 1269 473 1269 440.5 1222 c 128,-1,43
 408 1175 408 1175 384.5 1121.5 c 128,-1,44
 361 1068 361 1068 346 1011 c 128,-1,45
 331 954 331 954 322 899 c 2,46,-1
 263 558 l 2,30,31
979 899 m 2,47,48
 983 915 983 915 985.5 931 c 128,-1,49
 988 947 988 947 991 964 c 1,50,-1
 253 368 l 1,51,52
 258 311 258 311 275.5 259.5 c 128,-1,53
 293 208 293 208 324.5 169 c 128,-1,54
 356 130 356 130 402 106.5 c 128,-1,55
 448 83 448 83 511 81 c 0,56,57
 610 78 610 78 681 121 c 128,-1,58
 752 164 752 164 800.5 234 c 128,-1,59
 849 304 849 304 877.5 389.5 c 128,-1,60
 906 475 906 475 919 558 c 2,61,-1
 979 899 l 2,47,48
EndSplineSet
EndChar
StartChar: one
Encoding: 49 49 19
Width: 1202
Flags: W
LayerCount: 2
Back
Fore
SplineSet
617 0 m 1,0,-1
 498 0 l 1,1,-1
 724 1301 l 1,2,-1
 302 1129 l 1,3,-1
 324 1248 l 1,4,-1
 846 1456 l 1,5,-1
 866 1456 l 1,6,-1
 617 0 l 1,0,-1
EndSplineSet
EndChar
StartChar: two
Encoding: 50 50 20
Width: 1202
Flags: W
LayerCount: 2
Back
Fore
SplineSet
919 0 m 1,0,-1
 31 0 l 1,1,-1
 46 97 l 1,2,-1
 589 633 l 2,3,4
 635 679 635 679 685.5 729 c 128,-1,5
 736 779 736 779 780 834.5 c 128,-1,6
 824 890 824 890 855.5 952 c 128,-1,7
 887 1014 887 1014 895 1083 c 0,8,9
 902 1144 902 1144 887.5 1196.5 c 128,-1,10
 873 1249 873 1249 840.5 1288 c 128,-1,11
 808 1327 808 1327 759 1350 c 128,-1,12
 710 1373 710 1373 647 1375 c 0,13,14
 570 1377 570 1377 508 1351 c 128,-1,15
 446 1325 446 1325 400 1278.5 c 128,-1,16
 354 1232 354 1232 324 1169.5 c 128,-1,17
 294 1107 294 1107 281 1037 c 1,18,-1
 164 1036 l 1,19,20
 177 1130 177 1130 219 1211.5 c 128,-1,21
 261 1293 261 1293 325 1352 c 128,-1,22
 389 1411 389 1411 472.5 1444.5 c 128,-1,23
 556 1478 556 1478 654 1476 c 0,24,25
 738 1474 738 1474 808 1445 c 128,-1,26
 878 1416 878 1416 927 1365 c 128,-1,27
 976 1314 976 1314 999.5 1242.5 c 128,-1,28
 1023 1171 1023 1171 1015 1086 c 0,29,30
 1007 1005 1007 1005 972 932.5 c 128,-1,31
 937 860 937 860 886.5 795 c 128,-1,32
 836 730 836 730 777 671.5 c 128,-1,33
 718 613 718 613 663 560 c 2,34,-1
 196 101 l 1,35,-1
 936 101 l 1,36,-1
 919 0 l 1,0,-1
EndSplineSet
EndChar
StartChar: three
Encoding: 51 51 21
Width: 1202
Flags: W
LayerCount: 2
Back
Fore
SplineSet
423 793 m 1,0,-1
 535 792 l 2,1,2
 602 792 602 792 667.5 810.5 c 128,-1,3
 733 829 733 829 786.5 865.5 c 128,-1,4
 840 902 840 902 875.5 956.5 c 128,-1,5
 911 1011 911 1011 919 1084 c 0,6,7
 926 1147 926 1147 912.5 1199.5 c 128,-1,8
 899 1252 899 1252 867.5 1290.5 c 128,-1,9
 836 1329 836 1329 787 1351 c 128,-1,10
 738 1373 738 1373 675 1375 c 0,11,12
 604 1377 604 1377 544.5 1355.5 c 128,-1,13
 485 1334 485 1334 438.5 1294 c 128,-1,14
 392 1254 392 1254 360.5 1198 c 128,-1,15
 329 1142 329 1142 315 1075 c 1,16,-1
 198 1074 l 1,17,18
 212 1164 212 1164 255 1239 c 128,-1,19
 298 1314 298 1314 361.5 1367.5 c 128,-1,20
 425 1421 425 1421 506.5 1450 c 128,-1,21
 588 1479 588 1479 680 1477 c 0,22,23
 766 1475 766 1475 836 1445 c 128,-1,24
 906 1415 906 1415 953.5 1363 c 128,-1,25
 1001 1311 1001 1311 1023.5 1239 c 128,-1,26
 1046 1167 1046 1167 1038 1080 c 0,27,28
 1032 1015 1032 1015 1005 962.5 c 128,-1,29
 978 910 978 910 937 868 c 128,-1,30
 896 826 896 826 844 795 c 128,-1,31
 792 764 792 764 735 742 c 1,32,33
 846 701 846 701 900 611.5 c 128,-1,34
 954 522 954 522 944 404 c 0,35,36
 936 307 936 307 893.5 227.5 c 128,-1,37
 851 148 851 148 784.5 92.5 c 128,-1,38
 718 37 718 37 632 7.5 c 128,-1,39
 546 -22 546 -22 451 -20 c 0,40,41
 361 -18 361 -18 286 13 c 128,-1,42
 211 44 211 44 158.5 98.5 c 128,-1,43
 106 153 106 153 79.5 228.5 c 128,-1,44
 53 304 53 304 59 395 c 1,45,-1
 176 395 l 1,46,47
 171 327 171 327 188.5 270.5 c 128,-1,48
 206 214 206 214 243 172.5 c 128,-1,49
 280 131 280 131 334 107 c 128,-1,50
 388 83 388 83 457 81 c 0,51,52
 530 79 530 79 594 101 c 128,-1,53
 658 123 658 123 707 165 c 128,-1,54
 756 207 756 207 787 266.5 c 128,-1,55
 818 326 818 326 826 400 c 0,56,57
 833 472 833 472 813 526 c 128,-1,58
 793 580 793 580 752.5 615.5 c 128,-1,59
 712 651 712 651 654.5 669.5 c 128,-1,60
 597 688 597 688 530 690 c 2,61,-1
 404 691 l 1,62,-1
 423 793 l 1,0,-1
EndSplineSet
EndChar
StartChar: four
Encoding: 52 52 22
Width: 1202
Flags: W
LayerCount: 2
Back
Fore
SplineSet
840 469 m 1,0,-1
 1062 469 l 1,1,-1
 1044 368 l 1,2,-1
 823 368 l 1,3,-1
 759 0 l 1,4,-1
 640 0 l 1,5,-1
 705 368 l 1,6,-1
 43 368 l 1,7,-1
 52 436 l 1,8,-1
 878 1456 l 1,9,-1
 1012 1456 l 1,10,-1
 840 469 l 1,0,-1
204 469 m 1,11,-1
 722 469 l 1,12,-1
 866 1293 l 1,13,-1
 798 1201 l 1,14,-1
 204 469 l 1,11,-1
EndSplineSet
EndChar
StartChar: five
Encoding: 53 53 23
Width: 1202
Flags: W
LayerCount: 2
Back
Fore
SplineSet
275 749 m 1,0,-1
 468 1456 l 1,1,-1
 1178 1456 l 1,2,-1
 1157 1340 l 1,3,-1
 551 1340 l 1,4,-1
 412 853 l 1,5,6
 473 893 473 893 542 913.5 c 128,-1,7
 611 934 611 934 685 932 c 0,8,9
 782 930 782 930 851.5 890.5 c 128,-1,10
 921 851 921 851 964 787 c 128,-1,11
 1007 723 1007 723 1024 641 c 128,-1,12
 1041 559 1041 559 1032 471 c 0,13,14
 1022 370 1022 370 984.5 279.5 c 128,-1,15
 947 189 947 189 884.5 121.5 c 128,-1,16
 822 54 822 54 735 15 c 128,-1,17
 648 -24 648 -24 540 -21 c 0,18,19
 451 -19 451 -19 382 12.5 c 128,-1,20
 313 44 313 44 265 98 c 128,-1,21
 217 152 217 152 191.5 225 c 128,-1,22
 166 298 166 298 166 384 c 1,23,-1
 280 384 l 1,24,25
 281 320 281 320 297.5 265.5 c 128,-1,26
 314 211 314 211 347 170.5 c 128,-1,27
 380 130 380 130 430 106 c 128,-1,28
 480 82 480 82 548 80 c 0,29,30
 632 78 632 78 696.5 110.5 c 128,-1,31
 761 143 761 143 806 197.5 c 128,-1,32
 851 252 851 252 877.5 323.5 c 128,-1,33
 904 395 904 395 912 470 c 0,34,35
 919 536 919 536 908 598.5 c 128,-1,36
 897 661 897 661 866 710 c 128,-1,37
 835 759 835 759 783 789.5 c 128,-1,38
 731 820 731 820 658 823 c 0,39,40
 575 826 575 826 506 798.5 c 128,-1,41
 437 771 437 771 373 720 c 1,42,-1
 275 749 l 1,0,-1
EndSplineSet
EndChar
StartChar: six
Encoding: 54 54 24
Width: 1202
Flags: W
LayerCount: 2
Back
Fore
SplineSet
971 1468 m 1,0,-1
 959 1359 l 1,1,-1
 943 1359 l 2,2,3
 805 1359 805 1359 698.5 1313 c 128,-1,4
 592 1267 592 1267 512 1188 c 128,-1,5
 432 1109 432 1109 376.5 1002.5 c 128,-1,6
 321 896 321 896 286 774 c 1,7,8
 355 859 355 859 451 908.5 c 128,-1,9
 547 958 547 958 659 956 c 0,10,11
 755 954 755 954 824 912 c 128,-1,12
 893 870 893 870 935.5 804 c 128,-1,13
 978 738 978 738 994.5 654 c 128,-1,14
 1011 570 1011 570 1002 484 c 0,15,16
 993 388 993 388 955.5 296 c 128,-1,17
 918 204 918 204 855.5 133 c 128,-1,18
 793 62 793 62 708 20 c 128,-1,19
 623 -22 623 -22 518 -20 c 0,20,21
 411 -18 411 -18 333 30 c 128,-1,22
 255 78 255 78 207 153.5 c 128,-1,23
 159 229 159 229 140 323.5 c 128,-1,24
 121 418 121 418 132 514 c 2,25,-1
 150 643 l 2,26,27
 166 753 166 753 198.5 856.5 c 128,-1,28
 231 960 231 960 279.5 1051.5 c 128,-1,29
 328 1143 328 1143 394 1219 c 128,-1,30
 460 1295 460 1295 543.5 1350.5 c 128,-1,31
 627 1406 627 1406 728.5 1436.5 c 128,-1,32
 830 1467 830 1467 950 1468 c 2,33,-1
 971 1468 l 1,0,-1
634 853 m 0,34,35
 580 855 580 855 521.5 837.5 c 128,-1,36
 463 820 463 820 411 787 c 128,-1,37
 359 754 359 754 319.5 708.5 c 128,-1,38
 280 663 280 663 264 608 c 1,39,-1
 252 511 l 2,40,41
 247 464 247 464 249.5 414 c 128,-1,42
 252 364 252 364 263 316.5 c 128,-1,43
 274 269 274 269 295 227 c 128,-1,44
 316 185 316 185 347.5 152.5 c 128,-1,45
 379 120 379 120 422.5 101 c 128,-1,46
 466 82 466 82 523 81 c 0,47,48
 576 80 576 80 622.5 96 c 128,-1,49
 669 112 669 112 707.5 140.5 c 128,-1,50
 746 169 746 169 776.5 208 c 128,-1,51
 807 247 807 247 829 291.5 c 128,-1,52
 851 336 851 336 865 384 c 128,-1,53
 879 432 879 432 884 480 c 0,54,55
 891 545 891 545 881 610.5 c 128,-1,56
 871 676 871 676 841 729 c 128,-1,57
 811 782 811 782 760 816.5 c 128,-1,58
 709 851 709 851 634 853 c 0,34,35
EndSplineSet
EndChar
StartChar: seven
Encoding: 55 55 25
Width: 1202
Flags: W
LayerCount: 2
Back
Fore
SplineSet
1174 1387 m 1,0,-1
 356 0 l 1,1,-1
 227 0 l 1,2,-1
 1038 1349 l 1,3,-1
 237 1349 l 1,4,-1
 254 1456 l 1,5,-1
 1182 1456 l 1,6,-1
 1174 1387 l 1,0,-1
EndSplineSet
EndChar
StartChar: eight
Encoding: 56 56 26
Width: 1202
Flags: W
LayerCount: 2
Back
Fore
SplineSet
1119 1090 m 0,0,1
 1113 1025 1113 1025 1087.5 971.5 c 128,-1,2
 1062 918 1062 918 1023 875 c 128,-1,3
 984 832 984 832 933 799 c 128,-1,4
 882 766 882 766 825 743 c 1,5,6
 877 720 877 720 918 684 c 128,-1,7
 959 648 959 648 986 603 c 128,-1,8
 1013 558 1013 558 1025 505.5 c 128,-1,9
 1037 453 1037 453 1033 395 c 0,10,11
 1025 296 1025 296 980.5 218 c 128,-1,12
 936 140 936 140 866.5 86.5 c 128,-1,13
 797 33 797 33 709 5.5 c 128,-1,14
 621 -22 621 -22 527 -20 c 0,15,16
 440 -18 440 -18 364.5 10 c 128,-1,17
 289 38 289 38 235 89 c 128,-1,18
 181 140 181 140 153.5 212.5 c 128,-1,19
 126 285 126 285 134 377 c 0,20,21
 140 449 140 449 168.5 507.5 c 128,-1,22
 197 566 197 566 241.5 612.5 c 128,-1,23
 286 659 286 659 343 693.5 c 128,-1,24
 400 728 400 728 464 751 c 1,25,26
 419 775 419 775 385 809 c 128,-1,27
 351 843 351 843 329 884.5 c 128,-1,28
 307 926 307 926 297.5 973.5 c 128,-1,29
 288 1021 288 1021 292 1072 c 0,30,31
 299 1164 299 1164 338.5 1239.5 c 128,-1,32
 378 1315 378 1315 441 1368.5 c 128,-1,33
 504 1422 504 1422 585.5 1450 c 128,-1,34
 667 1478 667 1478 757 1476 c 0,35,36
 840 1474 840 1474 909.5 1445.5 c 128,-1,37
 979 1417 979 1417 1028 1366 c 128,-1,38
 1077 1315 1077 1315 1101.5 1245 c 128,-1,39
 1126 1175 1126 1175 1119 1090 c 0,0,1
914 394 m 0,40,41
 921 459 921 459 902.5 514 c 128,-1,42
 884 569 884 569 846.5 609 c 128,-1,43
 809 649 809 649 755 672 c 128,-1,44
 701 695 701 695 637 697 c 0,45,46
 566 698 566 698 500 675.5 c 128,-1,47
 434 653 434 653 382 610.5 c 128,-1,48
 330 568 330 568 295.5 508 c 128,-1,49
 261 448 261 448 254 376 c 0,50,51
 247 309 247 309 265 255 c 128,-1,52
 283 201 283 201 321 162.5 c 128,-1,53
 359 124 359 124 413 102.5 c 128,-1,54
 467 81 467 81 532 80 c 0,55,56
 603 78 603 78 668.5 99.5 c 128,-1,57
 734 121 734 121 786 162 c 128,-1,58
 838 203 838 203 872 262 c 128,-1,59
 906 321 906 321 914 394 c 0,40,41
999 1091 m 0,60,61
 1005 1149 1005 1149 989 1200.5 c 128,-1,62
 973 1252 973 1252 940 1290 c 128,-1,63
 907 1328 907 1328 858.5 1350.5 c 128,-1,64
 810 1373 810 1373 751 1375 c 0,65,66
 685 1376 685 1376 626 1354 c 128,-1,67
 567 1332 567 1332 521 1291.5 c 128,-1,68
 475 1251 475 1251 446 1195 c 128,-1,69
 417 1139 417 1139 410 1073 c 0,70,71
 404 1014 404 1014 420 964 c 128,-1,72
 436 914 436 914 468.5 877.5 c 128,-1,73
 501 841 501 841 549 819.5 c 128,-1,74
 597 798 597 798 656 797 c 0,75,76
 721 795 721 795 780 816.5 c 128,-1,77
 839 838 839 838 885.5 877 c 128,-1,78
 932 916 932 916 962 971 c 128,-1,79
 992 1026 992 1026 999 1091 c 0,60,61
EndSplineSet
EndChar
StartChar: nine
Encoding: 57 57 27
Width: 1202
Flags: W
LayerCount: 2
Back
Fore
SplineSet
288 96 m 2,0,1
 428 97 428 97 533.5 140.5 c 128,-1,2
 639 184 639 184 716.5 261.5 c 128,-1,3
 794 339 794 339 845 445.5 c 128,-1,4
 896 552 896 552 928 678 c 1,5,6
 859 584 859 584 763 529 c 128,-1,7
 667 474 667 474 548 477 c 0,8,9
 452 480 452 480 383.5 523.5 c 128,-1,10
 315 567 315 567 273 635 c 128,-1,11
 231 703 231 703 215 788 c 128,-1,12
 199 873 199 873 207 958 c 0,13,14
 214 1023 214 1023 233 1087.5 c 128,-1,15
 252 1152 252 1152 283.5 1210 c 128,-1,16
 315 1268 315 1268 357 1317.5 c 128,-1,17
 399 1367 399 1367 452 1402.5 c 128,-1,18
 505 1438 505 1438 567.5 1458 c 128,-1,19
 630 1478 630 1478 702 1477 c 0,20,21
 781 1475 781 1475 841.5 1450 c 128,-1,22
 902 1425 902 1425 946 1382.5 c 128,-1,23
 990 1340 990 1340 1018 1283.5 c 128,-1,24
 1046 1227 1046 1227 1061 1163 c 128,-1,25
 1076 1099 1076 1099 1078 1030 c 128,-1,26
 1080 961 1080 961 1072 895 c 2,27,-1
 1056 779 l 2,28,29
 1032 616 1032 616 975 472.5 c 128,-1,30
 918 329 918 329 823 221.5 c 128,-1,31
 728 114 728 114 593.5 51.5 c 128,-1,32
 459 -11 459 -11 281 -12 c 2,33,-1
 251 -12 l 1,34,-1
 263 96 l 1,35,-1
 288 96 l 2,0,1
568 580 m 0,36,37
 625 578 625 578 685.5 598 c 128,-1,38
 746 618 746 618 799 653.5 c 128,-1,39
 852 689 852 689 892 738 c 128,-1,40
 932 787 932 787 948 844 c 1,41,-1
 956 906 l 2,42,43
 961 953 961 953 961 1006 c 128,-1,44
 961 1059 961 1059 952.5 1110.5 c 128,-1,45
 944 1162 944 1162 926 1209 c 128,-1,46
 908 1256 908 1256 877.5 1292.5 c 128,-1,47
 847 1329 847 1329 802.5 1351 c 128,-1,48
 758 1373 758 1373 698 1374 c 0,49,50
 616 1375 616 1375 550.5 1338.5 c 128,-1,51
 485 1302 485 1302 437.5 1242.5 c 128,-1,52
 390 1183 390 1183 361.5 1109.5 c 128,-1,53
 333 1036 333 1036 325 963 c 0,54,55
 318 900 318 900 327.5 833 c 128,-1,56
 337 766 337 766 365.5 710.5 c 128,-1,57
 394 655 394 655 444 618.5 c 128,-1,58
 494 582 494 582 568 580 c 0,36,37
EndSplineSet
EndChar
StartChar: less
Encoding: 60 60 30
Width: 1202
Flags: W
LayerCount: 2
Back
Fore
SplineSet
303 653 m 1,0,-1
 952 353 l 1,1,-1
 930 232 l 1,2,-1
 162 612 l 1,3,-1
 179 708 l 1,4,-1
 1079 1087 l 1,5,-1
 1055 955 l 1,6,-1
 303 653 l 1,0,-1
EndSplineSet
EndChar
StartChar: equal
Encoding: 61 61 31
Width: 1202
Flags: W
LayerCount: 2
Back
Fore
SplineSet
1072 812 m 1,0,-1
 204 812 l 1,1,-1
 223 918 l 1,2,-1
 1091 918 l 1,3,-1
 1072 812 l 1,0,-1
1001 401 m 1,4,-1
 133 401 l 1,5,-1
 152 507 l 1,6,-1
 1020 507 l 1,7,-1
 1001 401 l 1,4,-1
EndSplineSet
EndChar
StartChar: greater
Encoding: 62 62 32
Width: 1202
Flags: W
LayerCount: 2
Back
Fore
SplineSet
901 663 m 1,0,-1
 239 965 l 1,1,-1
 260 1083 l 1,2,-1
 1045 704 l 1,3,-1
 1028 608 l 1,4,-1
 111 229 l 1,5,-1
 135 358 l 1,6,-1
 901 663 l 1,0,-1
EndSplineSet
EndChar
StartChar: question
Encoding: 63 63 33
Width: 1202
Flags: W
LayerCount: 2
Back
Fore
SplineSet
494 403 m 1,0,1
 503 462 503 462 519 509.5 c 128,-1,2
 535 557 535 557 560 598 c 128,-1,3
 585 639 585 639 620 676 c 128,-1,4
 655 713 655 713 700 750 c 0,5,6
 743 786 743 786 786.5 824.5 c 128,-1,7
 830 863 830 863 866 907 c 128,-1,8
 902 951 902 951 927 1001.5 c 128,-1,9
 952 1052 952 1052 959 1111 c 0,10,11
 965 1167 965 1167 953.5 1214 c 128,-1,12
 942 1261 942 1261 914 1295.5 c 128,-1,13
 886 1330 886 1330 842.5 1349.5 c 128,-1,14
 799 1369 799 1369 742 1371 c 0,15,16
 680 1373 680 1373 627.5 1355.5 c 128,-1,17
 575 1338 575 1338 533.5 1304.5 c 128,-1,18
 492 1271 492 1271 463 1223 c 128,-1,19
 434 1175 434 1175 421 1117 c 1,20,-1
 303 1117 l 1,21,22
 318 1200 318 1200 357.5 1267.5 c 128,-1,23
 397 1335 397 1335 455.5 1382 c 128,-1,24
 514 1429 514 1429 589 1453.5 c 128,-1,25
 664 1478 664 1478 749 1476 c 0,26,27
 828 1474 828 1474 892.5 1447 c 128,-1,28
 957 1420 957 1420 1001.5 1372.5 c 128,-1,29
 1046 1325 1046 1325 1066.5 1258.5 c 128,-1,30
 1087 1192 1087 1192 1080 1112 c 0,31,32
 1073 1038 1073 1038 1043.5 976 c 128,-1,33
 1014 914 1014 914 970.5 860.5 c 128,-1,34
 927 807 927 807 873.5 760.5 c 128,-1,35
 820 714 820 714 765 672 c 0,36,37
 697 619 697 619 660.5 553.5 c 128,-1,38
 624 488 624 488 609 404 c 1,39,-1
 494 403 l 1,0,1
409 72 m 0,40,41
 412 107 412 107 437.5 131.5 c 128,-1,42
 463 156 463 156 498 157 c 0,43,44
 516 157 516 157 531 150.5 c 128,-1,45
 546 144 546 144 557 132.5 c 128,-1,46
 568 121 568 121 573.5 105.5 c 128,-1,47
 579 90 579 90 578 72 c 0,48,49
 576 37 576 37 549.5 14.5 c 128,-1,50
 523 -8 523 -8 488 -9 c 256,51,52
 453 -10 453 -10 430 13.5 c 128,-1,53
 407 37 407 37 409 72 c 0,40,41
EndSplineSet
EndChar
StartChar: at
Encoding: 64 64 34
Width: 1202
Flags: W
LayerCount: 2
Back
Fore
SplineSet
1164 780 m 0,0,1
 1157 738 1157 738 1146 686 c 128,-1,2
 1135 634 1135 634 1117.5 580 c 128,-1,3
 1100 526 1100 526 1075.5 474.5 c 128,-1,4
 1051 423 1051 423 1018 383 c 128,-1,5
 985 343 985 343 941.5 319.5 c 128,-1,6
 898 296 898 296 843 297 c 0,7,8
 807 298 807 298 780.5 311.5 c 128,-1,9
 754 325 754 325 737 348 c 128,-1,10
 720 371 720 371 712 400.5 c 128,-1,11
 704 430 704 430 703 463 c 1,12,13
 683 435 683 435 660 405.5 c 128,-1,14
 637 376 637 376 609.5 351.5 c 128,-1,15
 582 327 582 327 549.5 312 c 128,-1,16
 517 297 517 297 479 297 c 0,17,18
 436 297 436 297 408 318 c 128,-1,19
 380 339 380 339 363.5 372 c 128,-1,20
 347 405 347 405 341 446.5 c 128,-1,21
 335 488 335 488 334.5 530.5 c 128,-1,22
 334 573 334 573 338.5 611.5 c 128,-1,23
 343 650 343 650 348 678 c 0,24,25
 357 728 357 728 373 784.5 c 128,-1,26
 389 841 389 841 412.5 895.5 c 128,-1,27
 436 950 436 950 468.5 999.5 c 128,-1,28
 501 1049 501 1049 542.5 1086 c 128,-1,29
 584 1123 584 1123 635.5 1144 c 128,-1,30
 687 1165 687 1165 749 1163 c 0,31,32
 803 1161 803 1161 843.5 1135.5 c 128,-1,33
 884 1110 884 1110 920 1072 c 1,34,-1
 918 1071 l 1,35,-1
 794 565 l 2,36,37
 790 543 790 543 787.5 512 c 128,-1,38
 785 481 785 481 789.5 452 c 128,-1,39
 794 423 794 423 809.5 401.5 c 128,-1,40
 825 380 825 380 858 379 c 0,41,42
 898 377 898 377 929.5 398.5 c 128,-1,43
 961 420 961 420 984.5 455.5 c 128,-1,44
 1008 491 1008 491 1024.5 535.5 c 128,-1,45
 1041 580 1041 580 1052.5 625 c 128,-1,46
 1064 670 1064 670 1071 711 c 128,-1,47
 1078 752 1078 752 1082 780 c 0,48,49
 1091 841 1091 841 1095 908 c 128,-1,50
 1099 975 1099 975 1093 1040 c 128,-1,51
 1087 1105 1087 1105 1069 1164.5 c 128,-1,52
 1051 1224 1051 1224 1015.5 1269.5 c 128,-1,53
 980 1315 980 1315 925 1343 c 128,-1,54
 870 1371 870 1371 790 1373 c 0,55,56
 698 1375 698 1375 619.5 1346.5 c 128,-1,57
 541 1318 541 1318 476 1266.5 c 128,-1,58
 411 1215 411 1215 359 1145.5 c 128,-1,59
 307 1076 307 1076 268.5 998 c 128,-1,60
 230 920 230 920 203.5 837.5 c 128,-1,61
 177 755 177 755 164 677 c 0,62,63
 152 607 152 607 148.5 535.5 c 128,-1,64
 145 464 145 464 154.5 398 c 128,-1,65
 164 332 164 332 188 274.5 c 128,-1,66
 212 217 212 217 254.5 174 c 128,-1,67
 297 131 297 131 359.5 106 c 128,-1,68
 422 81 422 81 509 80 c 0,69,70
 577 80 577 80 642 100 c 128,-1,71
 707 120 707 120 767 152 c 1,72,-1
 786 70 l 1,73,74
 724 29 724 29 651.5 9 c 128,-1,75
 579 -11 579 -11 505 -10 c 0,76,77
 404 -9 404 -9 329 19 c 128,-1,78
 254 47 254 47 201.5 95 c 128,-1,79
 149 143 149 143 117 208.5 c 128,-1,80
 85 274 85 274 71 350 c 128,-1,81
 57 426 57 426 58.5 509.5 c 128,-1,82
 60 593 60 593 74 678 c 0,83,84
 89 768 89 768 119.5 862.5 c 128,-1,85
 150 957 150 957 195 1045 c 128,-1,86
 240 1133 240 1133 300 1210.5 c 128,-1,87
 360 1288 360 1288 435 1345 c 128,-1,88
 510 1402 510 1402 599.5 1434 c 128,-1,89
 689 1466 689 1466 794 1464 c 0,90,91
 887 1462 887 1462 954 1431 c 128,-1,92
 1021 1400 1021 1400 1066 1348.5 c 128,-1,93
 1111 1297 1111 1297 1136.5 1229.5 c 128,-1,94
 1162 1162 1162 1162 1172 1087 c 128,-1,95
 1182 1012 1182 1012 1179 933 c 128,-1,96
 1176 854 1176 854 1164 780 c 0,0,1
439 678 m 0,97,98
 436 662 436 662 432 634.5 c 128,-1,99
 428 607 428 607 426 575.5 c 128,-1,100
 424 544 424 544 425.5 512 c 128,-1,101
 427 480 427 480 435 453.5 c 128,-1,102
 443 427 443 427 459 409.5 c 128,-1,103
 475 392 475 392 502 391 c 0,104,105
 539 389 539 389 573.5 410 c 128,-1,106
 608 431 608 431 636 463 c 128,-1,107
 664 495 664 495 684.5 532.5 c 128,-1,108
 705 570 705 570 716 600 c 2,109,-1
 831 1042 l 1,110,111
 812 1057 812 1057 793 1065 c 128,-1,112
 774 1073 774 1073 749 1075 c 0,113,114
 699 1078 699 1078 658.5 1060.5 c 128,-1,115
 618 1043 618 1043 586 1011.5 c 128,-1,116
 554 980 554 980 529.5 938.5 c 128,-1,117
 505 897 505 897 487.5 852 c 128,-1,118
 470 807 470 807 458 762 c 128,-1,119
 446 717 446 717 439 678 c 0,97,98
EndSplineSet
EndChar
StartChar: A
Encoding: 65 65 35
Width: 1202
Flags: W
LayerCount: 2
Back
Fore
SplineSet
845 406 m 1,0,-1
 311 406 l 1,1,-1
 115 0 l 1,2,-1
 -10 0 l 1,3,-1
 703 1456 l 1,4,-1
 810 1456 l 1,5,-1
 1014 0 l 1,6,-1
 899 0 l 1,7,-1
 845 406 l 1,0,-1
362 513 m 1,8,-1
 831 513 l 1,9,-1
 730 1274 l 1,10,-1
 362 513 l 1,8,-1
EndSplineSet
Substitution2: "'smcp' Lowercase to Small Capitals lookup 0 subtable" A.smcp
EndChar
StartChar: B
Encoding: 66 66 36
Width: 1202
Flags: W
LayerCount: 2
Back
Fore
SplineSet
83 0 m 1,0,-1
 336 1456 l 1,1,-1
 715 1455 l 2,2,3
 797 1452 797 1452 871.5 1427.5 c 128,-1,4
 946 1403 946 1403 1001 1356.5 c 128,-1,5
 1056 1310 1056 1310 1085.5 1241.5 c 128,-1,6
 1115 1173 1115 1173 1107 1083 c 0,7,8
 1102 1019 1102 1019 1077 968 c 128,-1,9
 1052 917 1052 917 1013.5 877.5 c 128,-1,10
 975 838 975 838 924.5 808.5 c 128,-1,11
 874 779 874 779 818 757 c 1,12,13
 874 739 874 739 917.5 706 c 128,-1,14
 961 673 961 673 989.5 628 c 128,-1,15
 1018 583 1018 583 1030.5 529.5 c 128,-1,16
 1043 476 1043 476 1039 418 c 0,17,18
 1032 320 1032 320 987.5 242.5 c 128,-1,19
 943 165 943 165 874 111 c 128,-1,20
 805 57 805 57 717 28.5 c 128,-1,21
 629 0 629 0 536 0 c 2,22,-1
 83 0 l 1,0,-1
324 700 m 1,23,-1
 220 104 l 1,24,-1
 543 102 l 2,25,26
 613 103 613 103 677.5 125 c 128,-1,27
 742 147 742 147 793.5 187.5 c 128,-1,28
 845 228 845 228 878.5 286 c 128,-1,29
 912 344 912 344 920 416 c 0,30,31
 926 477 926 477 910 527.5 c 128,-1,32
 894 578 894 578 860.5 615 c 128,-1,33
 827 652 827 652 778 674 c 128,-1,34
 729 696 729 696 669 699 c 2,35,-1
 324 700 l 1,23,-1
341 803 m 1,36,-1
 619 801 l 2,37,38
 684 801 684 801 747 819.5 c 128,-1,39
 810 838 810 838 861 874 c 128,-1,40
 912 910 912 910 946 963 c 128,-1,41
 980 1016 980 1016 988 1086 c 0,42,43
 995 1151 995 1151 975 1199.5 c 128,-1,44
 955 1248 955 1248 917 1280.5 c 128,-1,45
 879 1313 879 1313 826.5 1330.5 c 128,-1,46
 774 1348 774 1348 715 1350 c 2,47,-1
 437 1351 l 1,48,-1
 341 803 l 1,36,-1
EndSplineSet
Substitution2: "'smcp' Lowercase to Small Capitals lookup 0 subtable" B.smcp
EndChar
StartChar: C
Encoding: 67 67 37
Width: 1202
Flags: W
LayerCount: 2
Back
Fore
SplineSet
1032 443 m 1,0,1
 1010 347 1010 347 964.5 261.5 c 128,-1,2
 919 176 919 176 852.5 112.5 c 128,-1,3
 786 49 786 49 699 13 c 128,-1,4
 612 -23 612 -23 507 -20 c 0,5,6
 423 -17 423 -17 359.5 12 c 128,-1,7
 296 41 296 41 250.5 89.5 c 128,-1,8
 205 138 205 138 176 201.5 c 128,-1,9
 147 265 147 265 132.5 335.5 c 128,-1,10
 118 406 118 406 116.5 479.5 c 128,-1,11
 115 553 115 553 125 622 c 2,12,-1
 159 833 l 2,13,14
 172 908 172 908 195.5 985.5 c 128,-1,15
 219 1063 219 1063 255 1135 c 128,-1,16
 291 1207 291 1207 338.5 1270 c 128,-1,17
 386 1333 386 1333 446.5 1379.5 c 128,-1,18
 507 1426 507 1426 580.5 1452 c 128,-1,19
 654 1478 654 1478 741 1476 c 0,20,21
 841 1474 841 1474 915 1435.5 c 128,-1,22
 989 1397 989 1397 1038.5 1333.5 c 128,-1,23
 1088 1270 1088 1270 1112.5 1186.5 c 128,-1,24
 1137 1103 1137 1103 1138 1010 c 1,25,-1
 1021 1010 l 1,26,27
 1019 1078 1019 1078 1003 1143 c 128,-1,28
 987 1208 987 1208 953.5 1259 c 128,-1,29
 920 1310 920 1310 866 1341.5 c 128,-1,30
 812 1373 812 1373 735 1375 c 0,31,32
 664 1377 664 1377 605.5 1354 c 128,-1,33
 547 1331 547 1331 499.5 1290.5 c 128,-1,34
 452 1250 452 1250 416 1196 c 128,-1,35
 380 1142 380 1142 353 1081.5 c 128,-1,36
 326 1021 326 1021 308 957.5 c 128,-1,37
 290 894 290 894 280 835 c 2,38,-1
 244 621 l 2,39,40
 236 569 236 569 234.5 509.5 c 128,-1,41
 233 450 233 450 240 391 c 128,-1,42
 247 332 247 332 265 277 c 128,-1,43
 283 222 283 222 315.5 179.5 c 128,-1,44
 348 137 348 137 396.5 110 c 128,-1,45
 445 83 445 83 513 81 c 0,46,47
 597 78 597 78 662.5 106.5 c 128,-1,48
 728 135 728 135 778 185 c 128,-1,49
 828 235 828 235 863.5 302 c 128,-1,50
 899 369 899 369 922 441 c 1,51,-1
 1032 443 l 1,0,1
EndSplineSet
Substitution2: "'smcp' Lowercase to Small Capitals lookup 0 subtable" C.smcp
EndChar
StartChar: D
Encoding: 68 68 38
Width: 1202
Flags: W
LayerCount: 2
Back
Fore
SplineSet
66 0 m 1,0,-1
 319 1456 l 1,1,-1
 654 1455 l 2,2,3
 787 1451 787 1451 883.5 1393.5 c 128,-1,4
 980 1336 980 1336 1038.5 1244 c 128,-1,5
 1097 1152 1097 1152 1118.5 1036 c 128,-1,6
 1140 920 1140 920 1124 799 c 2,7,-1
 1102 656 l 2,8,9
 1081 525 1081 525 1024 406 c 128,-1,10
 967 287 967 287 879 197 c 128,-1,11
 791 107 791 107 674.5 53.5 c 128,-1,12
 558 0 558 0 417 0 c 2,13,-1
 66 0 l 1,0,-1
421 1354 m 1,14,-1
 203 101 l 1,15,-1
 420 100 l 2,16,17
 538 101 538 101 633.5 147.5 c 128,-1,18
 729 194 729 194 800.5 271 c 128,-1,19
 872 348 872 348 918 448 c 128,-1,20
 964 548 964 548 982 656 c 2,21,-1
 1005 803 l 2,22,23
 1014 866 1014 866 1011.5 931 c 128,-1,24
 1009 996 1009 996 994.5 1056 c 128,-1,25
 980 1116 980 1116 952 1169 c 128,-1,26
 924 1222 924 1222 881.5 1261.5 c 128,-1,27
 839 1301 839 1301 782 1325.5 c 128,-1,28
 725 1350 725 1350 651 1353 c 2,29,-1
 421 1354 l 1,14,-1
EndSplineSet
Substitution2: "'smcp' Lowercase to Small Capitals lookup 0 subtable" D.smcp
EndChar
StartChar: E
Encoding: 69 69 39
Width: 1202
Flags: W
LayerCount: 2
Back
Fore
SplineSet
952 698 m 1,0,-1
 329 698 l 1,1,-1
 226 104 l 1,2,-1
 944 104 l 1,3,-1
 926 0 l 1,4,-1
 90 0 l 1,5,-1
 342 1456 l 1,6,-1
 1175 1456 l 1,7,-1
 1156 1351 l 1,8,-1
 442 1351 l 1,9,-1
 347 802 l 1,10,-1
 970 802 l 1,11,-1
 952 698 l 1,0,-1
EndSplineSet
Substitution2: "'smcp' Lowercase to Small Capitals lookup 0 subtable" E.smcp
EndChar
StartChar: F
Encoding: 70 70 40
Width: 1202
Flags: W
LayerCount: 2
Back
Fore
SplineSet
960 680 m 1,0,-1
 336 680 l 1,1,-1
 217 0 l 1,2,-1
 98 0 l 1,3,-1
 351 1456 l 1,4,-1
 1189 1456 l 1,5,-1
 1170 1351 l 1,6,-1
 452 1351 l 1,7,-1
 354 785 l 1,8,-1
 979 785 l 1,9,-1
 960 680 l 1,0,-1
EndSplineSet
Substitution2: "'smcp' Lowercase to Small Capitals lookup 0 subtable" F.smcp
EndChar
StartChar: G
Encoding: 71 71 41
Width: 1202
Flags: W
LayerCount: 2
Back
Fore
SplineSet
1000 174 m 1,0,1
 907 73 907 73 783.5 24.5 c 128,-1,2
 660 -24 660 -24 523 -19 c 0,3,4
 439 -16 439 -16 373.5 13.5 c 128,-1,5
 308 43 308 43 260 91.5 c 128,-1,6
 212 140 212 140 180.5 204 c 128,-1,7
 149 268 149 268 132 339 c 128,-1,8
 115 410 115 410 112 485 c 128,-1,9
 109 560 109 560 119 631 c 2,10,-1
 152 835 l 2,11,12
 165 910 165 910 189.5 987.5 c 128,-1,13
 214 1065 214 1065 250.5 1137 c 128,-1,14
 287 1209 287 1209 336 1271.5 c 128,-1,15
 385 1334 385 1334 446.5 1380 c 128,-1,16
 508 1426 508 1426 582.5 1452 c 128,-1,17
 657 1478 657 1478 744 1476 c 0,18,19
 837 1474 837 1474 910 1440 c 128,-1,20
 983 1406 983 1406 1033.5 1347.5 c 128,-1,21
 1084 1289 1084 1289 1111.5 1211.5 c 128,-1,22
 1139 1134 1139 1134 1140 1045 c 1,23,-1
 1025 1045 l 1,24,25
 1020 1109 1020 1109 1001 1167.5 c 128,-1,26
 982 1226 982 1226 947.5 1270.5 c 128,-1,27
 913 1315 913 1315 861 1342 c 128,-1,28
 809 1369 809 1369 738 1371 c 256,29,30
 667 1373 667 1373 608 1350.5 c 128,-1,31
 549 1328 549 1328 500.5 1288.5 c 128,-1,32
 452 1249 452 1249 414.5 1196 c 128,-1,33
 377 1143 377 1143 348.5 1083 c 128,-1,34
 320 1023 320 1023 301 959.5 c 128,-1,35
 282 896 282 896 272 837 c 2,36,-1
 238 630 l 2,37,38
 230 575 230 575 230 514.5 c 128,-1,39
 230 454 230 454 239.5 394.5 c 128,-1,40
 249 335 249 335 270 281 c 128,-1,41
 291 227 291 227 326 184.5 c 128,-1,42
 361 142 361 142 411.5 115.5 c 128,-1,43
 462 89 462 89 530 85 c 0,44,45
 630 80 630 80 722 109 c 128,-1,46
 814 138 814 138 884 211 c 1,47,-1
 948 587 l 1,48,-1
 613 587 l 1,49,-1
 632 691 l 1,50,-1
 1078 691 l 1,51,-1
 1000 174 l 1,0,1
EndSplineSet
Substitution2: "'smcp' Lowercase to Small Capitals lookup 0 subtable" G.smcp
EndChar
StartChar: H
Encoding: 72 72 42
Width: 1202
Flags: W
LayerCount: 2
Back
Fore
SplineSet
934 0 m 1,0,-1
 822 0 l 1,1,-1
 943 698 l 1,2,-1
 283 698 l 1,3,-1
 161 0 l 1,4,-1
 49 0 l 1,5,-1
 302 1456 l 1,6,-1
 414 1456 l 1,7,-1
 300 802 l 1,8,-1
 961 802 l 1,9,-1
 1075 1456 l 1,10,-1
 1187 1456 l 1,11,-1
 934 0 l 1,0,-1
EndSplineSet
Substitution2: "'smcp' Lowercase to Small Capitals lookup 0 subtable" H.smcp
EndChar
StartChar: I
Encoding: 73 73 43
Width: 1202
Flags: W
LayerCount: 2
Back
Fore
SplineSet
335 1456 m 1,0,-1
 1155 1456 l 1,1,-1
 1136 1348 l 1,2,-1
 782 1348 l 1,3,-1
 567 106 l 1,4,-1
 921 106 l 1,5,-1
 902 0 l 1,6,-1
 82 0 l 1,7,-1
 101 106 l 1,8,-1
 444 106 l 1,9,-1
 659 1348 l 1,10,-1
 315 1348 l 1,11,-1
 335 1456 l 1,0,-1
EndSplineSet
Substitution2: "'smcp' Lowercase to Small Capitals lookup 0 subtable" I.smcp
EndChar
StartChar: J
Encoding: 74 74 44
Width: 1202
Flags: W
LayerCount: 2
Back
Fore
SplineSet
1022 1456 m 1,0,-1
 1144 1456 l 1,1,-1
 970 442 l 2,2,3
 955 346 955 346 910.5 261 c 128,-1,4
 866 176 866 176 798.5 113 c 128,-1,5
 731 50 731 50 643.5 14 c 128,-1,6
 556 -22 556 -22 455 -20 c 0,7,8
 361 -19 361 -19 289 15 c 128,-1,9
 217 49 217 49 169 107 c 128,-1,10
 121 165 121 165 97 243 c 128,-1,11
 73 321 73 321 75 411 c 1,12,-1
 195 410 l 1,13,14
 191 344 191 344 206 285.5 c 128,-1,15
 221 227 221 227 254.5 182.5 c 128,-1,16
 288 138 288 138 340 111.5 c 128,-1,17
 392 85 392 85 463 84 c 0,18,19
 540 82 540 82 605 111 c 128,-1,20
 670 140 670 140 720 190 c 128,-1,21
 770 240 770 240 803 305.5 c 128,-1,22
 836 371 836 371 848 442 c 2,23,-1
 1022 1456 l 1,0,-1
EndSplineSet
Substitution2: "'smcp' Lowercase to Small Capitals lookup 0 subtable" J.smcp
EndChar
StartChar: K
Encoding: 75 75 45
Width: 1202
Flags: W
LayerCount: 2
Back
Fore
SplineSet
518 719 m 1,0,-1
 298 517 l 1,1,-1
 209 0 l 1,2,-1
 88 0 l 1,3,-1
 342 1456 l 1,4,-1
 462 1456 l 1,5,-1
 326 685 l 1,6,-1
 553 907 l 1,7,-1
 1105 1456 l 1,8,-1
 1262 1456 l 1,9,-1
 607 803 l 1,10,-1
 1039 0 l 1,11,-1
 904 0 l 1,12,-1
 518 719 l 1,0,-1
EndSplineSet
Substitution2: "'smcp' Lowercase to Small Capitals lookup 0 subtable" K.smcp
EndChar
StartChar: M
Encoding: 77 77 47
Width: 1202
Flags: W
LayerCount: 2
Back
Fore
SplineSet
459 1456 m 1,0,-1
 599 636 l 1,1,-1
 1043 1456 l 1,2,-1
 1201 1456 l 1,3,-1
 948 0 l 1,4,-1
 831 0 l 1,5,-1
 944 648 l 1,6,-1
 1063 1280 l 1,7,-1
 608 438 l 1,8,-1
 530 438 l 1,9,-1
 386 1281 l 1,10,-1
 284 642 l 1,11,-1
 173 0 l 1,12,-1
 56 0 l 1,13,-1
 309 1456 l 1,14,-1
 459 1456 l 1,0,-1
EndSplineSet
Substitution2: "'smcp' Lowercase to Small Capitals lookup 0 subtable" M.smcp
EndChar
StartChar: N
Encoding: 78 78 48
Width: 1202
Flags: W
LayerCount: 2
Back
Fore
SplineSet
934 0 m 1,0,-1
 819 0 l 1,1,-1
 384 1231 l 1,2,-1
 169 0 l 1,3,-1
 51 0 l 1,4,-1
 304 1456 l 1,5,-1
 418 1456 l 1,6,-1
 853 227 l 1,7,-1
 1068 1456 l 1,8,-1
 1186 1456 l 1,9,-1
 934 0 l 1,0,-1
EndSplineSet
Substitution2: "'smcp' Lowercase to Small Capitals lookup 0 subtable" N.smcp
EndChar
StartChar: O
Encoding: 79 79 49
Width: 1202
Flags: W
LayerCount: 2
Back
Fore
SplineSet
1078 632 m 2,0,1
 1065 558 1065 558 1042 480 c 128,-1,2
 1019 402 1019 402 984 329 c 128,-1,3
 949 256 949 256 902.5 191.5 c 128,-1,4
 856 127 856 127 796 79 c 128,-1,5
 736 31 736 31 662.5 4 c 128,-1,6
 589 -23 589 -23 502 -20 c 0,7,8
 419 -18 419 -18 356 12.5 c 128,-1,9
 293 43 293 43 248 92.5 c 128,-1,10
 203 142 203 142 174.5 207 c 128,-1,11
 146 272 146 272 132 343.5 c 128,-1,12
 118 415 118 415 117 489 c 128,-1,13
 116 563 116 563 126 631 c 2,14,-1
 157 823 l 2,15,16
 169 897 169 897 192.5 974.5 c 128,-1,17
 216 1052 216 1052 251 1125.5 c 128,-1,18
 286 1199 286 1199 333 1263.5 c 128,-1,19
 380 1328 380 1328 440 1376 c 128,-1,20
 500 1424 500 1424 573.5 1451 c 128,-1,21
 647 1478 647 1478 734 1476 c 0,22,23
 818 1474 818 1474 881 1443.5 c 128,-1,24
 944 1413 944 1413 989 1363 c 128,-1,25
 1034 1313 1034 1313 1062 1248 c 128,-1,26
 1090 1183 1090 1183 1103.5 1111 c 128,-1,27
 1117 1039 1117 1039 1117.5 965 c 128,-1,28
 1118 891 1118 891 1109 823 c 2,29,-1
 1078 632 l 2,0,1
992 827 m 2,30,31
 999 878 999 878 1001 937.5 c 128,-1,32
 1003 997 1003 997 996 1056.5 c 128,-1,33
 989 1116 989 1116 971.5 1171.5 c 128,-1,34
 954 1227 954 1227 922 1270 c 128,-1,35
 890 1313 890 1313 842 1340 c 128,-1,36
 794 1367 794 1367 726 1369 c 0,37,38
 655 1371 655 1371 597.5 1347.5 c 128,-1,39
 540 1324 540 1324 493 1283 c 128,-1,40
 446 1242 446 1242 410 1187 c 128,-1,41
 374 1132 374 1132 347.5 1070.5 c 128,-1,42
 321 1009 321 1009 303 946 c 128,-1,43
 285 883 285 883 275 825 c 2,44,-1
 243 630 l 2,45,46
 236 579 236 579 234 519.5 c 128,-1,47
 232 460 232 460 239 400.5 c 128,-1,48
 246 341 246 341 264 285 c 128,-1,49
 282 229 282 229 314 186 c 128,-1,50
 346 143 346 143 394 116 c 128,-1,51
 442 89 442 89 510 87 c 0,52,53
 581 84 581 84 639 107.5 c 128,-1,54
 697 131 697 131 744 172 c 128,-1,55
 791 213 791 213 826.5 268 c 128,-1,56
 862 323 862 323 888.5 384 c 128,-1,57
 915 445 915 445 932.5 509 c 128,-1,58
 950 573 950 573 960 631 c 2,59,-1
 992 827 l 2,30,31
EndSplineSet
Substitution2: "'smcp' Lowercase to Small Capitals lookup 0 subtable" O.smcp
EndChar
StartChar: P
Encoding: 80 80 50
Width: 1202
Flags: W
LayerCount: 2
Back
Fore
SplineSet
328 600 m 1,0,-1
 223 0 l 1,1,-1
 104 0 l 1,2,-1
 357 1456 l 1,3,-1
 795 1455 l 2,4,5
 884 1452 884 1452 957.5 1419 c 128,-1,6
 1031 1386 1031 1386 1082 1330.5 c 128,-1,7
 1133 1275 1133 1275 1158 1198.5 c 128,-1,8
 1183 1122 1183 1122 1175 1032 c 0,9,10
 1166 931 1166 931 1121 851 c 128,-1,11
 1076 771 1076 771 1006 715 c 128,-1,12
 936 659 936 659 847.5 629 c 128,-1,13
 759 599 759 599 662 599 c 2,14,-1
 328 600 l 1,0,-1
345 701 m 1,15,-1
 666 699 l 2,16,17
 740 699 740 699 807 722.5 c 128,-1,18
 874 746 874 746 926.5 789.5 c 128,-1,19
 979 833 979 833 1013 894 c 128,-1,20
 1047 955 1047 955 1056 1031 c 0,21,22
 1063 1097 1063 1097 1048 1154 c 128,-1,23
 1033 1211 1033 1211 998.5 1254 c 128,-1,24
 964 1297 964 1297 911.5 1323.5 c 128,-1,25
 859 1350 859 1350 792 1353 c 2,26,-1
 458 1354 l 1,27,-1
 345 701 l 1,15,-1
EndSplineSet
Substitution2: "'smcp' Lowercase to Small Capitals lookup 0 subtable" P.smcp
EndChar
StartChar: Q
Encoding: 81 81 51
Width: 1202
Flags: W
LayerCount: 2
Back
Fore
SplineSet
1103 641 m 2,0,1
 1089 554 1089 554 1061.5 469.5 c 128,-1,2
 1034 385 1034 385 991.5 309 c 128,-1,3
 949 233 949 233 890 168 c 128,-1,4
 831 103 831 103 755 55 c 1,5,-1
 956 -184 l 1,6,-1
 867 -254 l 1,7,-1
 645 2 l 1,8,9
 610 -8 610 -8 574.5 -13.5 c 128,-1,10
 539 -19 539 -19 502 -18 c 0,11,12
 417 -17 417 -17 352 13 c 128,-1,13
 287 43 287 43 240 93 c 128,-1,14
 193 143 193 143 163 208.5 c 128,-1,15
 133 274 133 274 118 347 c 128,-1,16
 103 420 103 420 101.5 495 c 128,-1,17
 100 570 100 570 110 640 c 2,18,-1
 138 814 l 2,19,20
 151 890 151 890 175.5 969.5 c 128,-1,21
 200 1049 200 1049 236.5 1123.5 c 128,-1,22
 273 1198 273 1198 322.5 1263 c 128,-1,23
 372 1328 372 1328 434.5 1376 c 128,-1,24
 497 1424 497 1424 572.5 1451 c 128,-1,25
 648 1478 648 1478 737 1476 c 0,26,27
 823 1474 823 1474 888.5 1443.5 c 128,-1,28
 954 1413 954 1413 1001 1363 c 128,-1,29
 1048 1313 1048 1313 1078 1247.5 c 128,-1,30
 1108 1182 1108 1182 1123 1109 c 128,-1,31
 1138 1036 1138 1036 1139.5 960 c 128,-1,32
 1141 884 1141 884 1131 814 c 2,33,-1
 1103 641 l 2,0,1
1013 817 m 2,34,35
 1021 871 1021 871 1022.5 932.5 c 128,-1,36
 1024 994 1024 994 1016 1054.5 c 128,-1,37
 1008 1115 1008 1115 988.5 1170.5 c 128,-1,38
 969 1226 969 1226 935.5 1269.5 c 128,-1,39
 902 1313 902 1313 851.5 1339.5 c 128,-1,40
 801 1366 801 1366 731 1368 c 0,41,42
 658 1370 658 1370 597.5 1347 c 128,-1,43
 537 1324 537 1324 488 1283 c 128,-1,44
 439 1242 439 1242 400.5 1186.5 c 128,-1,45
 362 1131 362 1131 334 1069 c 128,-1,46
 306 1007 306 1007 287 942 c 128,-1,47
 268 877 268 877 257 816 c 2,48,-1
 228 639 l 2,49,50
 220 585 220 585 218.5 524 c 128,-1,51
 217 463 217 463 225.5 402 c 128,-1,52
 234 341 234 341 253.5 285 c 128,-1,53
 273 229 273 229 307 185.5 c 128,-1,54
 341 142 341 142 391 115.5 c 128,-1,55
 441 89 441 89 511 87 c 0,56,57
 585 85 585 85 645.5 108 c 128,-1,58
 706 131 706 131 755 172 c 128,-1,59
 804 213 804 213 842 268.5 c 128,-1,60
 880 324 880 324 908 386 c 128,-1,61
 936 448 936 448 954.5 513.5 c 128,-1,62
 973 579 973 579 984 640 c 2,63,-1
 1013 817 l 2,34,35
EndSplineSet
Substitution2: "'smcp' Lowercase to Small Capitals lookup 0 subtable" Q.smcp
EndChar
StartChar: R
Encoding: 82 82 52
Width: 1202
Flags: W
LayerCount: 2
Back
Fore
SplineSet
666 609 m 1,0,-1
 316 609 l 1,1,-1
 210 0 l 1,2,-1
 92 0 l 1,3,-1
 345 1456 l 1,4,-1
 737 1455 l 2,5,6
 827 1452 827 1452 902 1420 c 128,-1,7
 977 1388 977 1388 1029 1333.5 c 128,-1,8
 1081 1279 1081 1279 1107 1203 c 128,-1,9
 1133 1127 1133 1127 1124 1035 c 0,10,11
 1117 958 1117 958 1087.5 896 c 128,-1,12
 1058 834 1058 834 1012 784.5 c 128,-1,13
 966 735 966 735 906 698 c 128,-1,14
 846 661 846 661 778 634 c 1,15,-1
 994 13 l 1,16,-1
 992 0 l 1,17,-1
 868 0 l 1,18,-1
 666 609 l 1,0,-1
333 710 m 1,19,-1
 634 708 l 2,20,21
 704 709 704 709 768 733.5 c 128,-1,22
 832 758 832 758 882 801.5 c 128,-1,23
 932 845 932 845 964.5 905 c 128,-1,24
 997 965 997 965 1005 1036 c 0,25,26
 1012 1103 1012 1103 996 1160 c 128,-1,27
 980 1217 980 1217 944 1259 c 128,-1,28
 908 1301 908 1301 854.5 1325.5 c 128,-1,29
 801 1350 801 1350 734 1353 c 2,30,-1
 445 1354 l 1,31,-1
 333 710 l 1,19,-1
EndSplineSet
Substitution2: "'smcp' Lowercase to Small Capitals lookup 0 subtable" R.smcp
EndChar
StartChar: S
Encoding: 83 83 53
Width: 1202
Flags: W
LayerCount: 2
Back
Fore
SplineSet
921 366 m 0,0,1
 926 413 926 413 916 451 c 128,-1,2
 906 489 906 489 885.5 519.5 c 128,-1,3
 865 550 865 550 835.5 574.5 c 128,-1,4
 806 599 806 599 771.5 618.5 c 128,-1,5
 737 638 737 638 699.5 654 c 128,-1,6
 662 670 662 670 625 684 c 0,7,8
 555 710 555 710 486 744.5 c 128,-1,9
 417 779 417 779 363 827.5 c 128,-1,10
 309 876 309 876 277.5 941 c 128,-1,11
 246 1006 246 1006 252 1092 c 0,12,13
 256 1153 256 1153 278.5 1206 c 128,-1,14
 301 1259 301 1259 337 1302 c 128,-1,15
 373 1345 373 1345 419.5 1378 c 128,-1,16
 466 1411 466 1411 519 1433.5 c 128,-1,17
 572 1456 572 1456 629.5 1466.5 c 128,-1,18
 687 1477 687 1477 744 1476 c 0,19,20
 834 1474 834 1474 909.5 1441 c 128,-1,21
 985 1408 985 1408 1038 1351.5 c 128,-1,22
 1091 1295 1091 1295 1118.5 1218.5 c 128,-1,23
 1146 1142 1146 1142 1142 1052 c 1,24,-1
 1023 1052 l 1,25,26
 1022 1118 1022 1118 1003.5 1175 c 128,-1,27
 985 1232 985 1232 949.5 1275 c 128,-1,28
 914 1318 914 1318 861 1343.5 c 128,-1,29
 808 1369 808 1369 739 1371 c 0,30,31
 676 1373 676 1373 613.5 1355 c 128,-1,32
 551 1337 551 1337 500 1301.5 c 128,-1,33
 449 1266 449 1266 414.5 1213.5 c 128,-1,34
 380 1161 380 1161 374 1094 c 256,35,36
 368 1027 368 1027 393 978.5 c 128,-1,37
 418 930 418 930 461 895 c 128,-1,38
 504 860 504 860 558.5 836 c 128,-1,39
 613 812 613 812 666 793 c 0,40,41
 739 767 739 767 810 730.5 c 128,-1,42
 881 694 881 694 935 643 c 128,-1,43
 989 592 989 592 1020 524 c 128,-1,44
 1051 456 1051 456 1044 368 c 0,45,46
 1039 304 1039 304 1016.5 250 c 128,-1,47
 994 196 994 196 957.5 152.5 c 128,-1,48
 921 109 921 109 873 76.5 c 128,-1,49
 825 44 825 44 770.5 22 c 128,-1,50
 716 0 716 0 657 -10.5 c 128,-1,51
 598 -21 598 -21 539 -20 c 0,52,53
 446 -19 446 -19 364.5 11.5 c 128,-1,54
 283 42 283 42 223.5 97.5 c 128,-1,55
 164 153 164 153 131.5 231 c 128,-1,56
 99 309 99 309 103 405 c 1,57,-1
 221 405 l 1,58,59
 222 332 222 332 245.5 273.5 c 128,-1,60
 269 215 269 215 311 173.5 c 128,-1,61
 353 132 353 132 412 108.5 c 128,-1,62
 471 85 471 85 544 84 c 0,63,64
 610 82 610 82 674.5 99.5 c 128,-1,65
 739 117 739 117 791.5 152.5 c 128,-1,66
 844 188 844 188 879 241.5 c 128,-1,67
 914 295 914 295 921 366 c 0,0,1
EndSplineSet
Substitution2: "'smcp' Lowercase to Small Capitals lookup 0 subtable" S.smcp
EndChar
StartChar: T
Encoding: 84 84 54
Width: 1202
Flags: W
LayerCount: 2
Back
Fore
SplineSet
1236 1351 m 1,0,-1
 787 1351 l 1,1,-1
 552 0 l 1,2,-1
 436 0 l 1,3,-1
 671 1351 l 1,4,-1
 220 1351 l 1,5,-1
 239 1456 l 1,6,-1
 1255 1456 l 1,7,-1
 1236 1351 l 1,0,-1
EndSplineSet
Substitution2: "'smcp' Lowercase to Small Capitals lookup 0 subtable" T.smcp
EndChar
StartChar: U
Encoding: 85 85 55
Width: 1202
Flags: W
LayerCount: 2
Back
Fore
SplineSet
1189 1456 m 1,0,-1
 1022 471 l 2,1,2
 1007 373 1007 373 963 283.5 c 128,-1,3
 919 194 919 194 851.5 125.5 c 128,-1,4
 784 57 784 57 695.5 17.5 c 128,-1,5
 607 -22 607 -22 502 -20 c 0,6,7
 403 -18 403 -18 329 24.5 c 128,-1,8
 255 67 255 67 207.5 135 c 128,-1,9
 160 203 160 203 140.5 289.5 c 128,-1,10
 121 376 121 376 131 468 c 1,11,-1
 302 1456 l 1,12,-1
 414 1456 l 1,13,-1
 248 468 l 2,14,15
 240 400 240 400 251 333 c 128,-1,16
 262 266 262 266 293.5 211.5 c 128,-1,17
 325 157 325 157 378.5 122 c 128,-1,18
 432 87 432 87 509 84 c 0,19,20
 590 81 590 81 657 113.5 c 128,-1,21
 724 146 724 146 774.5 201 c 128,-1,22
 825 256 825 256 857.5 326 c 128,-1,23
 890 396 890 396 903 470 c 2,24,-1
 1074 1456 l 1,25,-1
 1189 1456 l 1,0,-1
EndSplineSet
Substitution2: "'smcp' Lowercase to Small Capitals lookup 0 subtable" U.smcp
EndChar
StartChar: V
Encoding: 86 86 56
Width: 1202
Flags: W
LayerCount: 2
Back
Fore
SplineSet
524 185 m 1,0,-1
 1107 1456 l 1,1,-1
 1237 1456 l 1,2,-1
 556 0 l 1,3,-1
 445 0 l 1,4,-1
 220 1456 l 1,5,-1
 342 1456 l 1,6,-1
 524 185 l 1,0,-1
EndSplineSet
Substitution2: "'smcp' Lowercase to Small Capitals lookup 0 subtable" V.smcp
EndChar
StartChar: W
Encoding: 87 87 57
Width: 1202
Flags: W
LayerCount: 2
Back
Fore
SplineSet
296 326 m 1,0,-1
 289 245 l 1,1,-1
 314 334 l 1,2,-1
 694 1456 l 1,3,-1
 798 1456 l 1,4,-1
 828 325 l 1,5,-1
 823 239 l 1,6,-1
 846 333 l 1,7,-1
 1166 1456 l 1,8,-1
 1279 1456 l 1,9,-1
 852 0 l 1,10,-1
 734 0 l 1,11,-1
 710 1206 l 1,12,-1
 306 0 l 1,13,-1
 187 0 l 1,14,-1
 216 1456 l 1,15,-1
 327 1456 l 1,16,-1
 296 326 l 1,0,-1
EndSplineSet
Substitution2: "'smcp' Lowercase to Small Capitals lookup 0 subtable" W.smcp
EndChar
StartChar: X
Encoding: 88 88 58
Width: 1202
Flags: W
LayerCount: 2
Back
Fore
SplineSet
643 836 m 1,0,-1
 1098 1456 l 1,1,-1
 1244 1456 l 1,2,-1
 701 732 l 1,3,-1
 1023 0 l 1,4,-1
 891 0 l 1,5,-1
 622 640 l 1,6,-1
 151 0 l 1,7,-1
 5 0 l 1,8,-1
 565 744 l 1,9,-1
 253 1456 l 1,10,-1
 386 1456 l 1,11,-1
 643 836 l 1,0,-1
EndSplineSet
Substitution2: "'smcp' Lowercase to Small Capitals lookup 0 subtable" X.smcp
EndChar
StartChar: Y
Encoding: 89 89 59
Width: 1202
Flags: W
LayerCount: 2
Back
Fore
SplineSet
590 665 m 1,0,-1
 1104 1456 l 1,1,-1
 1245 1456 l 1,2,-1
 630 541 l 1,3,-1
 534 0 l 1,4,-1
 422 0 l 1,5,-1
 517 556 l 1,6,-1
 224 1456 l 1,7,-1
 354 1456 l 1,8,-1
 590 665 l 1,0,-1
EndSplineSet
Substitution2: "'smcp' Lowercase to Small Capitals lookup 0 subtable" Y.smcp
EndChar
StartChar: Z
Encoding: 90 90 60
Width: 1202
Flags: W
LayerCount: 2
Back
Fore
SplineSet
185 104 m 1,0,-1
 953 104 l 1,1,-1
 936 0 l 1,2,-1
 31 0 l 1,3,-1
 45 99 l 1,4,-1
 979 1351 l 1,5,-1
 263 1351 l 1,6,-1
 280 1456 l 1,7,-1
 1136 1456 l 1,8,-1
 1123 1362 l 1,9,-1
 185 104 l 1,0,-1
EndSplineSet
Substitution2: "'smcp' Lowercase to Small Capitals lookup 0 subtable" Z.smcp
EndChar
StartChar: bracketleft
Encoding: 91 91 61
Width: 1202
Flags: W
LayerCount: 2
Back
Fore
SplineSet
926 1562 m 1,0,-1
 702 1562 l 1,1,-1
 425 -210 l 1,2,-1
 649 -210 l 1,3,-1
 633 -312 l 1,4,-1
 295 -312 l 1,5,-1
 604 1664 l 1,6,-1
 942 1664 l 1,7,-1
 926 1562 l 1,0,-1
EndSplineSet
EndChar
StartChar: bracketright
Encoding: 93 93 63
Width: 1202
Flags: W
LayerCount: 2
Back
Fore
SplineSet
582 1664 m 1,0,-1
 921 1664 l 1,1,-1
 612 -312 l 1,2,-1
 273 -312 l 1,3,-1
 290 -210 l 1,4,-1
 512 -210 l 1,5,-1
 789 1562 l 1,6,-1
 566 1562 l 1,7,-1
 582 1664 l 1,0,-1
EndSplineSet
EndChar
StartChar: asciicircum
Encoding: 94 94 64
Width: 1202
Flags: W
LayerCount: 2
Back
Fore
SplineSet
366 667 m 1,0,-1
 245 667 l 1,1,-1
 698 1456 l 1,2,-1
 787 1456 l 1,3,-1
 964 667 l 1,4,-1
 855 667 l 1,5,-1
 720 1293 l 1,6,-1
 719 1299 l 1,7,-1
 718 1292 l 1,8,-1
 366 667 l 1,0,-1
EndSplineSet
EndChar
StartChar: a
Encoding: 97 97 67
Width: 1202
Flags: W
LayerCount: 2
Back
Fore
SplineSet
810 0 m 1,0,1
 805 39 805 39 806.5 77.5 c 128,-1,2
 808 116 808 116 814 156 c 1,3,4
 736 74 736 74 635 26 c 128,-1,5
 534 -22 534 -22 418 -20 c 0,6,7
 353 -18 353 -18 295.5 3 c 128,-1,8
 238 24 238 24 195.5 62.5 c 128,-1,9
 153 101 153 101 130 155.5 c 128,-1,10
 107 210 107 210 111 279 c 256,11,12
 115 348 115 348 141 401 c 128,-1,13
 167 454 167 454 208 493 c 128,-1,14
 249 532 249 532 302.5 558.5 c 128,-1,15
 356 585 356 585 415 600.5 c 128,-1,16
 474 616 474 616 535 623 c 128,-1,17
 596 630 596 630 654 630 c 2,18,-1
 887 629 l 1,19,-1
 905 753 l 2,20,21
 911 812 911 812 895 857.5 c 128,-1,22
 879 903 879 903 846 934.5 c 128,-1,23
 813 966 813 966 766 983 c 128,-1,24
 719 1000 719 1000 663 1002 c 0,25,26
 608 1003 608 1003 556 990 c 128,-1,27
 504 977 504 977 461 949.5 c 128,-1,28
 418 922 418 922 386 880.5 c 128,-1,29
 354 839 354 839 340 784 c 1,30,-1
 223 784 l 1,31,32
 236 864 236 864 280 924 c 128,-1,33
 324 984 324 984 386 1024 c 128,-1,34
 448 1064 448 1064 523 1083.5 c 128,-1,35
 598 1103 598 1103 674 1102 c 0,36,37
 752 1100 752 1100 819.5 1076 c 128,-1,38
 887 1052 887 1052 935 1007 c 128,-1,39
 983 962 983 962 1007.5 897.5 c 128,-1,40
 1032 833 1032 833 1024 750 c 1,41,-1
 937 226 l 2,42,43
 928 171 928 171 930 119 c 128,-1,44
 932 67 932 67 934 13 c 1,45,-1
 933 0 l 1,46,-1
 810 0 l 1,0,1
436 86 m 0,47,48
 497 84 497 84 554 98 c 128,-1,49
 611 112 611 112 661.5 140 c 128,-1,50
 712 168 712 168 755 208.5 c 128,-1,51
 798 249 798 249 831 299 c 1,52,-1
 872 537 l 1,53,-1
 669 538 l 2,54,55
 626 538 626 538 578.5 534.5 c 128,-1,56
 531 531 531 531 484 521 c 128,-1,57
 437 511 437 511 393 493 c 128,-1,58
 349 475 349 475 314.5 447.5 c 128,-1,59
 280 420 280 420 257.5 381 c 128,-1,60
 235 342 235 342 230 289 c 0,61,62
 225 241 225 241 240.5 204 c 128,-1,63
 256 167 256 167 284.5 141 c 128,-1,64
 313 115 313 115 352.5 101 c 128,-1,65
 392 87 392 87 436 86 c 0,47,48
EndSplineSet
Substitution2: "'smcp' Lowercase to Small Capitals lookup 0 subtable" A.smcp
EndChar
StartChar: b
Encoding: 98 98 68
Width: 1202
Flags: W
LayerCount: 2
Back
Fore
SplineSet
1029 536 m 2,0,1
 1020 470 1020 470 1001 402 c 128,-1,2
 982 334 982 334 952 271.5 c 128,-1,3
 922 209 922 209 881.5 155 c 128,-1,4
 841 101 841 101 789 61 c 128,-1,5
 737 21 737 21 672.5 -1 c 128,-1,6
 608 -23 608 -23 532 -21 c 0,7,8
 439 -19 439 -19 360 23 c 128,-1,9
 281 65 281 65 233 145 c 1,10,-1
 199 0 l 1,11,-1
 88 0 l 1,12,-1
 354 1536 l 1,13,-1
 474 1536 l 1,14,-1
 361 931 l 1,15,16
 425 1012 425 1012 509.5 1058.5 c 128,-1,17
 594 1105 594 1105 699 1102 c 0,18,19
 772 1100 772 1100 827.5 1075.5 c 128,-1,20
 883 1051 883 1051 922 1010.5 c 128,-1,21
 961 970 961 970 986 917 c 128,-1,22
 1011 864 1011 864 1023.5 804 c 128,-1,23
 1036 744 1036 744 1037.5 680.5 c 128,-1,24
 1039 617 1039 617 1032 557 c 2,25,-1
 1029 536 l 2,0,1
912 557 m 2,26,27
 918 603 918 603 918.5 653.5 c 128,-1,28
 919 704 919 704 912 752 c 128,-1,29
 905 800 905 800 888.5 844 c 128,-1,30
 872 888 872 888 843 921.5 c 128,-1,31
 814 955 814 955 772 975.5 c 128,-1,32
 730 996 730 996 671 998 c 0,33,34
 615 1000 615 1000 566.5 984 c 128,-1,35
 518 968 518 968 477 939 c 128,-1,36
 436 910 436 910 402 870.5 c 128,-1,37
 368 831 368 831 342 786 c 1,38,-1
 257 279 l 1,39,40
 286 191 286 191 354 138.5 c 128,-1,41
 422 86 422 86 516 83 c 0,42,43
 578 81 578 81 629.5 99.5 c 128,-1,44
 681 118 681 118 722 150.5 c 128,-1,45
 763 183 763 183 794.5 227.5 c 128,-1,46
 826 272 826 272 849 323 c 128,-1,47
 872 374 872 374 886.5 428.5 c 128,-1,48
 901 483 901 483 909 536 c 2,49,-1
 912 557 l 2,26,27
EndSplineSet
Substitution2: "'smcp' Lowercase to Small Capitals lookup 0 subtable" B.smcp
EndChar
StartChar: d
Encoding: 100 100 70
Width: 1202
Flags: W
LayerCount: 2
Back
Fore
SplineSet
143 545 m 2,0,1
 152 612 152 612 171.5 679.5 c 128,-1,2
 191 747 191 747 221 810 c 128,-1,3
 251 873 251 873 292.5 927 c 128,-1,4
 334 981 334 981 387 1021 c 128,-1,5
 440 1061 440 1061 504.5 1082.5 c 128,-1,6
 569 1104 569 1104 646 1102 c 0,7,8
 738 1100 738 1100 813.5 1057.5 c 128,-1,9
 889 1015 889 1015 935 934 c 1,10,-1
 1043 1536 l 1,11,-1
 1161 1536 l 1,12,-1
 895 0 l 1,13,-1
 783 0 l 1,14,-1
 810 140 l 1,15,16
 745 63 745 63 660.5 20 c 128,-1,17
 576 -23 576 -23 473 -20 c 0,18,19
 402 -18 402 -18 347.5 7 c 128,-1,20
 293 32 293 32 254 72.5 c 128,-1,21
 215 113 215 113 189.5 166.5 c 128,-1,22
 164 220 164 220 151 280 c 128,-1,23
 138 340 138 340 135.5 402.5 c 128,-1,24
 133 465 133 465 140 524 c 2,25,-1
 143 545 l 2,0,1
260 524 m 2,26,27
 254 478 254 478 254 428 c 128,-1,28
 254 378 254 378 261.5 330 c 128,-1,29
 269 282 269 282 285.5 238.5 c 128,-1,30
 302 195 302 195 330.5 161.5 c 128,-1,31
 359 128 359 128 400.5 107 c 128,-1,32
 442 86 442 86 500 84 c 0,33,34
 552 82 552 82 599 95.5 c 128,-1,35
 646 109 646 109 686.5 133.5 c 128,-1,36
 727 158 727 158 761.5 193 c 128,-1,37
 796 228 796 228 824 270 c 1,38,-1
 913 796 l 1,39,40
 899 839 899 839 875.5 876 c 128,-1,41
 852 913 852 913 820 939.5 c 128,-1,42
 788 966 788 966 748 981.5 c 128,-1,43
 708 997 708 997 661 999 c 0,44,45
 598 1001 598 1001 546.5 982.5 c 128,-1,46
 495 964 495 964 453.5 931.5 c 128,-1,47
 412 899 412 899 379.5 854.5 c 128,-1,48
 347 810 347 810 324 759 c 128,-1,49
 301 708 301 708 285.5 653 c 128,-1,50
 270 598 270 598 263 545 c 2,51,-1
 260 524 l 2,26,27
EndSplineSet
Substitution2: "'smcp' Lowercase to Small Capitals lookup 0 subtable" D.smcp
EndChar
StartChar: e
Encoding: 101 101 71
Width: 1202
Flags: W
LayerCount: 2
Back
Fore
SplineSet
539 -20 m 0,0,1
 430 -17 430 -17 349 28 c 128,-1,2
 268 73 268 73 216.5 146 c 128,-1,3
 165 219 165 219 143 313 c 128,-1,4
 121 407 121 407 131 507 c 2,5,-1
 136 551 l 2,6,7
 145 620 145 620 168.5 688 c 128,-1,8
 192 756 192 756 228 818 c 128,-1,9
 264 880 264 880 312 933 c 128,-1,10
 360 986 360 986 418.5 1024 c 128,-1,11
 477 1062 477 1062 545 1083 c 128,-1,12
 613 1104 613 1104 688 1102 c 0,13,14
 791 1099 791 1099 864 1056 c 128,-1,15
 937 1013 937 1013 981.5 944 c 128,-1,16
 1026 875 1026 875 1042.5 787 c 128,-1,17
 1059 699 1059 699 1049 606 c 2,18,-1
 1040 533 l 1,19,-1
 254 533 l 1,20,-1
 249 509 l 1,21,22
 238 433 238 433 251.5 358 c 128,-1,23
 265 283 265 283 303 222.5 c 128,-1,24
 341 162 341 162 402.5 123.5 c 128,-1,25
 464 85 464 85 548 82 c 0,26,27
 647 78 647 78 729.5 118 c 128,-1,28
 812 158 812 158 881 226 c 1,29,-1
 952 169 l 1,30,31
 874 75 874 75 767 26.5 c 128,-1,32
 660 -22 660 -22 539 -20 c 0,0,1
682 1000 m 0,33,34
 601 1003 601 1003 535 972 c 128,-1,35
 469 941 469 941 417.5 889.5 c 128,-1,36
 366 838 366 838 329 771 c 128,-1,37
 292 704 292 704 269 635 c 1,38,-1
 932 634 l 1,39,-1
 935 649 l 2,40,41
 944 713 944 713 932 775 c 128,-1,42
 920 837 920 837 887.5 886.5 c 128,-1,43
 855 936 855 936 803 967 c 128,-1,44
 751 998 751 998 682 1000 c 0,33,34
EndSplineSet
Substitution2: "'smcp' Lowercase to Small Capitals lookup 0 subtable" E.smcp
EndChar
StartChar: f
Encoding: 102 102 72
Width: 1203
Flags: W
LayerCount: 2
Back
Fore
SplineSet
1065 984 m 1,0,-1
 648 984 l 1,1,-1
 478 0 l 1,2,-1
 355 0 l 1,3,-1
 527 984 l 1,4,-1
 241 984 l 1,5,-1
 258 1082 l 1,6,-1
 544 1082 l 1,7,-1
 556 1168 l 2,8,9
 570 1265 570 1265 609.5 1340.5 c 128,-1,10
 649 1416 649 1416 710.5 1467 c 128,-1,11
 772 1518 772 1518 853 1543.5 c 128,-1,12
 934 1569 934 1569 1032 1568 c 0,13,14
 1088 1567 1088 1567 1142 1559 c 128,-1,15
 1196 1551 1196 1551 1250 1539 c 1,16,-1
 1223 1438 l 1,17,18
 1133 1463 1133 1463 1038 1465 c 0,19,20
 964 1466 964 1466 902.5 1447.5 c 128,-1,21
 841 1429 841 1429 794.5 1392 c 128,-1,22
 748 1355 748 1355 718 1299 c 128,-1,23
 688 1243 688 1243 676 1169 c 2,24,-1
 663 1082 l 1,25,-1
 1083 1082 l 1,26,-1
 1065 984 l 1,0,-1
EndSplineSet
Substitution2: "'smcp' Lowercase to Small Capitals lookup 0 subtable" F.smcp
EndChar
StartChar: g
Encoding: 103 103 73
Width: 1202
Flags: W
LayerCount: 2
Back
Fore
SplineSet
145 545 m 2,0,1
 154 612 154 612 173.5 679.5 c 128,-1,2
 193 747 193 747 223 809.5 c 128,-1,3
 253 872 253 872 293.5 926.5 c 128,-1,4
 334 981 334 981 387 1021 c 128,-1,5
 440 1061 440 1061 504.5 1083 c 128,-1,6
 569 1105 569 1105 646 1103 c 0,7,8
 740 1100 740 1100 816 1056.5 c 128,-1,9
 892 1013 892 1013 938 932 c 1,10,-1
 973 1082 l 1,11,-1
 1085 1082 l 1,12,-1
 903 19 l 2,13,14
 888 -77 888 -77 847.5 -160 c 128,-1,15
 807 -243 807 -243 744 -304.5 c 128,-1,16
 681 -366 681 -366 597 -400 c 128,-1,17
 513 -434 513 -434 411 -431 c 0,18,19
 359 -430 359 -430 309.5 -416.5 c 128,-1,20
 260 -403 260 -403 215.5 -379 c 128,-1,21
 171 -355 171 -355 133 -320.5 c 128,-1,22
 95 -286 95 -286 67 -242 c 1,23,-1
 140 -172 l 1,24,25
 188 -242 188 -242 255 -285.5 c 128,-1,26
 322 -329 322 -329 409 -331 c 0,27,28
 488 -333 488 -333 551 -307 c 128,-1,29
 614 -281 614 -281 661.5 -234 c 128,-1,30
 709 -187 709 -187 739.5 -123.5 c 128,-1,31
 770 -60 770 -60 784 13 c 2,32,-1
 809 136 l 1,33,34
 743 62 743 62 659 20 c 128,-1,35
 575 -22 575 -22 474 -20 c 0,36,37
 403 -18 403 -18 348.5 6.5 c 128,-1,38
 294 31 294 31 255 72 c 128,-1,39
 216 113 216 113 191 166 c 128,-1,40
 166 219 166 219 152.5 279 c 128,-1,41
 139 339 139 339 137 401.5 c 128,-1,42
 135 464 135 464 142 523 c 2,43,-1
 145 545 l 2,0,1
261 524 m 2,44,45
 255 478 255 478 255 428 c 128,-1,46
 255 378 255 378 262.5 330 c 128,-1,47
 270 282 270 282 286.5 238 c 128,-1,48
 303 194 303 194 331.5 160.5 c 128,-1,49
 360 127 360 127 402 106.5 c 128,-1,50
 444 86 444 86 502 84 c 0,51,52
 554 82 554 82 601 96 c 128,-1,53
 648 110 648 110 689 135.5 c 128,-1,54
 730 161 730 161 764.5 197 c 128,-1,55
 799 233 799 233 826 275 c 1,56,-1
 914 792 l 1,57,58
 900 837 900 837 877 874 c 128,-1,59
 854 911 854 911 822 938.5 c 128,-1,60
 790 966 790 966 749.5 981.5 c 128,-1,61
 709 997 709 997 661 999 c 0,62,63
 598 1001 598 1001 546.5 982.5 c 128,-1,64
 495 964 495 964 453.5 931 c 128,-1,65
 412 898 412 898 380 853.5 c 128,-1,66
 348 809 348 809 325 758 c 128,-1,67
 302 707 302 707 287 652.5 c 128,-1,68
 272 598 272 598 264 545 c 2,69,-1
 261 524 l 2,44,45
EndSplineSet
Substitution2: "'smcp' Lowercase to Small Capitals lookup 0 subtable" G.smcp
EndChar
StartChar: h
Encoding: 104 104 74
Width: 1202
Flags: W
LayerCount: 2
Back
Fore
SplineSet
346 873 m 1,0,1
 380 923 380 923 421.5 965.5 c 128,-1,2
 463 1008 463 1008 512.5 1038.5 c 128,-1,3
 562 1069 562 1069 618 1086 c 128,-1,4
 674 1103 674 1103 737 1102 c 0,5,6
 826 1100 826 1100 886.5 1065.5 c 128,-1,7
 947 1031 947 1031 982.5 974.5 c 128,-1,8
 1018 918 1018 918 1029.5 844.5 c 128,-1,9
 1041 771 1041 771 1032 691 c 1,10,-1
 916 0 l 1,11,-1
 797 0 l 1,12,-1
 913 692 l 2,13,14
 920 752 920 752 913 806.5 c 128,-1,15
 906 861 906 861 881.5 903 c 128,-1,16
 857 945 857 945 813 970 c 128,-1,17
 769 995 769 995 702 997 c 0,18,19
 641 998 641 998 587 980 c 128,-1,20
 533 962 533 962 486 929.5 c 128,-1,21
 439 897 439 897 400.5 853 c 128,-1,22
 362 809 362 809 332 760 c 1,23,-1
 201 0 l 1,24,-1
 82 0 l 1,25,-1
 349 1536 l 1,26,-1
 468 1536 l 1,27,-1
 346 873 l 1,0,1
EndSplineSet
Substitution2: "'smcp' Lowercase to Small Capitals lookup 0 subtable" H.smcp
EndChar
StartChar: i
Encoding: 105 105 75
Width: 1202
Flags: W
LayerCount: 2
Back
Fore
SplineSet
297 1082 m 1,0,-1
 787 1082 l 1,1,-1
 617 106 l 1,2,-1
 975 106 l 1,3,-1
 956 0 l 1,4,-1
 109 0 l 1,5,-1
 128 106 l 1,6,-1
 498 106 l 1,7,-1
 649 975 l 1,8,-1
 278 975 l 1,9,-1
 297 1082 l 1,0,-1
685 1376 m 0,10,11
 687 1416 687 1416 712 1442.5 c 128,-1,12
 737 1469 737 1469 778 1470 c 0,13,14
 818 1471 818 1471 842 1445 c 128,-1,15
 866 1419 866 1419 864 1380 c 256,16,17
 862 1341 862 1341 836 1315.5 c 128,-1,18
 810 1290 810 1290 771 1289 c 0,19,20
 731 1288 731 1288 707 1312.5 c 128,-1,21
 683 1337 683 1337 685 1376 c 0,10,11
EndSplineSet
Substitution2: "'smcp' Lowercase to Small Capitals lookup 0 subtable" I.smcp
EndChar
StartChar: j
Encoding: 106 106 76
Width: 1202
Flags: W
LayerCount: 2
Back
Fore
SplineSet
375 1082 m 1,0,-1
 872 1082 l 1,1,-1
 687 0 l 2,2,3
 673 -95 673 -95 636.5 -175.5 c 128,-1,4
 600 -256 600 -256 541.5 -315 c 128,-1,5
 483 -374 483 -374 402.5 -407 c 128,-1,6
 322 -440 322 -440 222 -440 c 0,7,8
 171 -440 171 -440 120 -435 c 128,-1,9
 69 -430 69 -430 18 -422 c 1,10,-1
 35 -322 l 1,11,12
 80 -329 80 -329 126 -332.5 c 128,-1,13
 172 -336 172 -336 218 -336 c 0,14,15
 296 -337 296 -337 356.5 -312 c 128,-1,16
 417 -287 417 -287 461 -242 c 128,-1,17
 505 -197 505 -197 531.5 -135 c 128,-1,18
 558 -73 558 -73 569 0 c 2,19,-1
 734 975 l 1,20,-1
 355 975 l 1,21,-1
 375 1082 l 1,0,-1
767 1377 m 0,22,23
 769 1417 769 1417 793 1443 c 128,-1,24
 817 1469 817 1469 858 1470 c 256,25,26
 899 1471 899 1471 923 1446 c 128,-1,27
 947 1421 947 1421 945 1381 c 256,28,29
 943 1341 943 1341 917 1316 c 128,-1,30
 891 1291 891 1291 852 1290 c 0,31,32
 812 1289 812 1289 788.5 1313.5 c 128,-1,33
 765 1338 765 1338 767 1377 c 0,22,23
EndSplineSet
Substitution2: "'smcp' Lowercase to Small Capitals lookup 0 subtable" J.smcp
EndChar
StartChar: k
Encoding: 107 107 77
Width: 1202
Flags: W
LayerCount: 2
Back
Fore
SplineSet
471 545 m 1,0,-1
 295 405 l 1,1,-1
 224 0 l 1,2,-1
 104 0 l 1,3,-1
 371 1536 l 1,4,-1
 491 1536 l 1,5,-1
 320 556 l 1,6,-1
 461 676 l 1,7,-1
 955 1082 l 1,8,-1
 1117 1082 l 1,9,-1
 562 621 l 1,10,-1
 967 0 l 1,11,-1
 826 0 l 1,12,-1
 471 545 l 1,0,-1
EndSplineSet
Substitution2: "'smcp' Lowercase to Small Capitals lookup 0 subtable" K.smcp
EndChar
StartChar: l
Encoding: 108 108 78
Width: 1202
Flags: W
LayerCount: 2
Back
Fore
SplineSet
376 1536 m 1,0,-1
 867 1536 l 1,1,-1
 619 106 l 1,2,-1
 975 106 l 1,3,-1
 956 0 l 1,4,-1
 109 0 l 1,5,-1
 128 106 l 1,6,-1
 500 106 l 1,7,-1
 729 1429 l 1,8,-1
 357 1429 l 1,9,-1
 376 1536 l 1,0,-1
EndSplineSet
Substitution2: "'smcp' Lowercase to Small Capitals lookup 0 subtable" L.smcp
EndChar
StartChar: m
Encoding: 109 109 79
Width: 1202
Flags: W
LayerCount: 2
Back
Fore
SplineSet
276 1083 m 1,0,-1
 250 962 l 1,1,2
 294 1028 294 1028 354.5 1066 c 128,-1,3
 415 1104 415 1104 496 1103 c 0,4,5
 567 1102 567 1102 619.5 1067 c 128,-1,6
 672 1032 672 1032 686 960 c 1,7,8
 732 1024 732 1024 794.5 1063.5 c 128,-1,9
 857 1103 857 1103 939 1102 c 0,10,11
 1003 1101 1003 1101 1044.5 1075 c 128,-1,12
 1086 1049 1086 1049 1109 1007 c 128,-1,13
 1132 965 1132 965 1139 912 c 128,-1,14
 1146 859 1146 859 1140 804 c 2,15,-1
 1003 0 l 1,16,-1
 892 0 l 1,17,-1
 1026 805 l 2,18,19
 1030 840 1030 840 1027 875 c 128,-1,20
 1024 910 1024 910 1010.5 937.5 c 128,-1,21
 997 965 997 965 971 982 c 128,-1,22
 945 999 945 999 902 999 c 0,23,24
 864 999 864 999 829.5 986.5 c 128,-1,25
 795 974 795 974 767 951.5 c 128,-1,26
 739 929 739 929 719 898.5 c 128,-1,27
 699 868 699 868 690 831 c 2,28,-1
 547 0 l 1,29,-1
 436 0 l 1,30,-1
 572 816 l 2,31,32
 575 851 575 851 571.5 884 c 128,-1,33
 568 917 568 917 554 942.5 c 128,-1,34
 540 968 540 968 514 983.5 c 128,-1,35
 488 999 488 999 447 999 c 0,36,37
 409 999 409 999 374.5 986.5 c 128,-1,38
 340 974 340 974 312.5 951 c 128,-1,39
 285 928 285 928 265 897 c 128,-1,40
 245 866 245 866 236 829 c 2,41,-1
 93 0 l 1,42,-1
 -19 0 l 1,43,-1
 169 1082 l 1,44,-1
 276 1083 l 1,0,-1
EndSplineSet
Substitution2: "'smcp' Lowercase to Small Capitals lookup 0 subtable" M.smcp
EndChar
StartChar: n
Encoding: 110 110 80
Width: 1202
Flags: W
LayerCount: 2
Back
Fore
SplineSet
380 1082 m 1,0,-1
 346 879 l 1,1,2
 380 928 380 928 421.5 969.5 c 128,-1,3
 463 1011 463 1011 512 1041 c 128,-1,4
 561 1071 561 1071 616.5 1087 c 128,-1,5
 672 1103 672 1103 734 1102 c 0,6,7
 822 1100 822 1100 883 1065.5 c 128,-1,8
 944 1031 944 1031 979 975 c 128,-1,9
 1014 919 1014 919 1026 846 c 128,-1,10
 1038 773 1038 773 1029 693 c 1,11,-1
 913 0 l 1,12,-1
 794 0 l 1,13,-1
 910 692 l 2,14,15
 917 752 917 752 910.5 806.5 c 128,-1,16
 904 861 904 861 880 903 c 128,-1,17
 856 945 856 945 811.5 970.5 c 128,-1,18
 767 996 767 996 699 998 c 0,19,20
 637 999 637 999 582.5 979.5 c 128,-1,21
 528 960 528 960 481.5 926.5 c 128,-1,22
 435 893 435 893 397 848 c 128,-1,23
 359 803 359 803 331 752 c 1,24,-1
 201 0 l 1,25,-1
 82 0 l 1,26,-1
 270 1082 l 1,27,-1
 380 1082 l 1,0,-1
EndSplineSet
Substitution2: "'smcp' Lowercase to Small Capitals lookup 0 subtable" N.smcp
EndChar
StartChar: o
Encoding: 111 111 81
Width: 1202
Flags: W
LayerCount: 2
Back
Fore
SplineSet
119 550 m 2,0,1
 128 621 128 621 151 690 c 128,-1,2
 174 759 174 759 209 821 c 128,-1,3
 244 883 244 883 291.5 935.5 c 128,-1,4
 339 988 339 988 397 1025.5 c 128,-1,5
 455 1063 455 1063 523 1083.5 c 128,-1,6
 591 1104 591 1104 669 1102 c 0,7,8
 743 1100 743 1100 802.5 1077.5 c 128,-1,9
 862 1055 862 1055 907.5 1017 c 128,-1,10
 953 979 953 979 984.5 927 c 128,-1,11
 1016 875 1016 875 1034 815.5 c 128,-1,12
 1052 756 1052 756 1057.5 691 c 128,-1,13
 1063 626 1063 626 1056 560 c 2,14,-1
 1052 526 l 2,15,16
 1038 419 1038 419 993.5 319.5 c 128,-1,17
 949 220 949 220 878.5 143.5 c 128,-1,18
 808 67 808 67 712.5 22 c 128,-1,19
 617 -23 617 -23 502 -20 c 0,20,21
 392 -17 392 -17 313.5 30 c 128,-1,22
 235 77 235 77 187.5 152.5 c 128,-1,23
 140 228 140 228 122 323.5 c 128,-1,24
 104 419 104 419 115 517 c 2,25,-1
 119 550 l 2,0,1
234 516 m 2,26,27
 226 443 226 443 235 367 c 128,-1,28
 244 291 244 291 276 228 c 128,-1,29
 308 165 308 165 364.5 124 c 128,-1,30
 421 83 421 83 508 80 c 0,31,32
 600 77 600 77 674 116 c 128,-1,33
 748 155 748 155 802 219 c 128,-1,34
 856 283 856 283 889 364 c 128,-1,35
 922 445 922 445 934 527 c 2,36,-1
 938 559 l 2,37,38
 946 632 946 632 937 709 c 128,-1,39
 928 786 928 786 896 850 c 128,-1,40
 864 914 864 914 807 956 c 128,-1,41
 750 998 750 998 663 1001 c 0,42,43
 570 1004 570 1004 496.5 964 c 128,-1,44
 423 924 423 924 369 859.5 c 128,-1,45
 315 795 315 795 282 713 c 128,-1,46
 249 631 249 631 238 550 c 2,47,-1
 234 516 l 2,26,27
EndSplineSet
Substitution2: "'smcp' Lowercase to Small Capitals lookup 0 subtable" O.smcp
EndChar
StartChar: p
Encoding: 112 112 82
Width: 1202
Flags: W
LayerCount: 2
Back
Fore
SplineSet
1025 536 m 2,0,1
 1016 470 1016 470 997 402 c 128,-1,2
 978 334 978 334 948.5 271.5 c 128,-1,3
 919 209 919 209 878.5 155 c 128,-1,4
 838 101 838 101 785.5 61 c 128,-1,5
 733 21 733 21 669 -1 c 128,-1,6
 605 -23 605 -23 528 -21 c 0,7,8
 438 -19 438 -19 359.5 19 c 128,-1,9
 281 57 281 57 231 132 c 1,10,-1
 132 -416 l 1,11,-1
 13 -416 l 1,12,-1
 273 1082 l 1,13,-1
 384 1083 l 1,14,-1
 356 935 l 1,15,16
 421 1013 421 1013 506 1058.5 c 128,-1,17
 591 1104 591 1104 696 1102 c 0,18,19
 769 1100 769 1100 824 1076 c 128,-1,20
 879 1052 879 1052 918.5 1011.5 c 128,-1,21
 958 971 958 971 982.5 917.5 c 128,-1,22
 1007 864 1007 864 1019.5 804.5 c 128,-1,23
 1032 745 1032 745 1033.5 681.5 c 128,-1,24
 1035 618 1035 618 1028 558 c 2,25,-1
 1025 536 l 2,0,1
909 558 m 2,26,27
 915 604 915 604 915 654 c 128,-1,28
 915 704 915 704 907 752.5 c 128,-1,29
 899 801 899 801 882 844.5 c 128,-1,30
 865 888 865 888 835.5 921.5 c 128,-1,31
 806 955 806 955 763.5 975.5 c 128,-1,32
 721 996 721 996 663 998 c 0,33,34
 610 1000 610 1000 563.5 985.5 c 128,-1,35
 517 971 517 971 476.5 944 c 128,-1,36
 436 917 436 917 402.5 880 c 128,-1,37
 369 843 369 843 342 800 c 1,38,-1
 251 261 l 1,39,40
 283 178 283 178 350 130 c 128,-1,41
 417 82 417 82 507 80 c 0,42,43
 569 78 569 78 621 96.5 c 128,-1,44
 673 115 673 115 714.5 148 c 128,-1,45
 756 181 756 181 788.5 226 c 128,-1,46
 821 271 821 271 844.5 322 c 128,-1,47
 868 373 868 373 883 428 c 128,-1,48
 898 483 898 483 906 536 c 2,49,-1
 909 558 l 2,26,27
EndSplineSet
Substitution2: "'smcp' Lowercase to Small Capitals lookup 0 subtable" P.smcp
EndChar
StartChar: q
Encoding: 113 113 83
Width: 1202
Flags: W
LayerCount: 2
Back
Fore
SplineSet
144 545 m 2,0,1
 153 612 153 612 172.5 680.5 c 128,-1,2
 192 749 192 749 222 811.5 c 128,-1,3
 252 874 252 874 293.5 928 c 128,-1,4
 335 982 335 982 388 1021.5 c 128,-1,5
 441 1061 441 1061 506 1082.5 c 128,-1,6
 571 1104 571 1104 649 1102 c 0,7,8
 740 1100 740 1100 815 1058.5 c 128,-1,9
 890 1017 890 1017 937 939 c 1,10,-1
 972 1082 l 1,11,-1
 1084 1082 l 1,12,-1
 823 -416 l 1,13,-1
 704 -416 l 1,14,-1
 806 130 l 1,15,16
 740 58 740 58 657 18 c 128,-1,17
 574 -22 574 -22 476 -20 c 0,18,19
 404 -18 404 -18 349 6.5 c 128,-1,20
 294 31 294 31 254.5 71.5 c 128,-1,21
 215 112 215 112 190 165.5 c 128,-1,22
 165 219 165 219 151.5 278.5 c 128,-1,23
 138 338 138 338 136 401 c 128,-1,24
 134 464 134 464 141 524 c 2,25,-1
 144 545 l 2,0,1
261 523 m 2,26,27
 255 477 255 477 255 427.5 c 128,-1,28
 255 378 255 378 262.5 329.5 c 128,-1,29
 270 281 270 281 287 236.5 c 128,-1,30
 304 192 304 192 332.5 158 c 128,-1,31
 361 124 361 124 403 103.5 c 128,-1,32
 445 83 445 83 503 81 c 0,33,34
 554 79 554 79 599.5 92 c 128,-1,35
 645 105 645 105 685 129 c 128,-1,36
 725 153 725 153 759.5 187 c 128,-1,37
 794 221 794 221 822 260 c 1,38,-1
 916 808 l 1,39,40
 901 850 901 850 876.5 884.5 c 128,-1,41
 852 919 852 919 820 944.5 c 128,-1,42
 788 970 788 970 749 984.5 c 128,-1,43
 710 999 710 999 664 1001 c 0,44,45
 601 1003 601 1003 549.5 984.5 c 128,-1,46
 498 966 498 966 456 933 c 128,-1,47
 414 900 414 900 382 855.5 c 128,-1,48
 350 811 350 811 326 759.5 c 128,-1,49
 302 708 302 708 287 653 c 128,-1,50
 272 598 272 598 264 545 c 2,51,-1
 261 523 l 2,26,27
EndSplineSet
Substitution2: "'smcp' Lowercase to Small Capitals lookup 0 subtable" Q.smcp
EndChar
StartChar: r
Encoding: 114 114 84
Width: 1202
Flags: W
LayerCount: 2
Back
Fore
SplineSet
961 1103 m 0,0,1
 1046 1103 1046 1103 1125 1081 c 1,2,-1
 1096 967 l 1,3,4
 1056 975 1056 975 1016 980.5 c 128,-1,5
 976 986 976 986 935 987 c 0,6,7
 864 988 864 988 792.5 969 c 128,-1,8
 721 950 721 950 659.5 912.5 c 128,-1,9
 598 875 598 875 551 819.5 c 128,-1,10
 504 764 504 764 483 691 c 1,11,-1
 366 0 l 1,12,-1
 243 0 l 1,13,-1
 431 1082 l 1,14,-1
 546 1082 l 1,15,-1
 515 896 l 1,16,-1
 509 872 l 1,17,18
 591 983 591 983 706 1044 c 128,-1,19
 821 1105 821 1105 961 1103 c 0,0,1
EndSplineSet
Substitution2: "'smcp' Lowercase to Small Capitals lookup 0 subtable" R.smcp
EndChar
StartChar: s
Encoding: 115 115 85
Width: 1202
Flags: W
LayerCount: 2
Back
Fore
SplineSet
868 282 m 0,0,1
 874 337 874 337 849.5 374 c 128,-1,2
 825 411 825 411 784.5 436 c 128,-1,3
 744 461 744 461 695.5 476 c 128,-1,4
 647 491 647 491 606 501 c 0,5,6
 567 511 567 511 525 523 c 128,-1,7
 483 535 483 535 442.5 552 c 128,-1,8
 402 569 402 569 366.5 591 c 128,-1,9
 331 613 331 613 304.5 643 c 128,-1,10
 278 673 278 673 263.5 711.5 c 128,-1,11
 249 750 249 750 252 800 c 0,12,13
 255 853 255 853 275.5 896 c 128,-1,14
 296 939 296 939 328.5 973 c 128,-1,15
 361 1007 361 1007 403 1031.5 c 128,-1,16
 445 1056 445 1056 492 1072 c 128,-1,17
 539 1088 539 1088 587.5 1095.5 c 128,-1,18
 636 1103 636 1103 682 1102 c 0,19,20
 756 1101 756 1101 824.5 1080.5 c 128,-1,21
 893 1060 893 1060 945 1020 c 128,-1,22
 997 980 997 980 1027.5 919.5 c 128,-1,23
 1058 859 1058 859 1057 778 c 1,24,-1
 939 779 l 1,25,26
 941 834 941 834 919 875 c 128,-1,27
 897 916 897 916 860.5 943.5 c 128,-1,28
 824 971 824 971 776 985 c 128,-1,29
 728 999 728 999 678 1000 c 0,30,31
 631 1001 631 1001 579.5 990.5 c 128,-1,32
 528 980 528 980 483.5 957 c 128,-1,33
 439 934 439 934 408 896 c 128,-1,34
 377 858 377 858 371 804 c 256,35,36
 365 750 365 750 389.5 715 c 128,-1,37
 414 680 414 680 454 657.5 c 128,-1,38
 494 635 494 635 541.5 622.5 c 128,-1,39
 589 610 589 610 630 600 c 0,40,41
 670 590 670 590 713 577.5 c 128,-1,42
 756 565 756 565 796.5 547 c 128,-1,43
 837 529 837 529 873 505.5 c 128,-1,44
 909 482 909 482 935 450.5 c 128,-1,45
 961 419 961 419 975 379 c 128,-1,46
 989 339 989 339 986 289 c 0,47,48
 983 233 983 233 961.5 188 c 128,-1,49
 940 143 940 143 906.5 108.5 c 128,-1,50
 873 74 873 74 828.5 49 c 128,-1,51
 784 24 784 24 735.5 8.5 c 128,-1,52
 687 -7 687 -7 635.5 -14 c 128,-1,53
 584 -21 584 -21 536 -20 c 0,54,55
 462 -19 462 -19 390 0.5 c 128,-1,56
 318 20 318 20 261.5 60 c 128,-1,57
 205 100 205 100 170.5 160.5 c 128,-1,58
 136 221 136 221 137 304 c 1,59,-1
 255 304 l 1,60,61
 257 244 257 244 281.5 202 c 128,-1,62
 306 160 306 160 345.5 133.5 c 128,-1,63
 385 107 385 107 435.5 94.5 c 128,-1,64
 486 82 486 82 540 81 c 0,65,66
 588 81 588 81 643 90.5 c 128,-1,67
 698 100 698 100 745.5 123.5 c 128,-1,68
 793 147 793 147 827 186 c 128,-1,69
 861 225 861 225 868 282 c 0,0,1
EndSplineSet
Substitution2: "'smcp' Lowercase to Small Capitals lookup 0 subtable" S.smcp
EndChar
StartChar: t
Encoding: 116 116 86
Width: 1202
Flags: W
LayerCount: 2
Back
Fore
SplineSet
708 1359 m 1,0,-1
 659 1082 l 1,1,-1
 1049 1082 l 1,2,-1
 1031 984 l 1,3,-1
 643 984 l 1,4,-1
 529 302 l 1,5,6
 518 201 518 201 564.5 145 c 128,-1,7
 611 89 611 89 713 86 c 0,8,9
 761 84 761 84 808 90.5 c 128,-1,10
 855 97 855 97 902 105 c 1,11,-1
 911 13 l 1,12,13
 857 -6 857 -6 800.5 -13.5 c 128,-1,14
 744 -21 744 -21 687 -19 c 0,15,16
 613 -18 613 -18 558 6 c 128,-1,17
 503 30 503 30 467.5 72 c 128,-1,18
 432 114 432 114 417 173 c 128,-1,19
 402 232 402 232 408 304 c 1,20,-1
 521 984 l 1,21,-1
 229 984 l 1,22,-1
 247 1082 l 1,23,-1
 538 1082 l 1,24,-1
 587 1359 l 1,25,-1
 708 1359 l 1,0,-1
EndSplineSet
Substitution2: "'smcp' Lowercase to Small Capitals lookup 0 subtable" T.smcp
EndChar
StartChar: u
Encoding: 117 117 87
Width: 1202
Flags: W
LayerCount: 2
Back
Fore
SplineSet
823 169 m 1,0,1
 755 78 755 78 662.5 27.5 c 128,-1,2
 570 -23 570 -23 455 -20 c 0,3,4
 363 -18 363 -18 302 20 c 128,-1,5
 241 58 241 58 207 119 c 128,-1,6
 173 180 173 180 163.5 257.5 c 128,-1,7
 154 335 154 335 163 416 c 1,8,-1
 275 1082 l 1,9,-1
 393 1082 l 1,10,-1
 281 413 l 2,11,12
 274 355 274 355 277.5 297 c 128,-1,13
 281 239 281 239 302 192.5 c 128,-1,14
 323 146 323 146 364.5 116 c 128,-1,15
 406 86 406 86 476 84 c 0,16,17
 531 82 531 82 588.5 96.5 c 128,-1,18
 646 111 646 111 696.5 140.5 c 128,-1,19
 747 170 747 170 785.5 213.5 c 128,-1,20
 824 257 824 257 841 314 c 1,21,-1
 971 1082 l 1,22,-1
 1092 1082 l 1,23,-1
 903 0 l 1,24,-1
 792 0 l 1,25,-1
 823 169 l 1,0,1
EndSplineSet
Substitution2: "'smcp' Lowercase to Small Capitals lookup 0 subtable" U.smcp
EndChar
StartChar: v
Encoding: 118 118 88
Width: 1202
Flags: W
LayerCount: 2
Back
Fore
SplineSet
519 162 m 1,0,-1
 519 140 l 1,1,-1
 529 162 l 1,2,-1
 1033 1082 l 1,3,-1
 1162 1082 l 1,4,-1
 551 0 l 1,5,-1
 454 0 l 1,6,-1
 181 1082 l 1,7,-1
 297 1082 l 1,8,-1
 519 162 l 1,0,-1
EndSplineSet
Substitution2: "'smcp' Lowercase to Small Capitals lookup 0 subtable" V.smcp
EndChar
StartChar: w
Encoding: 119 119 89
Width: 1202
Flags: W
LayerCount: 2
Back
Fore
SplineSet
272 353 m 1,0,-1
 269 168 l 1,1,-1
 336 345 l 1,2,-1
 642 1082 l 1,3,-1
 727 1082 l 1,4,-1
 778 345 l 1,5,-1
 782 161 l 1,6,-1
 849 355 l 1,7,-1
 1118 1082 l 1,8,-1
 1232 1082 l 1,9,-1
 811 0 l 1,10,-1
 714 0 l 1,11,-1
 657 745 l 1,12,-1
 657 905 l 1,13,-1
 596 735 l 1,14,-1
 286 0 l 1,15,-1
 189 0 l 1,16,-1
 144 1082 l 1,17,-1
 252 1082 l 1,18,-1
 272 353 l 1,0,-1
EndSplineSet
Substitution2: "'smcp' Lowercase to Small Capitals lookup 0 subtable" W.smcp
EndChar
StartChar: x
Encoding: 120 120 90
Width: 1202
Flags: W
LayerCount: 2
Back
Fore
SplineSet
608 642 m 1,0,-1
 1002 1082 l 1,1,-1
 1153 1082 l 1,2,-1
 665 546 l 1,3,-1
 991 0 l 1,4,-1
 859 0 l 1,5,-1
 590 459 l 1,6,-1
 176 0 l 1,7,-1
 27 0 l 1,8,-1
 534 556 l 1,9,-1
 220 1082 l 1,10,-1
 353 1082 l 1,11,-1
 608 642 l 1,0,-1
EndSplineSet
Substitution2: "'smcp' Lowercase to Small Capitals lookup 0 subtable" X.smcp
EndChar
StartChar: y
Encoding: 121 121 91
Width: 1202
Flags: W
LayerCount: 2
Back
Fore
SplineSet
514 220 m 1,0,-1
 523 161 l 1,1,-1
 1063 1082 l 1,2,-1
 1203 1082 l 1,3,-1
 445 -174 l 2,4,5
 415 -227 415 -227 377.5 -275.5 c 128,-1,6
 340 -324 340 -324 294 -360.5 c 128,-1,7
 248 -397 248 -397 193 -418.5 c 128,-1,8
 138 -440 138 -440 72 -439 c 0,9,10
 46 -439 46 -439 19.5 -434.5 c 128,-1,11
 -7 -430 -7 -430 -33 -423 c 1,12,-1
 -7 -325 l 1,13,14
 13 -328 13 -328 34 -331 c 128,-1,15
 55 -334 55 -334 76 -334 c 0,16,17
 123 -334 123 -334 162.5 -317 c 128,-1,18
 202 -300 202 -300 235 -271.5 c 128,-1,19
 268 -243 268 -243 295 -206.5 c 128,-1,20
 322 -170 322 -170 344 -133 c 2,21,-1
 447 35 l 1,22,-1
 160 1082 l 1,23,-1
 284 1083 l 1,24,-1
 514 220 l 1,0,-1
EndSplineSet
Substitution2: "'smcp' Lowercase to Small Capitals lookup 0 subtable" Y.smcp
EndChar
StartChar: z
Encoding: 122 122 92
Width: 1202
Flags: W
LayerCount: 2
Back
Fore
SplineSet
223 101 m 1,0,-1
 989 101 l 1,1,-1
 973 0 l 1,2,-1
 48 0 l 1,3,-1
 64 93 l 1,4,-1
 913 979 l 1,5,-1
 224 979 l 1,6,-1
 240 1082 l 1,7,-1
 1092 1082 l 1,8,-1
 1076 989 l 1,9,-1
 223 101 l 1,0,-1
EndSplineSet
Substitution2: "'smcp' Lowercase to Small Capitals lookup 0 subtable" Z.smcp
EndChar
StartChar: braceleft
Encoding: 123 123 93
Width: 1202
Flags: W
LayerCount: 2
Back
Fore
SplineSet
802 -403 m 1,0,1
 719 -386 719 -386 659.5 -341.5 c 128,-1,2
 600 -297 600 -297 563 -235 c 128,-1,3
 526 -173 526 -173 512.5 -97.5 c 128,-1,4
 499 -22 499 -22 507 58 c 2,5,-1
 534 267 l 2,6,7
 547 391 547 391 493 463.5 c 128,-1,8
 439 536 439 536 312 541 c 1,9,-1
 317 569 l 1,10,-1
 315 569 l 1,11,-1
 319 596 l 1,12,-1
 322 619 l 1,13,-1
 327 647 l 1,14,15
 461 650 461 650 542.5 718.5 c 128,-1,16
 624 787 624 787 643 921 c 2,17,-1
 671 1132 l 2,18,19
 683 1223 683 1223 716 1300.5 c 128,-1,20
 749 1378 749 1378 802.5 1439 c 128,-1,21
 856 1500 856 1500 928.5 1541 c 128,-1,22
 1001 1582 1001 1582 1093 1600 c 1,23,-1
 1106 1519 l 1,24,25
 1032 1504 1032 1504 977.5 1468 c 128,-1,26
 923 1432 923 1432 885 1381 c 128,-1,27
 847 1330 847 1330 823.5 1266 c 128,-1,28
 800 1202 800 1202 790 1132 c 2,29,-1
 762 922 l 2,30,31
 745 794 745 794 673 713 c 128,-1,32
 601 632 601 632 480 590 c 1,33,34
 531 569 531 569 566 535.5 c 128,-1,35
 601 502 601 502 622 459.5 c 128,-1,36
 643 417 643 417 650.5 367.5 c 128,-1,37
 658 318 658 318 653 266 c 2,38,-1
 626 57 l 2,39,40
 619 -5 619 -5 624.5 -65 c 128,-1,41
 630 -125 630 -125 652.5 -176.5 c 128,-1,42
 675 -228 675 -228 716.5 -266.5 c 128,-1,43
 758 -305 758 -305 824 -323 c 1,44,-1
 802 -403 l 1,0,1
EndSplineSet
EndChar
StartChar: bar
Encoding: 124 124 94
Width: 1202
Flags: W
LayerCount: 2
Back
Fore
SplineSet
501 -332 m 1,0,-1
 400 -332 l 1,1,-1
 680 1456 l 1,2,-1
 781 1456 l 1,3,-1
 501 -332 l 1,0,-1
EndSplineSet
EndChar
StartChar: braceright
Encoding: 125 125 95
Width: 1202
Flags: W
LayerCount: 2
Back
Fore
SplineSet
176 -325 m 1,0,1
 246 -309 246 -309 300.5 -273 c 128,-1,2
 355 -237 355 -237 394.5 -186.5 c 128,-1,3
 434 -136 434 -136 458 -73.5 c 128,-1,4
 482 -11 482 -11 493 58 c 2,5,-1
 521 266 l 2,6,7
 538 394 538 394 610 475 c 128,-1,8
 682 556 682 556 802 598 c 1,9,10
 752 619 752 619 716.5 652.5 c 128,-1,11
 681 686 681 686 660 728.5 c 128,-1,12
 639 771 639 771 631.5 820 c 128,-1,13
 624 869 624 869 629 922 c 2,14,-1
 657 1133 l 2,15,16
 664 1196 664 1196 660.5 1257 c 128,-1,17
 657 1318 657 1318 636.5 1370 c 128,-1,18
 616 1422 616 1422 574.5 1461 c 128,-1,19
 533 1500 533 1500 465 1518 c 1,20,-1
 489 1595 l 1,21,22
 573 1577 573 1577 631.5 1532.5 c 128,-1,23
 690 1488 690 1488 725 1425.5 c 128,-1,24
 760 1363 760 1363 772.5 1287.5 c 128,-1,25
 785 1212 785 1212 776 1132 c 2,26,-1
 749 921 l 2,27,28
 736 797 736 797 790 726 c 128,-1,29
 844 655 844 655 970 649 c 1,30,-1
 966 621 l 1,31,-1
 967 620 l 1,32,-1
 964 595 l 1,33,-1
 962 571 l 1,34,-1
 958 543 l 1,35,36
 823 540 823 540 741 470.5 c 128,-1,37
 659 401 659 401 640 266 c 2,38,-1
 613 58 l 2,39,40
 600 -32 600 -32 566.5 -109.5 c 128,-1,41
 533 -187 533 -187 479.5 -247 c 128,-1,42
 426 -307 426 -307 353.5 -348 c 128,-1,43
 281 -389 281 -389 190 -407 c 1,44,-1
 176 -325 l 1,0,1
EndSplineSet
EndChar
StartChar: asciitilde
Encoding: 126 126 96
Width: 1202
Flags: W
LayerCount: 2
Back
Fore
SplineSet
1155 746 m 1,0,1
 1146 684 1146 684 1122 625 c 128,-1,2
 1098 566 1098 566 1059 521 c 128,-1,3
 1020 476 1020 476 965.5 448.5 c 128,-1,4
 911 421 911 421 842 422 c 0,5,6
 798 422 798 422 759 434 c 128,-1,7
 720 446 720 446 685 466.5 c 128,-1,8
 650 487 650 487 617.5 513 c 128,-1,9
 585 539 585 539 555 568 c 0,10,11
 533 589 533 589 509.5 609.5 c 128,-1,12
 486 630 486 630 460 645.5 c 128,-1,13
 434 661 434 661 405 671 c 128,-1,14
 376 681 376 681 344 681 c 0,15,16
 296 681 296 681 259 662.5 c 128,-1,17
 222 644 222 644 196 613 c 128,-1,18
 170 582 170 582 153.5 542 c 128,-1,19
 137 502 137 502 128 460 c 1,20,-1
 36 468 l 1,21,22
 45 531 45 531 69 589 c 128,-1,23
 93 647 93 647 132 691.5 c 128,-1,24
 171 736 171 736 225.5 762.5 c 128,-1,25
 280 789 280 789 349 788 c 0,26,27
 392 788 392 788 431.5 776 c 128,-1,28
 471 764 471 764 506.5 744 c 128,-1,29
 542 724 542 724 574.5 697.5 c 128,-1,30
 607 671 607 671 637 643 c 0,31,32
 659 622 659 622 682.5 601.5 c 128,-1,33
 706 581 706 581 732 564.5 c 128,-1,34
 758 548 758 548 786.5 537.5 c 128,-1,35
 815 527 815 527 847 527 c 0,36,37
 895 527 895 527 932 547 c 128,-1,38
 969 567 969 567 995 599 c 128,-1,39
 1021 631 1021 631 1038 672 c 128,-1,40
 1055 713 1055 713 1063 755 c 1,41,-1
 1155 746 l 1,0,1
EndSplineSet
EndChar
StartChar: exclamdown
Encoding: 161 161 97
Width: 1202
Flags: W
LayerCount: 2
Back
Fore
SplineSet
550 654 m 1,0,-1
 669 654 l 1,1,-1
 492 -365 l 1,2,-1
 373 -365 l 1,3,-1
 550 654 l 1,0,-1
752 1020 m 0,4,5
 751 1003 751 1003 743 988 c 128,-1,6
 735 973 735 973 723 962 c 128,-1,7
 711 951 711 951 695.5 944 c 128,-1,8
 680 937 680 937 663 937 c 0,9,10
 645 937 645 937 630 943 c 128,-1,11
 615 949 615 949 604 960.5 c 128,-1,12
 593 972 593 972 587.5 987 c 128,-1,13
 582 1002 582 1002 583 1020 c 0,14,15
 586 1055 586 1055 611.5 1079 c 128,-1,16
 637 1103 637 1103 672 1104 c 0,17,18
 690 1104 690 1104 705 1097.5 c 128,-1,19
 720 1091 720 1091 731 1080 c 128,-1,20
 742 1069 742 1069 747.5 1053.5 c 128,-1,21
 753 1038 753 1038 752 1020 c 0,4,5
EndSplineSet
EndChar
StartChar: cent
Encoding: 162 162 98
Width: 1202
Flags: W
LayerCount: 2
Back
Fore
SplineSet
529 81 m 0,0,1
 590 79 590 79 645 96.5 c 128,-1,2
 700 114 700 114 745 147 c 128,-1,3
 790 180 790 180 822.5 227 c 128,-1,4
 855 274 855 274 871 333 c 1,5,-1
 984 333 l 1,6,7
 970 258 970 258 931.5 195.5 c 128,-1,8
 893 133 893 133 837.5 87.5 c 128,-1,9
 782 42 782 42 713.5 15 c 128,-1,10
 645 -12 645 -12 571 -18 c 1,11,-1
 531 -245 l 1,12,-1
 411 -245 l 1,13,-1
 452 -12 l 1,14,15
 360 4 360 4 298 55.5 c 128,-1,16
 236 107 236 107 199.5 179.5 c 128,-1,17
 163 252 163 252 151 339.5 c 128,-1,18
 139 427 139 427 149 517 c 2,19,-1
 154 560 l 2,20,21
 167 660 167 660 205.5 754 c 128,-1,22
 244 848 244 848 306.5 923 c 128,-1,23
 369 998 369 998 454 1046 c 128,-1,24
 539 1094 539 1094 644 1101 c 1,25,-1
 683 1318 l 1,26,-1
 803 1318 l 1,27,-1
 763 1094 l 1,28,29
 830 1081 830 1081 884.5 1047.5 c 128,-1,30
 939 1014 939 1014 977 964.5 c 128,-1,31
 1015 915 1015 915 1034.5 852 c 128,-1,32
 1054 789 1054 789 1051 716 c 1,33,-1
 937 717 l 1,34,35
 940 776 940 776 923.5 827 c 128,-1,36
 907 878 907 878 874.5 916 c 128,-1,37
 842 954 842 954 794 976.5 c 128,-1,38
 746 999 746 999 685 1001 c 0,39,40
 593 1004 593 1004 521 965.5 c 128,-1,41
 449 927 449 927 397 864 c 128,-1,42
 345 801 345 801 313.5 721 c 128,-1,43
 282 641 282 641 271 560 c 2,44,-1
 266 518 l 2,45,46
 257 445 257 445 264 368.5 c 128,-1,47
 271 292 271 292 300 229 c 128,-1,48
 329 166 329 166 384.5 125 c 128,-1,49
 440 84 440 84 529 81 c 0,0,1
EndSplineSet
EndChar
StartChar: sterling
Encoding: 163 163 99
Width: 1202
Flags: W
LayerCount: 2
Back
Fore
SplineSet
437 647 m 1,0,-1
 399 368 l 2,1,2
 388 293 388 293 362 225.5 c 128,-1,3
 336 158 336 158 286 100 c 1,4,-1
 1015 101 l 1,5,-1
 996 0 l 1,6,-1
 29 0 l 1,7,-1
 47 100 l 1,8,-1
 137 99 l 1,9,10
 175 117 175 117 200.5 147 c 128,-1,11
 226 177 226 177 241.5 213 c 128,-1,12
 257 249 257 249 266 289 c 128,-1,13
 275 329 275 329 280 368 c 2,14,-1
 319 647 l 1,15,-1
 137 647 l 1,16,-1
 155 748 l 1,17,-1
 334 748 l 1,18,-1
 372 1038 l 2,19,20
 384 1128 384 1128 421.5 1208.5 c 128,-1,21
 459 1289 459 1289 518 1349 c 128,-1,22
 577 1409 577 1409 656.5 1443.5 c 128,-1,23
 736 1478 736 1478 832 1476 c 0,24,25
 916 1474 916 1474 979.5 1443.5 c 128,-1,26
 1043 1413 1043 1413 1084.5 1361 c 128,-1,27
 1126 1309 1126 1309 1144.5 1239 c 128,-1,28
 1163 1169 1163 1169 1157 1089 c 1,29,-1
 1038 1089 l 1,30,31
 1042 1147 1042 1147 1031.5 1198 c 128,-1,32
 1021 1249 1021 1249 993.5 1287.5 c 128,-1,33
 966 1326 966 1326 921.5 1349 c 128,-1,34
 877 1372 877 1372 814 1374 c 0,35,36
 743 1376 743 1376 687 1347.5 c 128,-1,37
 631 1319 631 1319 590.5 1271.5 c 128,-1,38
 550 1224 550 1224 525 1162.5 c 128,-1,39
 500 1101 500 1101 491 1038 c 2,40,-1
 452 748 l 1,41,-1
 786 748 l 1,42,-1
 768 647 l 1,43,-1
 437 647 l 1,0,-1
EndSplineSet
EndChar
StartChar: currency
Encoding: 164 164 100
Width: 1202
Flags: W
LayerCount: 2
Back
Fore
SplineSet
851 114 m 1,0,1
 780 52 780 52 697 15 c 128,-1,2
 614 -22 614 -22 518 -20 c 0,3,4
 433 -18 433 -18 358 16 c 128,-1,5
 283 50 283 50 226 114 c 1,6,-1
 76 -26 l 1,7,-1
 4 66 l 1,8,-1
 161 209 l 1,9,10
 129 293 129 293 119 380.5 c 128,-1,11
 109 468 109 468 121 557 c 0,12,13
 135 663 135 663 179.5 756 c 128,-1,14
 224 849 224 849 293 930 c 1,15,-1
 182 1093 l 1,16,-1
 274 1175 l 1,17,-1
 381 1023 l 1,18,19
 450 1079 450 1079 529.5 1112.5 c 128,-1,20
 609 1146 609 1146 700 1144 c 0,21,22
 781 1142 781 1142 854 1110.5 c 128,-1,23
 927 1079 927 1079 982 1019 c 1,24,-1
 1149 1175 l 1,25,-1
 1221 1081 l 1,26,-1
 1051 924 l 1,27,28
 1085 839 1085 839 1096 749.5 c 128,-1,29
 1107 660 1107 660 1094 569 c 0,30,31
 1080 469 1080 469 1039.5 378.5 c 128,-1,32
 999 288 999 288 935 210 c 1,33,-1
 1043 54 l 1,34,-1
 950 -28 l 1,35,-1
 851 114 l 1,0,1
235 555 m 0,36,37
 228 506 228 506 231 452.5 c 128,-1,38
 234 399 234 399 247 348 c 128,-1,39
 260 297 260 297 283.5 251 c 128,-1,40
 307 205 307 205 342 170 c 128,-1,41
 377 135 377 135 423 114 c 128,-1,42
 469 93 469 93 527 91 c 0,43,44
 621 88 621 88 700 131 c 128,-1,45
 779 174 779 174 838 244 c 128,-1,46
 897 314 897 314 934 400.5 c 128,-1,47
 971 487 971 487 982 571 c 0,48,49
 992 645 992 645 980 725 c 128,-1,50
 968 805 968 805 932.5 872.5 c 128,-1,51
 897 940 897 940 837 984.5 c 128,-1,52
 777 1029 777 1029 690 1032 c 0,53,54
 596 1035 596 1035 517 992.5 c 128,-1,55
 438 950 438 950 379 880.5 c 128,-1,56
 320 811 320 811 283 725 c 128,-1,57
 246 639 246 639 235 555 c 0,36,37
EndSplineSet
EndChar
StartChar: yen
Encoding: 165 165 101
Width: 1202
Flags: W
LayerCount: 2
Back
Fore
SplineSet
615 735 m 1,0,-1
 1150 1456 l 1,1,-1
 1295 1456 l 1,2,-1
 724 705 l 1,3,-1
 1079 705 l 1,4,-1
 1064 618 l 1,5,-1
 657 618 l 1,6,-1
 621 412 l 1,7,-1
 1029 412 l 1,8,-1
 1013 326 l 1,9,-1
 606 326 l 1,10,-1
 549 0 l 1,11,-1
 430 0 l 1,12,-1
 487 326 l 1,13,-1
 85 326 l 1,14,-1
 100 412 l 1,15,-1
 501 412 l 1,16,-1
 538 618 l 1,17,-1
 136 618 l 1,18,-1
 151 705 l 1,19,-1
 512 705 l 1,20,-1
 203 1456 l 1,21,-1
 331 1456 l 1,22,-1
 615 735 l 1,0,-1
EndSplineSet
EndChar
StartChar: brokenbar
Encoding: 166 166 102
Width: 1202
Flags: W
LayerCount: 2
Back
Fore
SplineSet
374 -270 m 1,0,-1
 509 501 l 1,1,-1
 628 501 l 1,2,-1
 494 -270 l 1,3,-1
 374 -270 l 1,0,-1
661 698 m 1,4,-1
 542 698 l 1,5,-1
 674 1456 l 1,6,-1
 794 1456 l 1,7,-1
 661 698 l 1,4,-1
EndSplineSet
EndChar
StartChar: section
Encoding: 167 167 103
Width: 1202
Flags: W
LayerCount: 2
Back
Fore
SplineSet
1059 440 m 0,0,1
 1054 380 1054 380 1030.5 334 c 128,-1,2
 1007 288 1007 288 970 253.5 c 128,-1,3
 933 219 933 219 885.5 194.5 c 128,-1,4
 838 170 838 170 786 154 c 1,5,6
 932 49 932 49 918 -130 c 0,7,8
 913 -195 913 -195 889.5 -247.5 c 128,-1,9
 866 -300 866 -300 829 -341 c 128,-1,10
 792 -382 792 -382 744 -411.5 c 128,-1,11
 696 -441 696 -441 641.5 -460 c 128,-1,12
 587 -479 587 -479 528.5 -487.5 c 128,-1,13
 470 -496 470 -496 412 -495 c 0,14,15
 314 -493 314 -493 232.5 -463.5 c 128,-1,16
 151 -434 151 -434 94 -379 c 128,-1,17
 37 -324 37 -324 8.5 -244.5 c 128,-1,18
 -20 -165 -20 -165 -12 -64 c 1,19,-1
 106 -62 l 1,20,21
 100 -138 100 -138 119.5 -198.5 c 128,-1,22
 139 -259 139 -259 180.5 -302 c 128,-1,23
 222 -345 222 -345 282 -368.5 c 128,-1,24
 342 -392 342 -392 417 -393 c 0,25,26
 479 -395 479 -395 543 -380.5 c 128,-1,27
 607 -366 607 -366 661 -334 c 128,-1,28
 715 -302 715 -302 752.5 -252 c 128,-1,29
 790 -202 790 -202 798 -133 c 0,30,31
 803 -89 803 -89 792.5 -54 c 128,-1,32
 782 -19 782 -19 760 8.5 c 128,-1,33
 738 36 738 36 707 56.5 c 128,-1,34
 676 77 676 77 641 93.5 c 128,-1,35
 606 110 606 110 569 122.5 c 128,-1,36
 532 135 532 135 498 146 c 0,37,38
 424 170 424 170 350 200 c 128,-1,39
 276 230 276 230 217.5 275.5 c 128,-1,40
 159 321 159 321 125 385.5 c 128,-1,41
 91 450 91 450 98 542 c 0,42,43
 103 600 103 600 125.5 646 c 128,-1,44
 148 692 148 692 183.5 727.5 c 128,-1,45
 219 763 219 763 265 788 c 128,-1,46
 311 813 311 813 363 831 c 1,47,48
 294 883 294 883 263.5 954 c 128,-1,49
 233 1025 233 1025 240 1111 c 0,50,51
 245 1175 245 1175 268.5 1227.5 c 128,-1,52
 292 1280 292 1280 329.5 1320.5 c 128,-1,53
 367 1361 367 1361 415.5 1391 c 128,-1,54
 464 1421 464 1421 518.5 1440.5 c 128,-1,55
 573 1460 573 1460 631.5 1468.5 c 128,-1,56
 690 1477 690 1477 747 1476 c 0,57,58
 844 1474 844 1474 921.5 1443 c 128,-1,59
 999 1412 999 1412 1050.5 1356 c 128,-1,60
 1102 1300 1102 1300 1126.5 1221 c 128,-1,61
 1151 1142 1151 1142 1143 1045 c 1,62,-1
 1025 1045 l 1,63,64
 1031 1115 1031 1115 1014.5 1174 c 128,-1,65
 998 1233 998 1233 961.5 1277 c 128,-1,66
 925 1321 925 1321 869.5 1346.5 c 128,-1,67
 814 1372 814 1372 742 1374 c 0,68,69
 679 1376 679 1376 614.5 1362 c 128,-1,70
 550 1348 550 1348 496 1316 c 128,-1,71
 442 1284 442 1284 405 1234 c 128,-1,72
 368 1184 368 1184 360 1114 c 0,73,74
 352 1045 352 1045 378 998 c 128,-1,75
 404 951 404 951 449 919 c 128,-1,76
 494 887 494 887 551 866 c 128,-1,77
 608 845 608 845 662 828 c 0,78,79
 710 812 710 812 759.5 794.5 c 128,-1,80
 809 777 809 777 854.5 754 c 128,-1,81
 900 731 900 731 940 702 c 128,-1,82
 980 673 980 673 1008 635 c 128,-1,83
 1036 597 1036 597 1050 549 c 128,-1,84
 1064 501 1064 501 1059 440 c 0,0,1
609 729 m 0,85,86
 577 739 577 739 545.5 749.5 c 128,-1,87
 514 760 514 760 482 771 c 1,88,89
 434 763 434 763 389 747 c 128,-1,90
 344 731 344 731 308.5 703.5 c 128,-1,91
 273 676 273 676 249 637 c 128,-1,92
 225 598 225 598 218 545 c 0,93,94
 212 496 212 496 224 458.5 c 128,-1,95
 236 421 236 421 260 392.5 c 128,-1,96
 284 364 284 364 318 342.5 c 128,-1,97
 352 321 352 321 390.5 304.5 c 128,-1,98
 429 288 429 288 469 275.5 c 128,-1,99
 509 263 509 263 546 251 c 0,100,101
 575 242 575 242 602.5 232.5 c 128,-1,102
 630 223 630 223 658 213 c 1,103,104
 706 220 706 220 753.5 235.5 c 128,-1,105
 801 251 801 251 840.5 277.5 c 128,-1,106
 880 304 880 304 907 343 c 128,-1,107
 934 382 934 382 941 436 c 0,108,109
 947 483 947 483 934.5 519.5 c 128,-1,110
 922 556 922 556 896.5 585 c 128,-1,111
 871 614 871 614 836 636 c 128,-1,112
 801 658 801 658 762 675 c 128,-1,113
 723 692 723 692 683.5 705 c 128,-1,114
 644 718 644 718 609 729 c 0,85,86
EndSplineSet
EndChar
StartChar: dieresis
Encoding: 168 168 104
Width: 1202
Flags: W
LayerCount: 2
Back
Fore
SplineSet
424 1396 m 0,0,1
 425 1412 425 1412 432.5 1427 c 128,-1,2
 440 1442 440 1442 451.5 1453 c 128,-1,3
 463 1464 463 1464 477.5 1471 c 128,-1,4
 492 1478 492 1478 509 1478 c 0,5,6
 543 1478 543 1478 566 1454 c 128,-1,7
 589 1430 589 1430 586 1396 c 0,8,9
 584 1363 584 1363 559 1340 c 128,-1,10
 534 1317 534 1317 501 1316 c 0,11,12
 467 1316 467 1316 444.5 1339 c 128,-1,13
 422 1362 422 1362 424 1396 c 0,0,1
849 1395 m 0,14,15
 850 1411 850 1411 857 1426 c 128,-1,16
 864 1441 864 1441 875.5 1452 c 128,-1,17
 887 1463 887 1463 902 1470 c 128,-1,18
 917 1477 917 1477 934 1477 c 0,19,20
 968 1477 968 1477 990.5 1453 c 128,-1,21
 1013 1429 1013 1429 1011 1395 c 0,22,23
 1009 1362 1009 1362 983.5 1339 c 128,-1,24
 958 1316 958 1316 926 1315 c 0,25,26
 892 1315 892 1315 869.5 1338 c 128,-1,27
 847 1361 847 1361 849 1395 c 0,14,15
EndSplineSet
EndChar
StartChar: copyright
Encoding: 169 169 105
Width: 1202
Flags: W
LayerCount: 2
Back
Fore
SplineSet
804 448 m 1,0,1
 795 397 795 397 773 354 c 128,-1,2
 751 311 751 311 717.5 280.5 c 128,-1,3
 684 250 684 250 639.5 232.5 c 128,-1,4
 595 215 595 215 541 215 c 0,5,6
 479 215 479 215 437 242 c 128,-1,7
 395 269 395 269 370.5 311.5 c 128,-1,8
 346 354 346 354 338 407.5 c 128,-1,9
 330 461 330 461 337 514 c 2,10,-1
 347 581 l 2,11,12
 356 636 356 636 379.5 689 c 128,-1,13
 403 742 403 742 439.5 783 c 128,-1,14
 476 824 476 824 525 849 c 128,-1,15
 574 874 574 874 635 875 c 0,16,17
 688 875 688 875 728 858.5 c 128,-1,18
 768 842 768 842 794.5 812 c 128,-1,19
 821 782 821 782 832 739.5 c 128,-1,20
 843 697 843 697 837 646 c 1,21,-1
 760 646 l 1,22,23
 762 680 762 680 756.5 708.5 c 128,-1,24
 751 737 751 737 736 757 c 128,-1,25
 721 777 721 777 695 788.5 c 128,-1,26
 669 800 669 800 632 800 c 0,27,28
 587 800 587 800 552.5 780.5 c 128,-1,29
 518 761 518 761 493 730 c 128,-1,30
 468 699 468 699 451.5 660 c 128,-1,31
 435 621 435 621 428 582 c 2,32,-1
 417 514 l 2,33,34
 412 478 412 478 414 439 c 128,-1,35
 416 400 416 400 430 367.5 c 128,-1,36
 444 335 444 335 471.5 313.5 c 128,-1,37
 499 292 499 292 544 291 c 0,38,39
 582 290 582 290 612 302 c 128,-1,40
 642 314 642 314 664 335 c 128,-1,41
 686 356 686 356 701.5 385.5 c 128,-1,42
 717 415 717 415 726 449 c 1,43,-1
 804 448 l 1,0,1
146 546 m 0,44,45
 131 454 131 454 148.5 365 c 128,-1,46
 166 276 166 276 214 206 c 128,-1,47
 262 136 262 136 337.5 93.5 c 128,-1,48
 413 51 413 51 514 51 c 0,49,50
 616 51 616 51 705.5 92 c 128,-1,51
 795 133 795 133 865.5 202 c 128,-1,52
 936 271 936 271 982.5 360.5 c 128,-1,53
 1029 450 1029 450 1045 546 c 0,54,55
 1060 638 1060 638 1041.5 725 c 128,-1,56
 1023 812 1023 812 974.5 880 c 128,-1,57
 926 948 926 948 850.5 989.5 c 128,-1,58
 775 1031 775 1031 676 1031 c 0,59,60
 575 1031 575 1031 486 991 c 128,-1,61
 397 951 397 951 326.5 884.5 c 128,-1,62
 256 818 256 818 209 730 c 128,-1,63
 162 642 162 642 146 546 c 0,44,45
75 546 m 0,64,65
 86 620 86 620 113.5 690 c 128,-1,66
 141 760 141 760 182.5 822 c 128,-1,67
 224 884 224 884 277.5 936 c 128,-1,68
 331 988 331 988 394.5 1025 c 128,-1,69
 458 1062 458 1062 530 1083 c 128,-1,70
 602 1104 602 1104 679 1104 c 0,71,72
 793 1104 793 1104 881.5 1057 c 128,-1,73
 970 1010 970 1010 1027.5 932 c 128,-1,74
 1085 854 1085 854 1108.5 753.5 c 128,-1,75
 1132 653 1132 653 1116 546 c 0,76,77
 1105 472 1105 472 1077.5 401 c 128,-1,78
 1050 330 1050 330 1009 267 c 128,-1,79
 968 204 968 204 914.5 151 c 128,-1,80
 861 98 861 98 797.5 60 c 128,-1,81
 734 22 734 22 662 0.5 c 128,-1,82
 590 -21 590 -21 512 -21 c 0,83,84
 396 -21 396 -21 307.5 27.5 c 128,-1,85
 219 76 219 76 162 155.5 c 128,-1,86
 105 235 105 235 82 337 c 128,-1,87
 59 439 59 439 75 546 c 0,64,65
EndSplineSet
EndChar
StartChar: ordfeminine
Encoding: 170 170 106
Width: 1202
Flags: W
LayerCount: 2
Back
Fore
SplineSet
812 704 m 1,0,1
 806 760 806 760 812 815 c 1,2,3
 762 760 762 760 698.5 726.5 c 128,-1,4
 635 693 635 693 559 691 c 0,5,6
 511 691 511 691 468.5 705.5 c 128,-1,7
 426 720 426 720 396 748 c 128,-1,8
 366 776 366 776 352 816.5 c 128,-1,9
 338 857 338 857 346 908 c 0,10,11
 356 973 356 973 391.5 1017 c 128,-1,12
 427 1061 427 1061 477 1088 c 128,-1,13
 527 1115 527 1115 586.5 1127 c 128,-1,14
 646 1139 646 1139 703 1140 c 2,15,-1
 859 1140 l 1,16,-1
 872 1201 l 2,17,18
 878 1237 878 1237 874 1269 c 128,-1,19
 870 1301 870 1301 855 1325 c 128,-1,20
 840 1349 840 1349 813 1363.5 c 128,-1,21
 786 1378 786 1378 747 1379 c 0,22,23
 670 1381 670 1381 611 1346 c 128,-1,24
 552 1311 552 1311 527 1238 c 1,25,-1
 421 1244 l 1,26,27
 436 1301 436 1301 468 1344.5 c 128,-1,28
 500 1388 500 1388 544.5 1417 c 128,-1,29
 589 1446 589 1446 642.5 1461 c 128,-1,30
 696 1476 696 1476 753 1476 c 0,31,32
 814 1476 814 1476 860.5 1454.5 c 128,-1,33
 907 1433 907 1433 936 1396.5 c 128,-1,34
 965 1360 965 1360 976 1309.5 c 128,-1,35
 987 1259 987 1259 979 1200 c 2,36,-1
 925 886 l 2,37,38
 917 840 917 840 916 795.5 c 128,-1,39
 915 751 915 751 921 705 c 1,40,-1
 812 704 l 1,0,1
585 786 m 0,41,42
 619 787 619 787 653 796.5 c 128,-1,43
 687 806 687 806 718 822.5 c 128,-1,44
 749 839 749 839 775.5 862 c 128,-1,45
 802 885 802 885 821 913 c 1,46,-1
 847 1058 l 1,47,-1
 700 1058 l 2,48,49
 663 1057 663 1057 623 1049.5 c 128,-1,50
 583 1042 583 1042 548 1025.5 c 128,-1,51
 513 1009 513 1009 487 981.5 c 128,-1,52
 461 954 461 954 452 912 c 0,53,54
 445 879 445 879 454 855 c 128,-1,55
 463 831 463 831 482.5 815.5 c 128,-1,56
 502 800 502 800 529 793 c 128,-1,57
 556 786 556 786 585 786 c 0,41,42
EndSplineSet
EndChar
StartChar: logicalnot
Encoding: 172 172 108
Width: 1202
Flags: W
LayerCount: 2
Back
Fore
SplineSet
943 386 m 1,0,-1
 825 386 l 1,1,-1
 875 670 l 1,2,-1
 203 670 l 1,3,-1
 222 776 l 1,4,-1
 1011 776 l 1,5,-1
 943 386 l 1,0,-1
EndSplineSet
EndChar
StartChar: registered
Encoding: 174 174 109
Width: 1202
Flags: W
LayerCount: 2
Back
Fore
SplineSet
71 539 m 0,0,1
 88 651 88 651 140.5 752 c 128,-1,2
 193 853 193 853 273 930 c 128,-1,3
 353 1007 353 1007 455.5 1052.5 c 128,-1,4
 558 1098 558 1098 675 1098 c 0,5,6
 790 1098 790 1098 879 1051 c 128,-1,7
 968 1004 968 1004 1025 926 c 128,-1,8
 1082 848 1082 848 1105 747.5 c 128,-1,9
 1128 647 1128 647 1112 539 c 0,10,11
 1095 428 1095 428 1042.5 326.5 c 128,-1,12
 990 225 990 225 910.5 147.5 c 128,-1,13
 831 70 831 70 728.5 24.5 c 128,-1,14
 626 -21 626 -21 509 -21 c 0,15,16
 432 -21 432 -21 367 0.5 c 128,-1,17
 302 22 302 22 249.5 60.5 c 128,-1,18
 197 99 197 99 158.5 151.5 c 128,-1,19
 120 204 120 204 97 266 c 128,-1,20
 74 328 74 328 67 397.5 c 128,-1,21
 60 467 60 467 71 539 c 0,0,1
141 539 m 0,22,23
 126 446 126 446 144.5 358.5 c 128,-1,24
 163 271 163 271 211 202.5 c 128,-1,25
 259 134 259 134 335 92.5 c 128,-1,26
 411 51 411 51 511 51 c 0,27,28
 612 51 612 51 701.5 91 c 128,-1,29
 791 131 791 131 861.5 198.5 c 128,-1,30
 932 266 932 266 978.5 354.5 c 128,-1,31
 1025 443 1025 443 1041 539 c 0,32,33
 1056 631 1056 631 1038 718.5 c 128,-1,34
 1020 806 1020 806 972 874.5 c 128,-1,35
 924 943 924 943 848.5 984.5 c 128,-1,36
 773 1026 773 1026 673 1026 c 0,37,38
 571 1026 571 1026 481.5 986 c 128,-1,39
 392 946 392 946 321.5 879 c 128,-1,40
 251 812 251 812 204 724 c 128,-1,41
 157 636 157 636 141 539 c 0,22,23
464 491 m 1,42,-1
 423 234 l 1,43,-1
 343 234 l 1,44,-1
 441 856 l 1,45,-1
 638 856 l 2,46,47
 680 854 680 854 718 842.5 c 128,-1,48
 756 831 756 831 783.5 808.5 c 128,-1,49
 811 786 811 786 825 752 c 128,-1,50
 839 718 839 718 832 671 c 0,51,52
 827 639 827 639 812.5 614 c 128,-1,53
 798 589 798 589 777 570.5 c 128,-1,54
 756 552 756 552 729.5 538.5 c 128,-1,55
 703 525 703 525 675 516 c 1,56,-1
 776 234 l 1,57,-1
 697 234 l 1,58,-1
 607 491 l 1,59,-1
 464 491 l 1,42,-1
475 565 m 1,60,-1
 604 565 l 2,61,62
 629 566 629 566 653 573 c 128,-1,63
 677 580 677 580 697 592.5 c 128,-1,64
 717 605 717 605 731.5 624.5 c 128,-1,65
 746 644 746 644 752 670 c 0,66,67
 758 700 758 700 750.5 721 c 128,-1,68
 743 742 743 742 726 754.5 c 128,-1,69
 709 767 709 767 685 773 c 128,-1,70
 661 779 661 779 635 781 c 2,71,-1
 509 781 l 1,72,-1
 475 565 l 1,60,-1
EndSplineSet
EndChar
StartChar: macron
Encoding: 175 175 110
AltUni2: 0002c9.ffffffff.0
Width: 1202
Flags: W
LayerCount: 2
Back
Fore
SplineSet
1040 1359 m 1,0,-1
 388 1359 l 1,1,-1
 403 1456 l 1,2,-1
 1056 1456 l 1,3,-1
 1040 1359 l 1,0,-1
EndSplineSet
EndChar
StartChar: degree
Encoding: 176 176 111
Width: 1202
Flags: W
LayerCount: 2
Back
Fore
SplineSet
467 1226 m 0,0,1
 474 1275 474 1275 499.5 1320.5 c 128,-1,2
 525 1366 525 1366 562.5 1400.5 c 128,-1,3
 600 1435 600 1435 647 1455.5 c 128,-1,4
 694 1476 694 1476 745 1476 c 0,5,6
 794 1476 794 1476 834 1454.5 c 128,-1,7
 874 1433 874 1433 900 1397.5 c 128,-1,8
 926 1362 926 1362 937 1317 c 128,-1,9
 948 1272 948 1272 941 1226 c 0,10,11
 933 1177 933 1177 908.5 1132.5 c 128,-1,12
 884 1088 884 1088 847.5 1054.5 c 128,-1,13
 811 1021 811 1021 765 1000.5 c 128,-1,14
 719 980 719 980 669 980 c 256,15,16
 619 980 619 980 578.5 1000.5 c 128,-1,17
 538 1021 538 1021 510.5 1055.5 c 128,-1,18
 483 1090 483 1090 471 1134 c 128,-1,19
 459 1178 459 1178 467 1226 c 0,0,1
555 1226 m 0,20,21
 549 1196 549 1196 555 1168 c 128,-1,22
 561 1140 561 1140 577.5 1119 c 128,-1,23
 594 1098 594 1098 618.5 1085 c 128,-1,24
 643 1072 643 1072 675 1072 c 256,25,26
 707 1072 707 1072 736.5 1084.5 c 128,-1,27
 766 1097 766 1097 789.5 1118 c 128,-1,28
 813 1139 813 1139 829.5 1167 c 128,-1,29
 846 1195 846 1195 852 1226 c 0,30,31
 858 1255 858 1255 853 1283.5 c 128,-1,32
 848 1312 848 1312 833.5 1334.5 c 128,-1,33
 819 1357 819 1357 795 1370.5 c 128,-1,34
 771 1384 771 1384 739 1384 c 0,35,36
 706 1384 706 1384 675.5 1371.5 c 128,-1,37
 645 1359 645 1359 620.5 1337 c 128,-1,38
 596 1315 596 1315 578.5 1286 c 128,-1,39
 561 1257 561 1257 555 1226 c 0,20,21
EndSplineSet
EndChar
StartChar: plusminus
Encoding: 177 177 112
Width: 1202
Flags: W
LayerCount: 2
Back
Fore
SplineSet
698 829 m 1,0,-1
 1078 829 l 1,1,-1
 1061 728 l 1,2,-1
 682 728 l 1,3,-1
 613 289 l 1,4,-1
 503 289 l 1,5,-1
 572 728 l 1,6,-1
 170 728 l 1,7,-1
 186 829 l 1,8,-1
 587 829 l 1,9,-1
 656 1267 l 1,10,-1
 767 1267 l 1,11,-1
 698 829 l 1,0,-1
916 -1 m 1,12,-1
 103 -1 l 1,13,-1
 122 101 l 1,14,-1
 934 101 l 1,15,-1
 916 -1 l 1,12,-1
EndSplineSet
EndChar
StartChar: twosuperior
Encoding: 178 178 113
Width: 1202
Flags: W
LayerCount: 2
Back
Fore
SplineSet
907 667 m 1,0,-1
 350 667 l 1,1,-1
 364 747 l 1,2,-1
 688 1025 l 2,3,4
 713 1047 713 1047 740.5 1071.5 c 128,-1,5
 768 1096 768 1096 792.5 1124 c 128,-1,6
 817 1152 817 1152 834.5 1183 c 128,-1,7
 852 1214 852 1214 856 1249 c 0,8,9
 859 1280 859 1280 851 1304.5 c 128,-1,10
 843 1329 843 1329 825.5 1346 c 128,-1,11
 808 1363 808 1363 783.5 1372.5 c 128,-1,12
 759 1382 759 1382 729 1382 c 0,13,14
 689 1382 689 1382 657 1370.5 c 128,-1,15
 625 1359 625 1359 600 1337.5 c 128,-1,16
 575 1316 575 1316 558 1285.5 c 128,-1,17
 541 1255 541 1255 531 1219 c 1,18,-1
 427 1218 l 1,19,20
 436 1276 436 1276 463 1322.5 c 128,-1,21
 490 1369 490 1369 529.5 1402 c 128,-1,22
 569 1435 569 1435 620.5 1452.5 c 128,-1,23
 672 1470 672 1470 731 1469 c 0,24,25
 779 1468 779 1468 823 1453.5 c 128,-1,26
 867 1439 867 1439 899.5 1411.5 c 128,-1,27
 932 1384 932 1384 950 1343.5 c 128,-1,28
 968 1303 968 1303 965 1251 c 0,29,30
 962 1203 962 1203 940 1160.5 c 128,-1,31
 918 1118 918 1118 886 1081.5 c 128,-1,32
 854 1045 854 1045 816.5 1012.5 c 128,-1,33
 779 980 779 980 745 952 c 2,34,-1
 503 754 l 1,35,-1
 923 754 l 1,36,-1
 907 667 l 1,0,-1
EndSplineSet
EndChar
StartChar: threesuperior
Encoding: 179 179 114
Width: 1202
Flags: W
LayerCount: 2
Back
Fore
SplineSet
601 1107 m 1,0,-1
 676 1107 l 2,1,2
 709 1108 709 1108 743.5 1116 c 128,-1,3
 778 1124 778 1124 806.5 1141.5 c 128,-1,4
 835 1159 835 1159 855 1185.5 c 128,-1,5
 875 1212 875 1212 879 1250 c 0,6,7
 883 1282 883 1282 873 1306.5 c 128,-1,8
 863 1331 863 1331 843.5 1347 c 128,-1,9
 824 1363 824 1363 797.5 1371.5 c 128,-1,10
 771 1380 771 1380 742 1380 c 0,11,12
 673 1381 673 1381 624.5 1346.5 c 128,-1,13
 576 1312 576 1312 556 1248 c 1,14,-1
 451 1247 l 1,15,16
 460 1301 460 1301 486.5 1343 c 128,-1,17
 513 1385 513 1385 552 1412.5 c 128,-1,18
 591 1440 591 1440 639.5 1454 c 128,-1,19
 688 1468 688 1468 742 1467 c 0,20,21
 790 1466 790 1466 835 1452.5 c 128,-1,22
 880 1439 880 1439 914.5 1412.5 c 128,-1,23
 949 1386 949 1386 969 1346 c 128,-1,24
 989 1306 989 1306 985 1252 c 0,25,26
 982 1214 982 1214 966.5 1185 c 128,-1,27
 951 1156 951 1156 927 1133.5 c 128,-1,28
 903 1111 903 1111 873 1094.5 c 128,-1,29
 843 1078 843 1078 811 1065 c 1,30,31
 873 1045 873 1045 908 1000.5 c 128,-1,32
 943 956 943 956 940 889 c 0,33,34
 937 829 937 829 909 784.5 c 128,-1,35
 881 740 881 740 838.5 711 c 128,-1,36
 796 682 796 682 743 668 c 128,-1,37
 690 654 690 654 636 655 c 256,38,39
 582 656 582 656 535 671 c 128,-1,40
 488 686 488 686 453 715 c 128,-1,41
 418 744 418 744 398 787 c 128,-1,42
 378 830 378 830 378 886 c 1,43,-1
 482 886 l 1,44,45
 482 850 482 850 494 823.5 c 128,-1,46
 506 797 506 797 527.5 779 c 128,-1,47
 549 761 549 761 578 752 c 128,-1,48
 607 743 607 743 641 743 c 256,49,50
 675 743 675 743 708.5 752 c 128,-1,51
 742 761 742 761 769.5 779.5 c 128,-1,52
 797 798 797 798 815 826 c 128,-1,53
 833 854 833 854 837 891 c 0,54,55
 841 930 841 930 828 955 c 128,-1,56
 815 980 815 980 791 995.5 c 128,-1,57
 767 1011 767 1011 736 1017.5 c 128,-1,58
 705 1024 705 1024 673 1025 c 2,59,-1
 593 1026 l 1,60,-1
 601 1107 l 1,0,-1
EndSplineSet
EndChar
StartChar: acute
Encoding: 180 180 115
Width: 1202
Flags: W
LayerCount: 2
Back
Fore
SplineSet
751 1498 m 1,0,-1
 902 1498 l 1,1,-1
 636 1233 l 1,2,-1
 530 1233 l 1,3,-1
 751 1498 l 1,0,-1
EndSplineSet
EndChar
StartChar: mu
Encoding: 181 181 116
Width: 1202
Flags: W
LayerCount: 2
Back
Fore
SplineSet
400 1082 m 1,0,-1
 294 447 l 2,1,2
 287 390 287 390 288 327 c 128,-1,3
 289 264 289 264 307 210 c 128,-1,4
 325 156 325 156 366 120 c 128,-1,5
 407 84 407 84 480 81 c 0,6,7
 540 79 540 79 596 95.5 c 128,-1,8
 652 112 652 112 698.5 144 c 128,-1,9
 745 176 745 176 779 222.5 c 128,-1,10
 813 269 813 269 829 328 c 1,11,-1
 959 1082 l 1,12,-1
 1078 1082 l 1,13,-1
 890 0 l 1,14,-1
 781 0 l 1,15,-1
 810 162 l 1,16,17
 752 76 752 76 670.5 27 c 128,-1,18
 589 -22 589 -22 483 -20 c 0,19,20
 407 -18 407 -18 341.5 13.5 c 128,-1,21
 276 45 276 45 235 110 c 1,22,-1
 140 -416 l 1,23,-1
 22 -416 l 1,24,-1
 283 1082 l 1,25,-1
 400 1082 l 1,0,-1
EndSplineSet
EndChar
StartChar: paragraph
Encoding: 182 182 117
Width: 1202
Flags: W
LayerCount: 2
Back
Fore
SplineSet
700 0 m 1,0,-1
 790 520 l 1,1,-1
 697 521 l 2,2,3
 598 524 598 524 518.5 559 c 128,-1,4
 439 594 439 594 386 655 c 128,-1,5
 333 716 333 716 308 799 c 128,-1,6
 283 882 283 882 293 981 c 0,7,8
 303 1090 303 1090 350.5 1178 c 128,-1,9
 398 1266 398 1266 472 1328 c 128,-1,10
 546 1390 546 1390 641 1423.5 c 128,-1,11
 736 1457 736 1457 843 1457 c 2,12,-1
 1072 1456 l 1,13,-1
 819 0 l 1,14,-1
 700 0 l 1,0,-1
EndSplineSet
EndChar
StartChar: periodcentered
Encoding: 183 183 118
Width: 1202
Flags: W
LayerCount: 2
Back
Fore
SplineSet
537 717 m 0,0,1
 540 751 540 751 565.5 775.5 c 128,-1,2
 591 800 591 800 626 801 c 0,3,4
 643 801 643 801 658 794.5 c 128,-1,5
 673 788 673 788 684 777 c 128,-1,6
 695 766 695 766 700.5 750.5 c 128,-1,7
 706 735 706 735 705 717 c 0,8,9
 704 700 704 700 696.5 685 c 128,-1,10
 689 670 689 670 677 659 c 128,-1,11
 665 648 665 648 649 641 c 128,-1,12
 633 634 633 634 616 634 c 0,13,14
 581 633 581 633 558 657.5 c 128,-1,15
 535 682 535 682 537 717 c 0,0,1
EndSplineSet
EndChar
StartChar: cedilla
Encoding: 184 184 119
Width: 1202
Flags: W
LayerCount: 2
Back
Fore
SplineSet
498 0 m 1,0,-1
 476 -66 l 1,1,2
 539 -80 539 -80 576.5 -119.5 c 128,-1,3
 614 -159 614 -159 611 -228 c 0,4,5
 608 -290 608 -290 576.5 -329.5 c 128,-1,6
 545 -369 545 -369 498 -392 c 128,-1,7
 451 -415 451 -415 396 -425 c 128,-1,8
 341 -435 341 -435 291 -437 c 1,9,-1
 293 -358 l 1,10,11
 324 -357 324 -357 360.5 -351.5 c 128,-1,12
 397 -346 397 -346 429 -331.5 c 128,-1,13
 461 -317 461 -317 484 -293 c 128,-1,14
 507 -269 507 -269 512 -230 c 0,15,16
 516 -198 516 -198 502.5 -179 c 128,-1,17
 489 -160 489 -160 466.5 -149.5 c 128,-1,18
 444 -139 444 -139 416.5 -134.5 c 128,-1,19
 389 -130 389 -130 365 -127 c 1,20,-1
 408 0 l 1,21,-1
 498 0 l 1,0,-1
EndSplineSet
EndChar
StartChar: onesuperior
Encoding: 185 185 120
Width: 1202
Flags: W
LayerCount: 2
Back
Fore
SplineSet
733 665 m 1,0,-1
 629 665 l 1,1,-1
 744 1325 l 1,2,-1
 506 1256 l 1,3,-1
 523 1350 l 1,4,-1
 851 1455 l 1,5,-1
 867 1455 l 1,6,-1
 733 665 l 1,0,-1
EndSplineSet
EndChar
StartChar: ordmasculine
Encoding: 186 186 121
Width: 1202
Flags: W
LayerCount: 2
Back
Fore
SplineSet
375 1141 m 2,0,1
 388 1210 388 1210 419.5 1270.5 c 128,-1,2
 451 1331 451 1331 499 1376.5 c 128,-1,3
 547 1422 547 1422 608.5 1449 c 128,-1,4
 670 1476 670 1476 743 1476 c 0,5,6
 815 1476 815 1476 868 1448.5 c 128,-1,7
 921 1421 921 1421 954.5 1375 c 128,-1,8
 988 1329 988 1329 1001 1268.5 c 128,-1,9
 1014 1208 1014 1208 1004 1141 c 2,10,-1
 984 1024 l 2,11,12
 972 956 972 956 940 895.5 c 128,-1,13
 908 835 908 835 861 789.5 c 128,-1,14
 814 744 814 744 752 717 c 128,-1,15
 690 690 690 690 618 690 c 256,16,17
 546 690 546 690 492.5 717 c 128,-1,18
 439 744 439 744 405 790 c 128,-1,19
 371 836 371 836 358 896.5 c 128,-1,20
 345 957 345 957 355 1024 c 2,21,-1
 375 1141 l 2,0,1
461 1024 m 2,22,23
 454 979 454 979 459.5 936 c 128,-1,24
 465 893 465 893 484.5 859.5 c 128,-1,25
 504 826 504 826 538.5 805.5 c 128,-1,26
 573 785 573 785 625 785 c 0,27,28
 676 785 676 785 718.5 805 c 128,-1,29
 761 825 761 825 793 858 c 128,-1,30
 825 891 825 891 846.5 934 c 128,-1,31
 868 977 868 977 878 1024 c 2,32,-1
 899 1141 l 2,33,34
 906 1185 906 1185 900.5 1228 c 128,-1,35
 895 1271 895 1271 875.5 1304.5 c 128,-1,36
 856 1338 856 1338 821.5 1359 c 128,-1,37
 787 1380 787 1380 736 1380 c 256,38,39
 685 1380 685 1380 642.5 1360 c 128,-1,40
 600 1340 600 1340 567.5 1307 c 128,-1,41
 535 1274 535 1274 513.5 1230.5 c 128,-1,42
 492 1187 492 1187 482 1141 c 2,43,-1
 461 1024 l 2,22,23
EndSplineSet
EndChar
StartChar: questiondown
Encoding: 191 191 126
Width: 1202
Flags: W
LayerCount: 2
Back
Fore
SplineSet
685 685 m 1,0,1
 677 631 677 631 664 587.5 c 128,-1,2
 651 544 651 544 630 506.5 c 128,-1,3
 609 469 609 469 579 435 c 128,-1,4
 549 401 549 401 507 365 c 0,5,6
 463 326 463 326 418.5 284 c 128,-1,7
 374 242 374 242 337 195 c 128,-1,8
 300 148 300 148 274 94 c 128,-1,9
 248 40 248 40 241 -21 c 0,10,11
 235 -75 235 -75 245 -122 c 128,-1,12
 255 -169 255 -169 281 -204 c 128,-1,13
 307 -239 307 -239 348.5 -260 c 128,-1,14
 390 -281 390 -281 447 -282 c 0,15,16
 507 -284 507 -284 555.5 -264.5 c 128,-1,17
 604 -245 604 -245 641.5 -210.5 c 128,-1,18
 679 -176 679 -176 704 -129 c 128,-1,19
 729 -82 729 -82 742 -27 c 1,20,-1
 857 -26 l 1,21,22
 844 -107 844 -107 808.5 -174 c 128,-1,23
 773 -241 773 -241 719 -289 c 128,-1,24
 665 -337 665 -337 594 -363 c 128,-1,25
 523 -389 523 -389 439 -387 c 0,26,27
 360 -385 360 -385 297.5 -357.5 c 128,-1,28
 235 -330 235 -330 193 -281.5 c 128,-1,29
 151 -233 151 -233 131.5 -167 c 128,-1,30
 112 -101 112 -101 120 -23 c 0,31,32
 127 53 127 53 157.5 118.5 c 128,-1,33
 188 184 188 184 232 241 c 128,-1,34
 276 298 276 298 330.5 348 c 128,-1,35
 385 398 385 398 441 444 c 0,36,37
 471 469 471 469 493 495 c 128,-1,38
 515 521 515 521 530 550.5 c 128,-1,39
 545 580 545 580 555 613 c 128,-1,40
 565 646 565 646 572 684 c 1,41,-1
 685 685 l 1,0,1
599 1018 m 0,42,43
 602 1052 602 1052 628 1076.5 c 128,-1,44
 654 1101 654 1101 689 1102 c 0,45,46
 706 1102 706 1102 721 1095.5 c 128,-1,47
 736 1089 736 1089 746.5 1078 c 128,-1,48
 757 1067 757 1067 762.5 1051.5 c 128,-1,49
 768 1036 768 1036 767 1018 c 0,50,51
 766 1001 766 1001 758.5 986 c 128,-1,52
 751 971 751 971 739 960 c 128,-1,53
 727 949 727 949 711.5 942 c 128,-1,54
 696 935 696 935 679 935 c 0,55,56
 644 934 644 934 620.5 958.5 c 128,-1,57
 597 983 597 983 599 1018 c 0,42,43
EndSplineSet
EndChar
StartChar: AE
Encoding: 198 198 127
Width: 1202
Flags: W
LayerCount: 2
Back
Fore
SplineSet
1033 0 m 1,0,-1
 543 0 l 1,1,-1
 605 389 l 1,2,-1
 278 389 l 1,3,-1
 74 0 l 1,4,-1
 -55 0 l 1,5,-1
 734 1456 l 1,6,-1
 1257 1456 l 1,7,-1
 1239 1354 l 1,8,-1
 869 1354 l 1,9,-1
 782 809 l 1,10,-1
 1104 809 l 1,11,-1
 1086 707 l 1,12,-1
 766 707 l 1,13,-1
 669 101 l 1,14,-1
 1051 101 l 1,15,-1
 1033 0 l 1,0,-1
337 502 m 1,16,-1
 623 502 l 1,17,-1
 749 1285 l 1,18,-1
 337 502 l 1,16,-1
EndSplineSet
EndChar
StartChar: Eth
Encoding: 208 208 486
Width: 1232
Flags: W
LayerCount: 2
Back
Fore
SplineSet
96 0 m 1,0,-1
 215 689 l 1,1,-1
 -28 689 l 1,2,-1
 -10 791 l 1,3,-1
 233 791 l 1,4,-1
 349 1456 l 1,5,-1
 684 1455 l 2,6,7
 817 1451 817 1451 913.5 1393.5 c 128,-1,8
 1010 1336 1010 1336 1068.5 1244 c 128,-1,9
 1127 1152 1127 1152 1148.5 1036 c 128,-1,10
 1170 920 1170 920 1154 799 c 2,11,-1
 1132 656 l 2,12,13
 1111 525 1111 525 1054 406 c 128,-1,14
 997 287 997 287 909 197 c 128,-1,15
 821 107 821 107 704.5 53.5 c 128,-1,16
 588 0 588 0 447 0 c 2,17,-1
 96 0 l 1,0,-1
568 689 m 1,18,-1
 335 689 l 1,19,-1
 233 101 l 1,20,-1
 450 100 l 2,21,22
 568 101 568 101 663.5 147.5 c 128,-1,23
 759 194 759 194 830.5 271 c 128,-1,24
 902 348 902 348 948 448 c 128,-1,25
 994 548 994 548 1012 656 c 2,26,-1
 1035 803 l 2,27,28
 1044 866 1044 866 1041.5 931 c 128,-1,29
 1039 996 1039 996 1024.5 1056 c 128,-1,30
 1010 1116 1010 1116 982 1169 c 128,-1,31
 954 1222 954 1222 911.5 1261.5 c 128,-1,32
 869 1301 869 1301 812 1325.5 c 128,-1,33
 755 1350 755 1350 681 1353 c 2,34,-1
 451 1354 l 1,35,-1
 353 791 l 1,36,-1
 587 791 l 1,37,-1
 568 689 l 1,18,-1
EndSplineSet
Substitution2: "'smcp' Lowercase to Small Capitals lookup 0 subtable" Eth.smcp
EndChar
StartChar: multiply
Encoding: 215 215 128
Width: 1202
Flags: W
LayerCount: 2
Back
Fore
SplineSet
117 185 m 1,0,-1
 528 549 l 1,1,-1
 255 900 l 1,2,-1
 341 975 l 1,3,-1
 612 625 l 1,4,-1
 1006 974 l 1,5,-1
 1074 888 l 1,6,-1
 680 539 l 1,7,-1
 966 173 l 1,8,-1
 880 99 l 1,9,-1
 595 463 l 1,10,-1
 185 100 l 1,11,-1
 117 185 l 1,0,-1
EndSplineSet
EndChar
StartChar: Oslash
Encoding: 216 216 129
Width: 1202
Flags: W
LayerCount: 2
Back
Fore
SplineSet
1068 632 m 2,0,1
 1056 558 1056 558 1032.5 480 c 128,-1,2
 1009 402 1009 402 974 329 c 128,-1,3
 939 256 939 256 892.5 191.5 c 128,-1,4
 846 127 846 127 786 79 c 128,-1,5
 726 31 726 31 652.5 4 c 128,-1,6
 579 -23 579 -23 492 -20 c 0,7,8
 404 -18 404 -18 340 14 c 128,-1,9
 276 46 276 46 230 100 c 1,10,-1
 93 -84 l 1,11,-1
 -17 -84 l 1,12,-1
 178 178 l 1,13,14
 152 227 152 227 136 283.5 c 128,-1,15
 120 340 120 340 113 399 c 128,-1,16
 106 458 106 458 107 517 c 128,-1,17
 108 576 108 576 116 631 c 2,18,-1
 147 823 l 2,19,20
 159 897 159 897 182.5 974.5 c 128,-1,21
 206 1052 206 1052 241 1125.5 c 128,-1,22
 276 1199 276 1199 323 1263.5 c 128,-1,23
 370 1328 370 1328 430 1376 c 128,-1,24
 490 1424 490 1424 563.5 1451 c 128,-1,25
 637 1478 637 1478 724 1476 c 0,26,27
 829 1473 829 1473 901.5 1427 c 128,-1,28
 974 1381 974 1381 1020 1308 c 1,29,-1
 1167 1505 l 1,30,-1
 1277 1505 l 1,31,-1
 1064 1218 l 1,32,33
 1081 1172 1081 1172 1091 1122.5 c 128,-1,34
 1101 1073 1101 1073 1105 1022 c 128,-1,35
 1109 971 1109 971 1107 920.5 c 128,-1,36
 1105 870 1105 870 1099 823 c 2,37,-1
 1068 632 l 2,0,1
233 630 m 2,38,39
 227 591 227 591 224.5 547.5 c 128,-1,40
 222 504 222 504 224.5 458.5 c 128,-1,41
 227 413 227 413 234 368 c 128,-1,42
 241 323 241 323 255 282 c 1,43,-1
 947 1210 l 1,44,45
 917 1277 917 1277 861 1321.5 c 128,-1,46
 805 1366 805 1366 716 1369 c 0,47,48
 646 1371 646 1371 588 1347.5 c 128,-1,49
 530 1324 530 1324 483 1283 c 128,-1,50
 436 1242 436 1242 400 1187 c 128,-1,51
 364 1132 364 1132 337.5 1070.5 c 128,-1,52
 311 1009 311 1009 293 946 c 128,-1,53
 275 883 275 883 265 825 c 2,54,-1
 233 630 l 2,38,39
982 827 m 2,55,56
 990 889 990 889 991.5 961.5 c 128,-1,57
 993 1034 993 1034 979 1104 c 1,58,-1
 299 193 l 1,59,60
 331 146 331 146 380 117.5 c 128,-1,61
 429 89 429 89 500 87 c 0,62,63
 571 84 571 84 629 107.5 c 128,-1,64
 687 131 687 131 734 172 c 128,-1,65
 781 213 781 213 816.5 268 c 128,-1,66
 852 323 852 323 878.5 384 c 128,-1,67
 905 445 905 445 922.5 509 c 128,-1,68
 940 573 940 573 950 631 c 2,69,-1
 982 827 l 2,55,56
EndSplineSet
EndChar
StartChar: Thorn
Encoding: 222 222 130
Width: 1202
Flags: W
LayerCount: 2
Back
Fore
SplineSet
451 1456 m 1,0,-1
 398 1152 l 1,1,-1
 703 1151 l 2,2,3
 792 1148 792 1148 867.5 1119.5 c 128,-1,4
 943 1091 943 1091 996 1038.5 c 128,-1,5
 1049 986 1049 986 1076 912 c 128,-1,6
 1103 838 1103 838 1095 745 c 0,7,8
 1086 643 1086 643 1039.5 564 c 128,-1,9
 993 485 993 485 922 431.5 c 128,-1,10
 851 378 851 378 761.5 350.5 c 128,-1,11
 672 323 672 323 575 323 c 2,12,-1
 255 324 l 1,13,-1
 198 0 l 1,14,-1
 80 0 l 1,15,-1
 333 1456 l 1,16,-1
 451 1456 l 1,0,-1
381 1051 m 1,17,-1
 272 425 l 1,18,-1
 578 423 l 2,19,20
 651 423 651 423 719 444.5 c 128,-1,21
 787 466 787 466 841.5 507 c 128,-1,22
 896 548 896 548 932 607.5 c 128,-1,23
 968 667 968 667 976 744 c 0,24,25
 983 811 983 811 966 866 c 128,-1,26
 949 921 949 921 912 961 c 128,-1,27
 875 1001 875 1001 821 1024 c 128,-1,28
 767 1047 767 1047 701 1050 c 2,29,-1
 381 1051 l 1,17,-1
EndSplineSet
EndChar
StartChar: germandbls
Encoding: 223 223 131
Width: 1202
Flags: W
LayerCount: 2
Back
Fore
SplineSet
200 0 m 1,0,-1
 82 0 l 1,1,-1
 273 1116 l 2,2,3
 285 1199 285 1199 316 1277.5 c 128,-1,4
 347 1356 347 1356 398.5 1417 c 128,-1,5
 450 1478 450 1478 522 1514 c 128,-1,6
 594 1550 594 1550 687 1547 c 0,7,8
 751 1545 751 1545 805.5 1523 c 128,-1,9
 860 1501 860 1501 898.5 1462 c 128,-1,10
 937 1423 937 1423 956.5 1368.5 c 128,-1,11
 976 1314 976 1314 970 1248 c 0,12,13
 966 1207 966 1207 953.5 1170 c 128,-1,14
 941 1133 941 1133 923 1098.5 c 128,-1,15
 905 1064 905 1064 885 1030.5 c 128,-1,16
 865 997 865 997 846.5 962.5 c 128,-1,17
 828 928 828 928 813.5 892 c 128,-1,18
 799 856 799 856 794 817 c 0,19,20
 787 769 787 769 801 727 c 128,-1,21
 815 685 815 685 839 646 c 128,-1,22
 863 607 863 607 892.5 569.5 c 128,-1,23
 922 532 922 532 947 491.5 c 128,-1,24
 972 451 972 451 988 406.5 c 128,-1,25
 1004 362 1004 362 1000 310 c 0,26,27
 994 235 994 235 962.5 173 c 128,-1,28
 931 111 931 111 880.5 67.5 c 128,-1,29
 830 24 830 24 764 0 c 128,-1,30
 698 -24 698 -24 624 -23 c 0,31,32
 549 -22 549 -22 471.5 -3 c 128,-1,33
 394 16 394 16 334 61 c 1,34,-1
 378 160 l 1,35,36
 429 123 429 123 490.5 101 c 128,-1,37
 552 79 552 79 616 78 c 0,38,39
 667 78 667 78 713 94.5 c 128,-1,40
 759 111 759 111 795 142 c 128,-1,41
 831 173 831 173 854 215.5 c 128,-1,42
 877 258 877 258 883 310 c 0,43,44
 889 360 889 360 874.5 402.5 c 128,-1,45
 860 445 860 445 835.5 484 c 128,-1,46
 811 523 811 523 780.5 560.5 c 128,-1,47
 750 598 750 598 725 637.5 c 128,-1,48
 700 677 700 677 685 721 c 128,-1,49
 670 765 670 765 675 818 c 0,50,51
 681 877 681 877 707 928.5 c 128,-1,52
 733 980 733 980 763 1030 c 128,-1,53
 793 1080 793 1080 819 1131.5 c 128,-1,54
 845 1183 845 1183 851 1242 c 0,55,56
 855 1281 855 1281 845.5 1317 c 128,-1,57
 836 1353 836 1353 814.5 1381 c 128,-1,58
 793 1409 793 1409 761 1426.5 c 128,-1,59
 729 1444 729 1444 688 1446 c 0,60,61
 618 1449 618 1449 566 1420 c 128,-1,62
 514 1391 514 1391 478 1343.5 c 128,-1,63
 442 1296 442 1296 421 1236 c 128,-1,64
 400 1176 400 1176 391 1117 c 2,65,-1
 200 0 l 1,0,-1
EndSplineSet
Substitution2: "'smcp' Lowercase to Small Capitals lookup 0 subtable" Germandbls.smcp
EndChar
StartChar: ae
Encoding: 230 230 132
Width: 1202
Flags: W
LayerCount: 2
Back
Fore
SplineSet
772 -19 m 0,0,1
 728 -18 728 -18 688 -7 c 128,-1,2
 648 4 648 4 614 25.5 c 128,-1,3
 580 47 580 47 554.5 78.5 c 128,-1,4
 529 110 529 110 514 152 c 1,5,6
 488 115 488 115 457 83 c 128,-1,7
 426 51 426 51 389.5 28 c 128,-1,8
 353 5 353 5 311 -8 c 128,-1,9
 269 -21 269 -21 222 -20 c 0,10,11
 159 -19 159 -19 114 6 c 128,-1,12
 69 31 69 31 40.5 72 c 128,-1,13
 12 113 12 113 -0.5 166 c 128,-1,14
 -13 219 -13 219 -9 276 c 0,15,16
 -3 359 -3 359 29.5 425.5 c 128,-1,17
 62 492 62 492 115.5 538 c 128,-1,18
 169 584 169 584 239.5 609 c 128,-1,19
 310 634 310 634 392 634 c 2,20,-1
 525 632 l 1,21,-1
 550 803 l 2,22,23
 554 841 554 841 550 876 c 128,-1,24
 546 911 546 911 531.5 938.5 c 128,-1,25
 517 966 517 966 489.5 983 c 128,-1,26
 462 1000 462 1000 418 1001 c 256,27,28
 374 1002 374 1002 339.5 988 c 128,-1,29
 305 974 305 974 279 948.5 c 128,-1,30
 253 923 253 923 236.5 888 c 128,-1,31
 220 853 220 853 213 813 c 1,32,-1
 100 817 l 1,33,34
 108 883 108 883 135 936 c 128,-1,35
 162 989 162 989 204.5 1026.5 c 128,-1,36
 247 1064 247 1064 304 1084 c 128,-1,37
 361 1104 361 1104 428 1103 c 0,38,39
 466 1102 466 1102 502 1093.5 c 128,-1,40
 538 1085 538 1085 568 1068 c 128,-1,41
 598 1051 598 1051 621 1023.5 c 128,-1,42
 644 996 644 996 656 958 c 1,43,44
 705 1022 705 1022 769.5 1062.5 c 128,-1,45
 834 1103 834 1103 918 1102 c 0,46,47
 996 1100 996 1100 1047.5 1066.5 c 128,-1,48
 1099 1033 1099 1033 1128.5 979.5 c 128,-1,49
 1158 926 1158 926 1167 859.5 c 128,-1,50
 1176 793 1176 793 1168 726 c 2,51,-1
 1139 538 l 1,52,-1
 625 538 l 1,53,-1
 604 404 l 2,54,55
 597 349 597 349 601 292.5 c 128,-1,56
 605 236 605 236 626 189.5 c 128,-1,57
 647 143 647 143 687.5 113 c 128,-1,58
 728 83 728 83 796 82 c 0,59,60
 829 82 829 82 859 89.5 c 128,-1,61
 889 97 889 97 916.5 110.5 c 128,-1,62
 944 124 944 124 970 142 c 128,-1,63
 996 160 996 160 1021 180 c 1,64,-1
 1048 92 l 1,65,66
 994 35 994 35 922.5 7 c 128,-1,67
 851 -21 851 -21 772 -19 c 0,0,1
245 79 m 0,68,69
 277 79 277 79 306.5 89 c 128,-1,70
 336 99 336 99 362.5 116 c 128,-1,71
 389 133 389 133 411.5 155 c 128,-1,72
 434 177 434 177 453 201 c 1,73,-1
 510 536 l 1,74,-1
 391 538 l 2,75,76
 334 537 334 537 285 516.5 c 128,-1,77
 236 496 236 496 198.5 460.5 c 128,-1,78
 161 425 161 425 138 377 c 128,-1,79
 115 329 115 329 109 272 c 0,80,81
 106 236 106 236 111.5 201.5 c 128,-1,82
 117 167 117 167 133.5 140 c 128,-1,83
 150 113 150 113 177.5 96 c 128,-1,84
 205 79 205 79 245 79 c 0,68,69
636 636 m 1,85,-1
 1044 636 l 1,86,-1
 1058 746 l 2,87,88
 1062 787 1062 787 1057.5 831.5 c 128,-1,89
 1053 876 1053 876 1036 913.5 c 128,-1,90
 1019 951 1019 951 987.5 975.5 c 128,-1,91
 956 1000 956 1000 906 1001 c 0,92,93
 841 1003 841 1003 795 971 c 128,-1,94
 749 939 749 939 718 889.5 c 128,-1,95
 687 840 687 840 669 781 c 128,-1,96
 651 722 651 722 642 670 c 2,97,-1
 636 636 l 1,85,-1
EndSplineSet
EndChar
StartChar: eth
Encoding: 240 240 133
Width: 1202
Flags: W
LayerCount: 2
Back
Fore
SplineSet
893 1291 m 1,0,1
 939 1214 939 1214 968 1133 c 128,-1,2
 997 1052 997 1052 1010.5 968 c 128,-1,3
 1024 884 1024 884 1024 797.5 c 128,-1,4
 1024 711 1024 711 1012 623 c 2,5,-1
 1002 552 l 2,6,7
 986 444 986 444 941 340 c 128,-1,8
 896 236 896 236 824.5 155 c 128,-1,9
 753 74 753 74 656 25.5 c 128,-1,10
 559 -23 559 -23 439 -20 c 0,11,12
 342 -18 342 -18 267 23 c 128,-1,13
 192 64 192 64 143 130 c 128,-1,14
 94 196 94 196 72.5 281.5 c 128,-1,15
 51 367 51 367 60 458 c 0,16,17
 71 565 71 565 115.5 658.5 c 128,-1,18
 160 752 160 752 231 821 c 128,-1,19
 302 890 302 890 396 929 c 128,-1,20
 490 968 490 968 601 965 c 0,21,22
 690 963 690 963 771 926 c 128,-1,23
 852 889 852 889 906 817 c 1,24,25
 908 929 908 929 878.5 1035 c 128,-1,26
 849 1141 849 1141 785 1234 c 1,27,-1
 516 1095 l 1,28,-1
 476 1175 l 1,29,-1
 720 1299 l 1,30,31
 668 1350 668 1350 606 1385.5 c 128,-1,32
 544 1421 544 1421 477 1447 c 1,33,-1
 526 1549 l 1,34,35
 612 1517 612 1517 689 1470.5 c 128,-1,36
 766 1424 766 1424 832 1359 c 1,37,-1
 1076 1484 l 1,38,-1
 1117 1405 l 1,39,-1
 893 1291 l 1,0,1
896 688 m 1,40,41
 878 733 878 733 845.5 766 c 128,-1,42
 813 799 813 799 772.5 820 c 128,-1,43
 732 841 732 841 686 851 c 128,-1,44
 640 861 640 861 594 862 c 0,45,46
 508 864 508 864 436 831.5 c 128,-1,47
 364 799 364 799 310 743 c 128,-1,48
 256 687 256 687 222.5 613 c 128,-1,49
 189 539 189 539 180 458 c 0,50,51
 172 390 172 390 185.5 324 c 128,-1,52
 199 258 199 258 232.5 205 c 128,-1,53
 266 152 266 152 320.5 118.5 c 128,-1,54
 375 85 375 85 450 83 c 0,55,56
 546 80 546 80 621 121.5 c 128,-1,57
 696 163 696 163 749.5 231 c 128,-1,58
 803 299 803 299 835.5 383.5 c 128,-1,59
 868 468 868 468 880 552 c 2,60,-1
 890 626 l 1,61,-1
 896 688 l 1,40,41
EndSplineSet
Substitution2: "'smcp' Lowercase to Small Capitals lookup 0 subtable" Eth.smcp
EndChar
StartChar: divide
Encoding: 247 247 134
Width: 1202
Flags: W
LayerCount: 2
Back
Fore
SplineSet
1089 644 m 1,0,-1
 118 644 l 1,1,-1
 138 760 l 1,2,-1
 1109 760 l 1,3,-1
 1089 644 l 1,0,-1
606 1087 m 0,4,5
 609 1120 609 1120 633.5 1144 c 128,-1,6
 658 1168 658 1168 692 1169 c 0,7,8
 709 1169 709 1169 723.5 1163 c 128,-1,9
 738 1157 738 1157 748.5 1145.5 c 128,-1,10
 759 1134 759 1134 764.5 1119 c 128,-1,11
 770 1104 770 1104 769 1087 c 0,12,13
 766 1054 766 1054 740.5 1031 c 128,-1,14
 715 1008 715 1008 683 1007 c 0,15,16
 649 1006 649 1006 626.5 1029.5 c 128,-1,17
 604 1053 604 1053 606 1087 c 0,4,5
468 292 m 0,18,19
 469 308 469 308 476.5 322.5 c 128,-1,20
 484 337 484 337 495.5 348 c 128,-1,21
 507 359 507 359 521.5 366 c 128,-1,22
 536 373 536 373 553 373 c 0,23,24
 587 374 587 374 609.5 350 c 128,-1,25
 632 326 632 326 630 292 c 0,26,27
 629 275 629 275 621.5 260.5 c 128,-1,28
 614 246 614 246 602.5 235 c 128,-1,29
 591 224 591 224 575.5 217.5 c 128,-1,30
 560 211 560 211 544 211 c 0,31,32
 510 210 510 210 487.5 234 c 128,-1,33
 465 258 465 258 468 292 c 0,18,19
EndSplineSet
EndChar
StartChar: oslash
Encoding: 248 248 135
Width: 1202
Flags: W
LayerCount: 2
Back
Fore
SplineSet
119 550 m 2,0,1
 128 621 128 621 151 690 c 128,-1,2
 174 759 174 759 209 821 c 128,-1,3
 244 883 244 883 291.5 935.5 c 128,-1,4
 339 988 339 988 397 1025.5 c 128,-1,5
 455 1063 455 1063 523 1083.5 c 128,-1,6
 591 1104 591 1104 669 1102 c 0,7,8
 723 1100 723 1100 769 1088 c 128,-1,9
 815 1076 815 1076 854 1054 c 1,10,-1
 957 1213 l 1,11,-1
 1050 1213 l 1,12,-1
 917 1008 l 1,13,14
 960 969 960 969 989.5 918 c 128,-1,15
 1019 867 1019 867 1036 808.5 c 128,-1,16
 1053 750 1053 750 1058 687 c 128,-1,17
 1063 624 1063 624 1056 560 c 2,18,-1
 1052 526 l 2,19,20
 1038 419 1038 419 993.5 319.5 c 128,-1,21
 949 220 949 220 878.5 143.5 c 128,-1,22
 808 67 808 67 712.5 22 c 128,-1,23
 617 -23 617 -23 502 -20 c 0,24,25
 439 -18 439 -18 388 -2.5 c 128,-1,26
 337 13 337 13 295 41 c 1,27,-1
 179 -139 l 1,28,-1
 77 -139 l 1,29,-1
 230 96 l 1,30,31
 194 135 194 135 169.5 183.5 c 128,-1,32
 145 232 145 232 130.5 286.5 c 128,-1,33
 116 341 116 341 112.5 399.5 c 128,-1,34
 109 458 109 458 115 517 c 2,35,-1
 119 550 l 2,0,1
938 559 m 2,36,37
 943 605 943 605 941.5 653 c 128,-1,38
 940 701 940 701 930 747.5 c 128,-1,39
 920 794 920 794 901.5 836 c 128,-1,40
 883 878 883 878 855 911 c 1,41,-1
 353 132 l 1,42,43
 383 109 383 109 421.5 95.5 c 128,-1,44
 460 82 460 82 508 80 c 0,45,46
 600 77 600 77 674 116 c 128,-1,47
 748 155 748 155 802 219 c 128,-1,48
 856 283 856 283 889 364 c 128,-1,49
 922 445 922 445 934 527 c 2,50,-1
 938 559 l 2,36,37
234 516 m 2,51,52
 229 475 229 475 230 432 c 128,-1,53
 231 389 231 389 238 347.5 c 128,-1,54
 245 306 245 306 259 267 c 128,-1,55
 273 228 273 228 295 195 c 1,56,-1
 795 963 l 1,57,58
 768 980 768 980 735 989.5 c 128,-1,59
 702 999 702 999 663 1001 c 0,60,61
 570 1004 570 1004 496.5 964 c 128,-1,62
 423 924 423 924 369 859.5 c 128,-1,63
 315 795 315 795 282 713 c 128,-1,64
 249 631 249 631 238 550 c 2,65,-1
 234 516 l 2,51,52
EndSplineSet
EndChar
StartChar: thorn
Encoding: 254 254 136
Width: 1202
Flags: W
LayerCount: 2
Back
Fore
SplineSet
1026 535 m 2,0,1
 1017 470 1017 470 998.5 403.5 c 128,-1,2
 980 337 980 337 951.5 274.5 c 128,-1,3
 923 212 923 212 883.5 157.5 c 128,-1,4
 844 103 844 103 793 62.5 c 128,-1,5
 742 22 742 22 679 -0.5 c 128,-1,6
 616 -23 616 -23 540 -21 c 0,7,8
 447 -19 447 -19 365.5 20.5 c 128,-1,9
 284 60 284 60 232 138 c 1,10,-1
 132 -416 l 1,11,-1
 13 -416 l 1,12,-1
 353 1546 l 1,13,-1
 473 1546 l 1,14,-1
 359 933 l 1,15,16
 426 1014 426 1014 514 1059.5 c 128,-1,17
 602 1105 602 1105 709 1102 c 0,18,19
 781 1100 781 1100 835 1075 c 128,-1,20
 889 1050 889 1050 926.5 1009 c 128,-1,21
 964 968 964 968 987.5 914.5 c 128,-1,22
 1011 861 1011 861 1022 801 c 128,-1,23
 1033 741 1033 741 1034 678.5 c 128,-1,24
 1035 616 1035 616 1028 557 c 2,25,-1
 1026 535 l 2,0,1
909 557 m 2,26,27
 914 601 914 601 915 650.5 c 128,-1,28
 916 700 916 700 909 748.5 c 128,-1,29
 902 797 902 797 886.5 841.5 c 128,-1,30
 871 886 871 886 843 920 c 128,-1,31
 815 954 815 954 774 975 c 128,-1,32
 733 996 733 996 676 998 c 0,33,34
 621 1000 621 1000 572.5 985 c 128,-1,35
 524 970 524 970 482 943 c 128,-1,36
 440 916 440 916 404.5 878.5 c 128,-1,37
 369 841 369 841 341 797 c 1,38,-1
 251 264 l 1,39,40
 285 179 285 179 356.5 130.5 c 128,-1,41
 428 82 428 82 520 80 c 256,42,43
 612 78 612 78 679.5 119.5 c 128,-1,44
 747 161 747 161 793.5 228 c 128,-1,45
 840 295 840 295 867.5 376.5 c 128,-1,46
 895 458 895 458 906 536 c 2,47,-1
 909 557 l 2,26,27
EndSplineSet
EndChar
StartChar: Aogonek
Encoding: 260 260 549
Width: 1202
Flags: W
LayerCount: 2
Back
Fore
SplineSet
988 0 m 1,0,-1
 992 -2 l 1,1,2
 960 -21 960 -21 924 -45 c 128,-1,3
 888 -69 888 -69 857 -98.5 c 128,-1,4
 826 -128 826 -128 804.5 -163 c 128,-1,5
 783 -198 783 -198 780 -240 c 0,6,7
 778 -275 778 -275 795.5 -295.5 c 128,-1,8
 813 -316 813 -316 848 -318 c 0,9,10
 877 -319 877 -319 904 -309 c 128,-1,11
 931 -299 931 -299 956 -286 c 1,12,-1
 972 -371 l 1,13,14
 938 -391 938 -391 901 -402 c 128,-1,15
 864 -413 864 -413 824 -413 c 0,16,17
 788 -413 788 -413 759 -401 c 128,-1,18
 730 -389 730 -389 710 -367.5 c 128,-1,19
 690 -346 690 -346 679.5 -316.5 c 128,-1,20
 669 -287 669 -287 671 -252 c 0,21,22
 673 -205 673 -205 694 -164.5 c 128,-1,23
 715 -124 715 -124 747 -89.5 c 128,-1,24
 779 -55 779 -55 818.5 -27 c 128,-1,25
 858 1 858 1 896 24 c 1,26,-1
 845 406 l 1,27,-1
 311 406 l 1,28,-1
 115 0 l 1,29,-1
 -10 0 l 1,30,-1
 703 1456 l 1,31,-1
 810 1456 l 1,32,-1
 1014 0 l 1,33,-1
 988 0 l 1,0,-1
362 513 m 1,34,-1
 831 513 l 1,35,-1
 730 1274 l 1,36,-1
 362 513 l 1,34,-1
EndSplineSet
Substitution2: "'smcp' Lowercase to Small Capitals lookup 0 subtable" Aogonek.smcp
EndChar
StartChar: aogonek
Encoding: 261 261 550
Width: 1202
Flags: W
LayerCount: 2
Back
Fore
SplineSet
896 0 m 1,0,-1
 900 -2 l 1,1,2
 868 -21 868 -21 832 -45 c 128,-1,3
 796 -69 796 -69 765 -98.5 c 128,-1,4
 734 -128 734 -128 712.5 -163 c 128,-1,5
 691 -198 691 -198 688 -240 c 0,6,7
 686 -275 686 -275 703.5 -295.5 c 128,-1,8
 721 -316 721 -316 756 -318 c 0,9,10
 785 -319 785 -319 812 -309 c 128,-1,11
 839 -299 839 -299 864 -286 c 1,12,-1
 880 -371 l 1,13,14
 846 -391 846 -391 809 -402 c 128,-1,15
 772 -413 772 -413 732 -413 c 0,16,17
 696 -413 696 -413 667 -401 c 128,-1,18
 638 -389 638 -389 618 -367.5 c 128,-1,19
 598 -346 598 -346 587.5 -316.5 c 128,-1,20
 577 -287 577 -287 579 -252 c 0,21,22
 581 -204 581 -204 602.5 -163 c 128,-1,23
 624 -122 624 -122 656.5 -87.5 c 128,-1,24
 689 -53 689 -53 729 -25 c 128,-1,25
 769 3 769 3 807 26 c 1,26,27
 805 58 805 58 807 90.5 c 128,-1,28
 809 123 809 123 814 156 c 1,29,30
 736 74 736 74 635 26 c 128,-1,31
 534 -22 534 -22 418 -20 c 0,32,33
 353 -18 353 -18 295.5 3 c 128,-1,34
 238 24 238 24 195.5 62.5 c 128,-1,35
 153 101 153 101 130 155.5 c 128,-1,36
 107 210 107 210 111 279 c 256,37,38
 115 348 115 348 141 401 c 128,-1,39
 167 454 167 454 208 493 c 128,-1,40
 249 532 249 532 302.5 558.5 c 128,-1,41
 356 585 356 585 415 600.5 c 128,-1,42
 474 616 474 616 535 623 c 128,-1,43
 596 630 596 630 654 630 c 2,44,-1
 887 629 l 1,45,-1
 905 753 l 2,46,47
 911 812 911 812 895 857.5 c 128,-1,48
 879 903 879 903 846 934.5 c 128,-1,49
 813 966 813 966 766 983 c 128,-1,50
 719 1000 719 1000 663 1002 c 0,51,52
 608 1003 608 1003 556 990 c 128,-1,53
 504 977 504 977 461 949.5 c 128,-1,54
 418 922 418 922 386 880.5 c 128,-1,55
 354 839 354 839 340 784 c 1,56,-1
 223 784 l 1,57,58
 236 864 236 864 280 924 c 128,-1,59
 324 984 324 984 386 1024 c 128,-1,60
 448 1064 448 1064 523 1083.5 c 128,-1,61
 598 1103 598 1103 674 1102 c 0,62,63
 752 1100 752 1100 819.5 1076 c 128,-1,64
 887 1052 887 1052 935 1007 c 128,-1,65
 983 962 983 962 1007.5 897.5 c 128,-1,66
 1032 833 1032 833 1024 750 c 1,67,-1
 937 226 l 2,68,69
 928 171 928 171 930 119 c 128,-1,70
 932 67 932 67 934 13 c 1,71,-1
 933 0 l 1,72,-1
 896 0 l 1,0,-1
436 86 m 0,73,74
 497 84 497 84 554 98 c 128,-1,75
 611 112 611 112 661.5 140 c 128,-1,76
 712 168 712 168 755 208.5 c 128,-1,77
 798 249 798 249 831 299 c 1,78,-1
 872 537 l 1,79,-1
 669 538 l 2,80,81
 626 538 626 538 578.5 534.5 c 128,-1,82
 531 531 531 531 484 521 c 128,-1,83
 437 511 437 511 393 493 c 128,-1,84
 349 475 349 475 314.5 447.5 c 128,-1,85
 280 420 280 420 257.5 381 c 128,-1,86
 235 342 235 342 230 289 c 0,87,88
 225 241 225 241 240.5 204 c 128,-1,89
 256 167 256 167 284.5 141 c 128,-1,90
 313 115 313 115 352.5 101 c 128,-1,91
 392 87 392 87 436 86 c 0,73,74
EndSplineSet
Substitution2: "'smcp' Lowercase to Small Capitals lookup 0 subtable" Aogonek.smcp
EndChar
StartChar: dcroat
Encoding: 273 273 995
Width: 1232
Flags: W
LayerCount: 2
Back
Fore
SplineSet
1297 1257 m 1,0,-1
 1112 1257 l 1,1,-1
 895 0 l 1,2,-1
 783 0 l 1,3,-1
 810 140 l 1,4,5
 745 63 745 63 660.5 20 c 128,-1,6
 576 -23 576 -23 473 -20 c 0,7,8
 402 -18 402 -18 347.5 7 c 128,-1,9
 293 32 293 32 254 72.5 c 128,-1,10
 215 113 215 113 189.5 166.5 c 128,-1,11
 164 220 164 220 151 280 c 128,-1,12
 138 340 138 340 135.5 402.5 c 128,-1,13
 133 465 133 465 140 524 c 2,14,-1
 143 545 l 2,15,16
 152 612 152 612 171.5 679.5 c 128,-1,17
 191 747 191 747 221 810 c 128,-1,18
 251 873 251 873 292.5 927 c 128,-1,19
 334 981 334 981 387 1021 c 128,-1,20
 440 1061 440 1061 504.5 1082.5 c 128,-1,21
 569 1104 569 1104 646 1102 c 0,22,23
 738 1100 738 1100 813.5 1057.5 c 128,-1,24
 889 1015 889 1015 935 934 c 1,25,-1
 993 1257 l 1,26,-1
 701 1257 l 1,27,-1
 719 1359 l 1,28,-1
 1011 1359 l 1,29,-1
 1043 1536 l 1,30,-1
 1161 1536 l 1,31,-1
 1130 1359 l 1,32,-1
 1316 1359 l 1,33,-1
 1297 1257 l 1,0,-1
260 524 m 2,34,35
 254 478 254 478 254 428 c 128,-1,36
 254 378 254 378 261.5 330 c 128,-1,37
 269 282 269 282 285.5 238.5 c 128,-1,38
 302 195 302 195 330.5 161.5 c 128,-1,39
 359 128 359 128 400.5 107 c 128,-1,40
 442 86 442 86 500 84 c 0,41,42
 552 82 552 82 599 95.5 c 128,-1,43
 646 109 646 109 686.5 133.5 c 128,-1,44
 727 158 727 158 761.5 193 c 128,-1,45
 796 228 796 228 824 270 c 1,46,-1
 913 796 l 1,47,48
 899 839 899 839 875.5 876 c 128,-1,49
 852 913 852 913 820 939.5 c 128,-1,50
 788 966 788 966 748 981.5 c 128,-1,51
 708 997 708 997 661 999 c 0,52,53
 598 1001 598 1001 546.5 982.5 c 128,-1,54
 495 964 495 964 453.5 931.5 c 128,-1,55
 412 899 412 899 379.5 854.5 c 128,-1,56
 347 810 347 810 324 759 c 128,-1,57
 301 708 301 708 285.5 653 c 128,-1,58
 270 598 270 598 263 545 c 2,59,-1
 260 524 l 2,34,35
EndSplineSet
Substitution2: "'smcp' Lowercase to Small Capitals lookup 0 subtable" Dcroat.smcp
EndChar
StartChar: Eogonek
Encoding: 280 280 567
Width: 1202
Flags: W
LayerCount: 2
Back
Fore
SplineSet
952 698 m 1,0,-1
 329 698 l 1,1,-1
 226 104 l 1,2,-1
 944 104 l 1,3,-1
 926 0 l 1,4,-1
 818 0 l 1,5,-1
 822 -2 l 1,6,7
 790 -21 790 -21 754 -45 c 128,-1,8
 718 -69 718 -69 687 -98.5 c 128,-1,9
 656 -128 656 -128 634.5 -163 c 128,-1,10
 613 -198 613 -198 610 -240 c 0,11,12
 608 -275 608 -275 625.5 -295.5 c 128,-1,13
 643 -316 643 -316 678 -318 c 0,14,15
 707 -319 707 -319 734 -309 c 128,-1,16
 761 -299 761 -299 786 -286 c 1,17,-1
 802 -371 l 1,18,19
 768 -391 768 -391 731 -402 c 128,-1,20
 694 -413 694 -413 654 -413 c 0,21,22
 618 -413 618 -413 589 -401 c 128,-1,23
 560 -389 560 -389 540 -367.5 c 128,-1,24
 520 -346 520 -346 509.5 -316.5 c 128,-1,25
 499 -287 499 -287 501 -252 c 0,26,27
 503 -211 503 -211 519.5 -174.5 c 128,-1,28
 536 -138 536 -138 562 -106.5 c 128,-1,29
 588 -75 588 -75 620.5 -48.5 c 128,-1,30
 653 -22 653 -22 687 0 c 1,31,-1
 90 0 l 1,32,-1
 342 1456 l 1,33,-1
 1175 1456 l 1,34,-1
 1156 1351 l 1,35,-1
 442 1351 l 1,36,-1
 347 802 l 1,37,-1
 970 802 l 1,38,-1
 952 698 l 1,0,-1
EndSplineSet
Substitution2: "'smcp' Lowercase to Small Capitals lookup 0 subtable" Eogonek.smcp
EndChar
StartChar: eogonek
Encoding: 281 281 568
Width: 1202
Flags: W
LayerCount: 2
Back
Fore
SplineSet
539 -20 m 2,0,1
 430 -17 430 -17 349 28 c 128,-1,2
 268 73 268 73 216.5 146 c 128,-1,3
 165 219 165 219 143 313 c 128,-1,4
 121 407 121 407 131 507 c 2,5,-1
 136 551 l 2,6,7
 145 620 145 620 168.5 688 c 128,-1,8
 192 756 192 756 228 818 c 128,-1,9
 264 880 264 880 312 933 c 128,-1,10
 360 986 360 986 418.5 1024 c 128,-1,11
 477 1062 477 1062 545 1083 c 128,-1,12
 613 1104 613 1104 688 1102 c 0,13,14
 791 1099 791 1099 864 1056 c 128,-1,15
 937 1013 937 1013 981.5 944 c 128,-1,16
 1026 875 1026 875 1042.5 787 c 128,-1,17
 1059 699 1059 699 1049 606 c 2,18,-1
 1040 533 l 1,19,-1
 254 533 l 1,20,-1
 249 509 l 1,21,22
 238 433 238 433 251.5 358 c 128,-1,23
 265 283 265 283 303 222.5 c 128,-1,24
 341 162 341 162 402.5 123.5 c 128,-1,25
 464 85 464 85 548 82 c 0,26,27
 647 78 647 78 729.5 118 c 128,-1,28
 812 158 812 158 881 226 c 1,29,-1
 952 169 l 1,30,31
 862 62 862 62 739 15 c 1,32,33
 709 -4 709 -4 677 -26.5 c 128,-1,34
 645 -49 645 -49 619 -76.5 c 128,-1,35
 593 -104 593 -104 575 -136.5 c 128,-1,36
 557 -169 557 -169 555 -206 c 0,37,38
 553 -241 553 -241 570.5 -261.5 c 128,-1,39
 588 -282 588 -282 623 -284 c 0,40,41
 652 -285 652 -285 679 -275 c 128,-1,42
 706 -265 706 -265 731 -252 c 1,43,-1
 747 -337 l 1,44,45
 713 -357 713 -357 676 -368 c 128,-1,46
 639 -379 639 -379 599 -379 c 0,47,48
 563 -379 563 -379 534 -367 c 128,-1,49
 505 -355 505 -355 485 -333.5 c 128,-1,50
 465 -312 465 -312 454.5 -282.5 c 128,-1,51
 444 -253 444 -253 446 -218 c 0,52,53
 448 -158 448 -158 480.5 -108.5 c 128,-1,54
 513 -59 513 -59 560 -20 c 1,55,-1
 539 -20 l 2,0,1
682 1000 m 0,56,57
 601 1003 601 1003 535 972 c 128,-1,58
 469 941 469 941 417.5 889.5 c 128,-1,59
 366 838 366 838 329 771 c 128,-1,60
 292 704 292 704 269 635 c 1,61,-1
 932 634 l 1,62,-1
 935 649 l 2,63,64
 944 713 944 713 932 775 c 128,-1,65
 920 837 920 837 887.5 886.5 c 128,-1,66
 855 936 855 936 803 967 c 128,-1,67
 751 998 751 998 682 1000 c 0,56,57
EndSplineSet
Substitution2: "'smcp' Lowercase to Small Capitals lookup 0 subtable" Eogonek.smcp
EndChar
StartChar: Hbar
Encoding: 294 294 137
Width: 1202
Flags: W
LayerCount: 2
Back
Fore
SplineSet
1124 1123 m 1,0,-1
 1261 1123 l 1,1,-1
 1243 1026 l 1,2,-1
 1107 1026 l 1,3,-1
 929 0 l 1,4,-1
 817 0 l 1,5,-1
 938 698 l 1,6,-1
 278 698 l 1,7,-1
 156 0 l 1,8,-1
 44 0 l 1,9,-1
 222 1026 l 1,10,-1
 107 1026 l 1,11,-1
 125 1123 l 1,12,-1
 239 1123 l 1,13,-1
 297 1456 l 1,14,-1
 409 1456 l 1,15,-1
 351 1123 l 1,16,-1
 1012 1123 l 1,17,-1
 1070 1456 l 1,18,-1
 1182 1456 l 1,19,-1
 1124 1123 l 1,0,-1
956 802 m 1,20,-1
 995 1026 l 1,21,-1
 334 1026 l 1,22,-1
 295 802 l 1,23,-1
 956 802 l 1,20,-1
EndSplineSet
EndChar
StartChar: hbar
Encoding: 295 295 487
Width: 1232
Flags: W
LayerCount: 2
Back
Fore
SplineSet
732 1257 m 1,0,-1
 446 1257 l 1,1,-1
 376 873 l 1,2,3
 410 923 410 923 451.5 965.5 c 128,-1,4
 493 1008 493 1008 542.5 1038.5 c 128,-1,5
 592 1069 592 1069 648 1086 c 128,-1,6
 704 1103 704 1103 767 1102 c 0,7,8
 856 1100 856 1100 916.5 1065.5 c 128,-1,9
 977 1031 977 1031 1012.5 974.5 c 128,-1,10
 1048 918 1048 918 1059.5 844.5 c 128,-1,11
 1071 771 1071 771 1062 691 c 1,12,-1
 946 0 l 1,13,-1
 827 0 l 1,14,-1
 943 692 l 2,15,16
 950 752 950 752 943 806.5 c 128,-1,17
 936 861 936 861 911.5 903 c 128,-1,18
 887 945 887 945 843 970 c 128,-1,19
 799 995 799 995 732 997 c 0,20,21
 671 998 671 998 617 980 c 128,-1,22
 563 962 563 962 516 929.5 c 128,-1,23
 469 897 469 897 430.5 853 c 128,-1,24
 392 809 392 809 362 760 c 1,25,-1
 231 0 l 1,26,-1
 112 0 l 1,27,-1
 330 1257 l 1,28,-1
 136 1257 l 1,29,-1
 154 1359 l 1,30,-1
 348 1359 l 1,31,-1
 379 1536 l 1,32,-1
 498 1536 l 1,33,-1
 465 1359 l 1,34,-1
 751 1359 l 1,35,-1
 732 1257 l 1,0,-1
EndSplineSet
EndChar
StartChar: iogonek
Encoding: 303 303 588
Width: 1202
Flags: W
LayerCount: 2
Back
Fore
SplineSet
297 1082 m 1,0,-1
 787 1082 l 1,1,-1
 617 106 l 1,2,-1
 975 106 l 1,3,-1
 956 0 l 1,4,-1
 595 0 l 1,5,-1
 599 -2 l 1,6,7
 567 -21 567 -21 531 -45 c 128,-1,8
 495 -69 495 -69 464 -98.5 c 128,-1,9
 433 -128 433 -128 411.5 -163 c 128,-1,10
 390 -198 390 -198 387 -240 c 0,11,12
 385 -275 385 -275 402.5 -295.5 c 128,-1,13
 420 -316 420 -316 455 -318 c 0,14,15
 484 -319 484 -319 511 -309 c 128,-1,16
 538 -299 538 -299 563 -286 c 1,17,-1
 579 -371 l 1,18,19
 545 -391 545 -391 508 -402 c 128,-1,20
 471 -413 471 -413 431 -413 c 0,21,22
 395 -413 395 -413 366 -401 c 128,-1,23
 337 -389 337 -389 317 -367.5 c 128,-1,24
 297 -346 297 -346 286.5 -316.5 c 128,-1,25
 276 -287 276 -287 278 -252 c 0,26,27
 280 -211 280 -211 296.5 -174.5 c 128,-1,28
 313 -138 313 -138 339 -106.5 c 128,-1,29
 365 -75 365 -75 397.5 -48.5 c 128,-1,30
 430 -22 430 -22 464 0 c 1,31,-1
 109 0 l 1,32,-1
 128 106 l 1,33,-1
 498 106 l 1,34,-1
 649 975 l 1,35,-1
 278 975 l 1,36,-1
 297 1082 l 1,0,-1
685 1376 m 0,37,38
 687 1416 687 1416 712 1442.5 c 128,-1,39
 737 1469 737 1469 778 1470 c 0,40,41
 818 1471 818 1471 842 1445 c 128,-1,42
 866 1419 866 1419 864 1380 c 256,43,44
 862 1341 862 1341 836 1315.5 c 128,-1,45
 810 1290 810 1290 771 1289 c 0,46,47
 731 1288 731 1288 707 1312.5 c 128,-1,48
 683 1337 683 1337 685 1376 c 0,37,38
EndSplineSet
Substitution2: "'smcp' Lowercase to Small Capitals lookup 0 subtable" Iogonek.smcp
EndChar
StartChar: dotlessi
Encoding: 305 305 138
Width: 1202
Flags: W
LayerCount: 2
Back
Fore
SplineSet
297 1082 m 1,0,-1
 787 1082 l 1,1,-1
 617 106 l 1,2,-1
 975 106 l 1,3,-1
 956 0 l 1,4,-1
 109 0 l 1,5,-1
 128 106 l 1,6,-1
 498 106 l 1,7,-1
 649 975 l 1,8,-1
 278 975 l 1,9,-1
 297 1082 l 1,0,-1
EndSplineSet
EndChar
StartChar: IJ
Encoding: 306 306 139
Width: 1202
Flags: W
LayerCount: 2
Back
Fore
SplineSet
148 0 m 1,0,-1
 28 0 l 1,1,-1
 281 1456 l 1,2,-1
 401 1456 l 1,3,-1
 148 0 l 1,0,-1
1093 1456 m 1,4,-1
 1213 1456 l 1,5,-1
 1021 332 l 2,6,7
 1010 251 1010 251 980 185.5 c 128,-1,8
 950 120 950 120 901 74 c 128,-1,9
 852 28 852 28 785 3.5 c 128,-1,10
 718 -21 718 -21 633 -19 c 0,11,12
 557 -18 557 -18 501 8.5 c 128,-1,13
 445 35 445 35 410 80 c 128,-1,14
 375 125 375 125 360 186.5 c 128,-1,15
 345 248 345 248 351 321 c 1,16,-1
 470 321 l 1,17,18
 465 272 465 272 471.5 229 c 128,-1,19
 478 186 478 186 498 153.5 c 128,-1,20
 518 121 518 121 553.5 102 c 128,-1,21
 589 83 589 83 644 82 c 0,22,23
 704 80 704 80 749 98.5 c 128,-1,24
 794 117 794 117 825 150 c 128,-1,25
 856 183 856 183 874.5 229.5 c 128,-1,26
 893 276 893 276 901 332 c 2,27,-1
 1093 1456 l 1,4,-1
EndSplineSet
EndChar
StartChar: ij
Encoding: 307 307 140
Width: 1202
Flags: W
LayerCount: 2
Back
Fore
SplineSet
743 1082 m 1,0,-1
 1100 1082 l 1,1,-1
 915 0 l 2,2,3
 901 -95 901 -95 864.5 -175.5 c 128,-1,4
 828 -256 828 -256 769 -314.5 c 128,-1,5
 710 -373 710 -373 629.5 -405.5 c 128,-1,6
 549 -438 549 -438 449 -437 c 0,7,8
 397 -437 397 -437 345.5 -431.5 c 128,-1,9
 294 -426 294 -426 242 -418 c 1,10,-1
 263 -318 l 1,11,12
 308 -325 308 -325 354 -328 c 128,-1,13
 400 -331 400 -331 446 -332 c 0,14,15
 524 -333 524 -333 584.5 -309 c 128,-1,16
 645 -285 645 -285 689 -240.5 c 128,-1,17
 733 -196 733 -196 760 -134.5 c 128,-1,18
 787 -73 787 -73 798 0 c 2,19,-1
 963 975 l 1,20,-1
 724 975 l 1,21,-1
 743 1082 l 1,0,-1
186 1082 m 1,22,-1
 555 1082 l 1,23,-1
 386 106 l 1,24,-1
 595 106 l 1,25,-1
 576 0 l 1,26,-1
 -4 0 l 1,27,-1
 15 106 l 1,28,-1
 266 106 l 1,29,-1
 417 975 l 1,30,-1
 167 975 l 1,31,-1
 186 1082 l 1,22,-1
994 1375 m 0,32,33
 996 1415 996 1415 1020.5 1441.5 c 128,-1,34
 1045 1468 1045 1468 1086 1469 c 256,35,36
 1127 1470 1127 1470 1151 1444.5 c 128,-1,37
 1175 1419 1175 1419 1173 1379 c 256,38,39
 1171 1339 1171 1339 1145 1314 c 128,-1,40
 1119 1289 1119 1289 1080 1288 c 0,41,42
 1040 1287 1040 1287 1016 1311.5 c 128,-1,43
 992 1336 992 1336 994 1375 c 0,32,33
457 1374 m 0,44,45
 459 1414 459 1414 483.5 1440.5 c 128,-1,46
 508 1467 508 1467 548 1468 c 0,47,48
 590 1469 590 1469 613 1443.5 c 128,-1,49
 636 1418 636 1418 634 1378 c 256,50,51
 632 1338 632 1338 607 1313 c 128,-1,52
 582 1288 582 1288 542 1287 c 256,53,54
 502 1286 502 1286 478.5 1310.5 c 128,-1,55
 455 1335 455 1335 457 1374 c 0,44,45
EndSplineSet
EndChar
StartChar: kgreenlandic
Encoding: 312 312 141
Width: 1202
Flags: W
LayerCount: 2
Back
Fore
SplineSet
480 504 m 1,0,-1
 280 344 l 1,1,-1
 220 0 l 1,2,-1
 101 0 l 1,3,-1
 289 1082 l 1,4,-1
 409 1082 l 1,5,-1
 305 493 l 1,6,-1
 464 634 l 1,7,-1
 978 1082 l 1,8,-1
 1133 1082 l 1,9,-1
 568 582 l 1,10,-1
 984 0 l 1,11,-1
 842 0 l 1,12,-1
 480 504 l 1,0,-1
EndSplineSet
EndChar
StartChar: Lslash
Encoding: 321 321 142
Width: 1202
Flags: W
LayerCount: 2
Back
Fore
SplineSet
391 825 m 1,0,-1
 694 917 l 1,1,-1
 673 804 l 1,2,-1
 372 712 l 1,3,-1
 266 104 l 1,4,-1
 986 104 l 1,5,-1
 967 0 l 1,6,-1
 129 0 l 1,7,-1
 246 674 l 1,8,-1
 56 617 l 1,9,-1
 77 730 l 1,10,-1
 265 787 l 1,11,-1
 382 1456 l 1,12,-1
 501 1456 l 1,13,-1
 391 825 l 1,0,-1
EndSplineSet
EndChar
StartChar: lslash
Encoding: 322 322 143
Width: 1202
Flags: W
LayerCount: 2
Back
Fore
SplineSet
376 1536 m 1,0,-1
 867 1536 l 1,1,-1
 757 903 l 1,2,-1
 1112 1018 l 1,3,-1
 1087 904 l 1,4,-1
 737 790 l 1,5,-1
 619 106 l 1,6,-1
 975 106 l 1,7,-1
 956 0 l 1,8,-1
 109 0 l 1,9,-1
 128 106 l 1,10,-1
 500 106 l 1,11,-1
 611 749 l 1,12,-1
 231 626 l 1,13,-1
 254 741 l 1,14,-1
 631 862 l 1,15,-1
 729 1429 l 1,16,-1
 357 1429 l 1,17,-1
 376 1536 l 1,0,-1
EndSplineSet
EndChar
StartChar: Eng
Encoding: 330 330 144
Width: 1202
Flags: W
LayerCount: 2
Back
Fore
SplineSet
1162 1456 m 1,0,-1
 898 -88 l 2,1,2
 888 -154 888 -154 865 -217.5 c 128,-1,3
 842 -281 842 -281 803 -330.5 c 128,-1,4
 764 -380 764 -380 708.5 -410 c 128,-1,5
 653 -440 653 -440 578 -439 c 0,6,7
 550 -438 550 -438 524 -432 c 128,-1,8
 498 -426 498 -426 472 -418 c 1,9,-1
 497 -320 l 1,10,11
 519 -328 519 -328 541.5 -333.5 c 128,-1,12
 564 -339 564 -339 587 -339 c 0,13,14
 635 -339 635 -339 669 -314.5 c 128,-1,15
 703 -290 703 -290 725.5 -253 c 128,-1,16
 748 -216 748 -216 761 -172 c 128,-1,17
 774 -128 774 -128 780 -89 c 2,18,-1
 795 11 l 1,19,-1
 402 1217 l 1,20,-1
 190 0 l 1,21,-1
 73 0 l 1,22,-1
 327 1456 l 1,23,-1
 438 1456 l 1,24,-1
 437 1451 l 1,25,-1
 833 241 l 1,26,-1
 1045 1456 l 1,27,-1
 1162 1456 l 1,0,-1
EndSplineSet
EndChar
StartChar: eng
Encoding: 331 331 145
Width: 1202
Flags: W
LayerCount: 2
Back
Fore
SplineSet
387 1082 m 1,0,-1
 356 891 l 1,1,2
 387 939 387 939 426 979 c 128,-1,3
 465 1019 465 1019 510.5 1046.5 c 128,-1,4
 556 1074 556 1074 608.5 1088.5 c 128,-1,5
 661 1103 661 1103 721 1102 c 0,6,7
 783 1100 783 1100 830 1081.5 c 128,-1,8
 877 1063 877 1063 910.5 1031.5 c 128,-1,9
 944 1000 944 1000 965.5 958 c 128,-1,10
 987 916 987 916 998 867 c 128,-1,11
 1009 818 1009 818 1010 765 c 128,-1,12
 1011 712 1011 712 1005 659 c 2,13,-1
 882 -89 l 2,14,15
 872 -160 872 -160 845.5 -224 c 128,-1,16
 819 -288 819 -288 776 -336.5 c 128,-1,17
 733 -385 733 -385 672.5 -413 c 128,-1,18
 612 -441 612 -441 534 -440 c 0,19,20
 501 -439 501 -439 469.5 -432.5 c 128,-1,21
 438 -426 438 -426 407 -418 c 1,22,-1
 432 -316 l 1,23,24
 458 -324 458 -324 485.5 -329 c 128,-1,25
 513 -334 513 -334 541 -334 c 0,26,27
 593 -334 593 -334 631.5 -313 c 128,-1,28
 670 -292 670 -292 697 -257.5 c 128,-1,29
 724 -223 724 -223 740 -178.5 c 128,-1,30
 756 -134 756 -134 763 -89 c 2,31,-1
 887 659 l 2,32,33
 894 718 894 718 890.5 777.5 c 128,-1,34
 887 837 887 837 866 885.5 c 128,-1,35
 845 934 845 934 802.5 965 c 128,-1,36
 760 996 760 996 688 998 c 0,37,38
 634 999 634 999 580 983 c 128,-1,39
 526 967 526 967 478.5 936.5 c 128,-1,40
 431 906 431 906 395 862.5 c 128,-1,41
 359 819 359 819 342 766 c 1,42,-1
 211 0 l 1,43,-1
 92 0 l 1,44,-1
 281 1082 l 1,45,-1
 387 1082 l 1,0,-1
EndSplineSet
EndChar
StartChar: OE
Encoding: 338 338 146
Width: 1202
Flags: W
LayerCount: 2
Back
Fore
SplineSet
1053 0 m 1,0,-1
 615 0 l 2,1,2
 555 -3 555 -3 496.5 -9 c 128,-1,3
 438 -15 438 -15 378 -13 c 0,4,5
 306 -10 306 -10 252.5 15.5 c 128,-1,6
 199 41 199 41 161.5 83 c 128,-1,7
 124 125 124 125 101 179.5 c 128,-1,8
 78 234 78 234 67 294.5 c 128,-1,9
 56 355 56 355 56 418 c 128,-1,10
 56 481 56 481 64 540 c 2,11,-1
 126 915 l 2,12,13
 137 981 137 981 156 1048 c 128,-1,14
 175 1115 175 1115 203.5 1176.5 c 128,-1,15
 232 1238 232 1238 271 1291.5 c 128,-1,16
 310 1345 310 1345 361 1385 c 128,-1,17
 412 1425 412 1425 474.5 1448 c 128,-1,18
 537 1471 537 1471 614 1472 c 0,19,20
 674 1473 674 1473 733 1466.5 c 128,-1,21
 792 1460 792 1460 852 1456 c 1,22,-1
 1301 1456 l 1,23,-1
 1282 1354 l 1,24,-1
 856 1354 l 1,25,-1
 760 801 l 1,26,-1
 1130 801 l 1,27,-1
 1112 699 l 1,28,-1
 743 699 l 1,29,-1
 639 101 l 1,30,-1
 1071 101 l 1,31,-1
 1053 0 l 1,0,-1
384 89 m 0,32,33
 417 87 417 87 450.5 87.5 c 128,-1,34
 484 88 484 88 518 90 c 1,35,-1
 743 1365 l 1,36,37
 709 1368 709 1368 676 1370 c 128,-1,38
 643 1372 643 1372 609 1372 c 0,39,40
 548 1372 548 1372 499 1352 c 128,-1,41
 450 1332 450 1332 412.5 1298.5 c 128,-1,42
 375 1265 375 1265 347 1220.5 c 128,-1,43
 319 1176 319 1176 299 1125.5 c 128,-1,44
 279 1075 279 1075 265.5 1021.5 c 128,-1,45
 252 968 252 968 244 917 c 2,46,-1
 183 539 l 2,47,48
 177 496 177 496 174 447.5 c 128,-1,49
 171 399 171 399 174 350 c 128,-1,50
 177 301 177 301 189 255.5 c 128,-1,51
 201 210 201 210 225.5 174 c 128,-1,52
 250 138 250 138 288.5 115 c 128,-1,53
 327 92 327 92 384 89 c 0,32,33
EndSplineSet
EndChar
StartChar: oe
Encoding: 339 339 147
Width: 1202
Flags: W
LayerCount: 2
Back
Fore
SplineSet
28 629 m 2,0,1
 36 682 36 682 51 738 c 128,-1,2
 66 794 66 794 89 847 c 128,-1,3
 112 900 112 900 143.5 947.5 c 128,-1,4
 175 995 175 995 216 1030 c 128,-1,5
 257 1065 257 1065 308.5 1084.5 c 128,-1,6
 360 1104 360 1104 424 1103 c 0,7,8
 515 1100 515 1100 579 1049 c 128,-1,9
 643 998 643 998 669 912 c 1,10,11
 693 950 693 950 721 985 c 128,-1,12
 749 1020 749 1020 783.5 1046.5 c 128,-1,13
 818 1073 818 1073 858.5 1088.5 c 128,-1,14
 899 1104 899 1104 948 1103 c 0,15,16
 1030 1101 1030 1101 1081 1061.5 c 128,-1,17
 1132 1022 1132 1022 1158.5 961.5 c 128,-1,18
 1185 901 1185 901 1191 828.5 c 128,-1,19
 1197 756 1197 756 1189 690 c 2,20,-1
 1162 527 l 1,21,-1
 675 527 l 1,22,-1
 661 435 l 2,23,24
 657 406 657 406 655 369.5 c 128,-1,25
 653 333 653 333 655.5 294 c 128,-1,26
 658 255 658 255 666.5 218 c 128,-1,27
 675 181 675 181 692 151.5 c 128,-1,28
 709 122 709 122 736.5 103 c 128,-1,29
 764 84 764 84 805 83 c 0,30,31
 868 81 868 81 922 107 c 128,-1,32
 976 133 976 133 1024 170 c 1,33,-1
 1058 86 l 1,34,35
 1004 35 1004 35 938.5 7 c 128,-1,36
 873 -21 873 -21 798 -19 c 0,37,38
 709 -17 709 -17 646.5 33 c 128,-1,39
 584 83 584 83 558 166 c 1,40,41
 532 126 532 126 502 91.5 c 128,-1,42
 472 57 472 57 435.5 31.5 c 128,-1,43
 399 6 399 6 356 -8 c 128,-1,44
 313 -22 313 -22 262 -21 c 0,45,46
 201 -19 201 -19 156.5 3 c 128,-1,47
 112 25 112 25 81 61.5 c 128,-1,48
 50 98 50 98 31.5 145.5 c 128,-1,49
 13 193 13 193 4.5 245 c 128,-1,50
 -4 297 -4 297 -4 350 c 128,-1,51
 -4 403 -4 403 2 451 c 2,52,-1
 28 629 l 2,0,1
121 449 m 2,53,54
 117 419 117 419 114.5 380 c 128,-1,55
 112 341 112 341 114.5 300.5 c 128,-1,56
 117 260 117 260 125.5 221 c 128,-1,57
 134 182 134 182 152 151 c 128,-1,58
 170 120 170 120 199.5 100.5 c 128,-1,59
 229 81 229 81 273 80 c 0,60,61
 319 78 319 78 355 95.5 c 128,-1,62
 391 113 391 113 419 142 c 128,-1,63
 447 171 447 171 467 210 c 128,-1,64
 487 249 487 249 501 290.5 c 128,-1,65
 515 332 515 332 524 373.5 c 128,-1,66
 533 415 533 415 538 451 c 2,67,-1
 565 631 l 2,68,69
 569 661 569 661 571.5 700 c 128,-1,70
 574 739 574 739 571.5 779.5 c 128,-1,71
 569 820 569 820 560.5 859.5 c 128,-1,72
 552 899 552 899 533.5 930 c 128,-1,73
 515 961 515 961 485.5 980.5 c 128,-1,74
 456 1000 456 1000 413 1001 c 0,75,76
 367 1002 367 1002 331 985 c 128,-1,77
 295 968 295 968 267 939 c 128,-1,78
 239 910 239 910 219 871 c 128,-1,79
 199 832 199 832 185 790.5 c 128,-1,80
 171 749 171 749 162 707 c 128,-1,81
 153 665 153 665 148 630 c 2,82,-1
 121 449 l 2,53,54
687 626 m 1,83,-1
 1064 628 l 1,84,-1
 1075 712 l 2,85,86
 1080 751 1080 751 1079 800.5 c 128,-1,87
 1078 850 1078 850 1064 894 c 128,-1,88
 1050 938 1050 938 1020 968.5 c 128,-1,89
 990 999 990 999 937 1001 c 0,90,91
 893 1002 893 1002 860 984.5 c 128,-1,92
 827 967 827 967 801.5 937.5 c 128,-1,93
 776 908 776 908 758 869 c 128,-1,94
 740 830 740 830 727 789.5 c 128,-1,95
 714 749 714 749 705.5 709.5 c 128,-1,96
 697 670 697 670 690 638 c 2,97,-1
 687 626 l 1,83,-1
EndSplineSet
EndChar
StartChar: Tbar
Encoding: 358 358 488
Width: 1202
Flags: W
LayerCount: 2
Back
Fore
SplineSet
926 834 m 1,0,-1
 697 834 l 1,1,-1
 552 0 l 1,2,-1
 436 0 l 1,3,-1
 581 834 l 1,4,-1
 330 834 l 1,5,-1
 348 936 l 1,6,-1
 599 936 l 1,7,-1
 671 1351 l 1,8,-1
 220 1351 l 1,9,-1
 239 1456 l 1,10,-1
 1255 1456 l 1,11,-1
 1236 1351 l 1,12,-1
 787 1351 l 1,13,-1
 715 936 l 1,14,-1
 945 936 l 1,15,-1
 926 834 l 1,0,-1
EndSplineSet
Substitution2: "'smcp' Lowercase to Small Capitals lookup 0 subtable" Tbar.smcp
EndChar
StartChar: tbar
Encoding: 359 359 489
Width: 1202
Flags: W
LayerCount: 2
Back
Fore
SplineSet
832 617 m 1,0,-1
 581 617 l 1,1,-1
 529 302 l 1,2,3
 518 201 518 201 564.5 145 c 128,-1,4
 611 89 611 89 713 86 c 0,5,6
 761 84 761 84 808 90.5 c 128,-1,7
 855 97 855 97 902 105 c 1,8,-1
 911 13 l 1,9,10
 857 -6 857 -6 800.5 -13.5 c 128,-1,11
 744 -21 744 -21 687 -19 c 0,12,13
 613 -18 613 -18 558 6 c 128,-1,14
 503 30 503 30 467.5 72 c 128,-1,15
 432 114 432 114 417 173 c 128,-1,16
 402 232 402 232 408 304 c 1,17,-1
 460 617 l 1,18,-1
 236 617 l 1,19,-1
 254 719 l 1,20,-1
 477 719 l 1,21,-1
 521 984 l 1,22,-1
 229 984 l 1,23,-1
 247 1082 l 1,24,-1
 538 1082 l 1,25,-1
 587 1359 l 1,26,-1
 708 1359 l 1,27,-1
 659 1082 l 1,28,-1
 1049 1082 l 1,29,-1
 1031 984 l 1,30,-1
 643 984 l 1,31,-1
 598 719 l 1,32,-1
 851 719 l 1,33,-1
 832 617 l 1,0,-1
EndSplineSet
Substitution2: "'smcp' Lowercase to Small Capitals lookup 0 subtable" Tbar.smcp
EndChar
StartChar: Uogonek
Encoding: 370 370 648
Width: 1202
Flags: W
LayerCount: 2
Back
Fore
SplineSet
1189 1456 m 1,0,-1
 1022 471 l 2,1,2
 1010 394 1010 394 979.5 321 c 128,-1,3
 949 248 949 248 903.5 186.5 c 128,-1,4
 858 125 858 125 798 78 c 128,-1,5
 738 31 738 31 666 6 c 1,6,7
 638 -12 638 -12 610 -34 c 128,-1,8
 582 -56 582 -56 559.5 -81.5 c 128,-1,9
 537 -107 537 -107 522 -136.5 c 128,-1,10
 507 -166 507 -166 505 -200 c 0,11,12
 503 -235 503 -235 520.5 -255.5 c 128,-1,13
 538 -276 538 -276 573 -278 c 0,14,15
 602 -279 602 -279 629 -269 c 128,-1,16
 656 -259 656 -259 681 -246 c 1,17,-1
 697 -331 l 1,18,19
 663 -351 663 -351 626 -362 c 128,-1,20
 589 -373 589 -373 549 -373 c 0,21,22
 513 -373 513 -373 484 -361 c 128,-1,23
 455 -349 455 -349 435 -327.5 c 128,-1,24
 415 -306 415 -306 404.5 -276.5 c 128,-1,25
 394 -247 394 -247 396 -212 c 0,26,27
 398 -154 398 -154 428.5 -106 c 128,-1,28
 459 -58 459 -58 503 -20 c 1,29,-1
 502 -20 l 2,30,31
 403 -18 403 -18 329 24.5 c 128,-1,32
 255 67 255 67 207.5 135 c 128,-1,33
 160 203 160 203 140.5 289.5 c 128,-1,34
 121 376 121 376 131 468 c 1,35,-1
 302 1456 l 1,36,-1
 414 1456 l 1,37,-1
 248 468 l 2,38,39
 240 400 240 400 251 333 c 128,-1,40
 262 266 262 266 293.5 211.5 c 128,-1,41
 325 157 325 157 378.5 122 c 128,-1,42
 432 87 432 87 509 84 c 0,43,44
 590 81 590 81 657 113.5 c 128,-1,45
 724 146 724 146 774.5 201 c 128,-1,46
 825 256 825 256 857.5 326 c 128,-1,47
 890 396 890 396 903 470 c 2,48,-1
 1074 1456 l 1,49,-1
 1189 1456 l 1,0,-1
EndSplineSet
Substitution2: "'smcp' Lowercase to Small Capitals lookup 0 subtable" Uogonek.smcp
EndChar
StartChar: uogonek
Encoding: 371 371 649
Width: 1202
Flags: W
LayerCount: 2
Back
Fore
SplineSet
898 0 m 1,0,-1
 902 -2 l 1,1,2
 870 -21 870 -21 834 -45 c 128,-1,3
 798 -69 798 -69 767 -98.5 c 128,-1,4
 736 -128 736 -128 714.5 -163 c 128,-1,5
 693 -198 693 -198 690 -240 c 0,6,7
 688 -275 688 -275 705.5 -295.5 c 128,-1,8
 723 -316 723 -316 758 -318 c 0,9,10
 787 -319 787 -319 814 -309 c 128,-1,11
 841 -299 841 -299 866 -286 c 1,12,-1
 882 -371 l 1,13,14
 848 -391 848 -391 811 -402 c 128,-1,15
 774 -413 774 -413 734 -413 c 0,16,17
 698 -413 698 -413 669 -401 c 128,-1,18
 640 -389 640 -389 620 -367.5 c 128,-1,19
 600 -346 600 -346 589.5 -316.5 c 128,-1,20
 579 -287 579 -287 581 -252 c 0,21,22
 583 -207 583 -207 602.5 -167.5 c 128,-1,23
 622 -128 622 -128 652.5 -94.5 c 128,-1,24
 683 -61 683 -61 720.5 -33.5 c 128,-1,25
 758 -6 758 -6 795 17 c 1,26,-1
 823 169 l 1,27,28
 755 78 755 78 662.5 27.5 c 128,-1,29
 570 -23 570 -23 455 -20 c 0,30,31
 363 -18 363 -18 302 20 c 128,-1,32
 241 58 241 58 207 119 c 128,-1,33
 173 180 173 180 163.5 257.5 c 128,-1,34
 154 335 154 335 163 416 c 1,35,-1
 275 1082 l 1,36,-1
 393 1082 l 1,37,-1
 281 413 l 2,38,39
 274 355 274 355 277.5 297 c 128,-1,40
 281 239 281 239 302 192.5 c 128,-1,41
 323 146 323 146 364.5 116 c 128,-1,42
 406 86 406 86 476 84 c 0,43,44
 531 82 531 82 588.5 96.5 c 128,-1,45
 646 111 646 111 696.5 140.5 c 128,-1,46
 747 170 747 170 785.5 213.5 c 128,-1,47
 824 257 824 257 841 314 c 1,48,-1
 971 1082 l 1,49,-1
 1092 1082 l 1,50,-1
 903 0 l 1,51,-1
 898 0 l 1,0,-1
EndSplineSet
Substitution2: "'smcp' Lowercase to Small Capitals lookup 0 subtable" Uogonek.smcp
EndChar
StartChar: longs
Encoding: 383 383 148
Width: 1202
Flags: W
LayerCount: 2
Back
Fore
SplineSet
369 0 m 1,0,-1
 571 1179 l 2,1,2
 584 1266 584 1266 619.5 1338.5 c 128,-1,3
 655 1411 655 1411 711 1462.5 c 128,-1,4
 767 1514 767 1514 841.5 1542 c 128,-1,5
 916 1570 916 1570 1006 1569 c 0,6,7
 1044 1568 1044 1568 1081 1562 c 128,-1,8
 1118 1556 1118 1556 1155 1548 c 1,9,-1
 1128 1453 l 1,10,11
 1100 1461 1100 1461 1071.5 1465 c 128,-1,12
 1043 1469 1043 1469 1014 1469 c 0,13,14
 948 1469 948 1469 893.5 1448 c 128,-1,15
 839 1427 839 1427 797.5 1389 c 128,-1,16
 756 1351 756 1351 729 1298.5 c 128,-1,17
 702 1246 702 1246 692 1183 c 2,18,-1
 490 0 l 1,19,-1
 369 0 l 1,0,-1
EndSplineSet
EndChar
StartChar: florin
Encoding: 402 402 149
Width: 1202
Flags: W
LayerCount: 2
Back
Fore
SplineSet
984 984 m 1,0,-1
 703 984 l 1,1,-1
 540 -71 l 2,2,3
 529 -151 529 -151 498 -219 c 128,-1,4
 467 -287 467 -287 417 -336.5 c 128,-1,5
 367 -386 367 -386 298.5 -413 c 128,-1,6
 230 -440 230 -440 146 -439 c 0,7,8
 108 -438 108 -438 71 -430 c 128,-1,9
 34 -422 34 -422 -2 -408 c 1,10,-1
 22 -311 l 1,11,12
 53 -323 53 -323 86 -330 c 128,-1,13
 119 -337 119 -337 152 -338 c 0,14,15
 211 -339 211 -339 257 -317.5 c 128,-1,16
 303 -296 303 -296 337 -259.5 c 128,-1,17
 371 -223 371 -223 391.5 -174 c 128,-1,18
 412 -125 412 -125 420 -71 c 2,19,-1
 582 984 l 1,20,-1
 378 984 l 1,21,-1
 393 1082 l 1,22,-1
 598 1082 l 1,23,-1
 615 1209 l 2,24,25
 626 1294 626 1294 662 1361.5 c 128,-1,26
 698 1429 698 1429 754 1475.5 c 128,-1,27
 810 1522 810 1522 883.5 1545.5 c 128,-1,28
 957 1569 957 1569 1042 1568 c 0,29,30
 1086 1567 1086 1567 1128 1559 c 128,-1,31
 1170 1551 1170 1551 1212 1540 c 1,32,-1
 1186 1442 l 1,33,34
 1152 1453 1152 1453 1117.5 1459 c 128,-1,35
 1083 1465 1083 1465 1048 1465 c 0,36,37
 987 1466 987 1466 934 1449 c 128,-1,38
 881 1432 881 1432 839.5 1399.5 c 128,-1,39
 798 1367 798 1367 771 1319 c 128,-1,40
 744 1271 744 1271 735 1209 c 2,41,-1
 718 1082 l 1,42,-1
 1000 1082 l 1,43,-1
 984 984 l 1,0,-1
EndSplineSet
EndChar
StartChar: Ohorn
Encoding: 416 416 150
Width: 1202
Flags: W
LayerCount: 2
Back
Fore
SplineSet
1074 632 m 2,0,1
 1061 558 1061 558 1038 480 c 128,-1,2
 1015 402 1015 402 980 329 c 128,-1,3
 945 256 945 256 898.5 191.5 c 128,-1,4
 852 127 852 127 792 79 c 128,-1,5
 732 31 732 31 658.5 4 c 128,-1,6
 585 -23 585 -23 498 -20 c 0,7,8
 415 -18 415 -18 352 12.5 c 128,-1,9
 289 43 289 43 244 92.5 c 128,-1,10
 199 142 199 142 170.5 207 c 128,-1,11
 142 272 142 272 128 343.5 c 128,-1,12
 114 415 114 415 113 489 c 128,-1,13
 112 563 112 563 122 631 c 2,14,-1
 153 823 l 2,15,16
 165 897 165 897 188.5 974.5 c 128,-1,17
 212 1052 212 1052 247 1125.5 c 128,-1,18
 282 1199 282 1199 329 1263.5 c 128,-1,19
 376 1328 376 1328 436 1376 c 128,-1,20
 496 1424 496 1424 569.5 1451 c 128,-1,21
 643 1478 643 1478 730 1476 c 0,22,23
 788 1474 788 1474 836.5 1458.5 c 128,-1,24
 885 1443 885 1443 924 1416.5 c 128,-1,25
 963 1390 963 1390 993 1354 c 128,-1,26
 1023 1318 1023 1318 1045 1275 c 1,27,28
 1095 1284 1095 1284 1129 1307.5 c 128,-1,29
 1163 1331 1163 1331 1185.5 1366 c 128,-1,30
 1208 1401 1208 1401 1222 1444 c 128,-1,31
 1236 1487 1236 1487 1246 1535 c 1,32,-1
 1350 1536 l 1,33,34
 1342 1468 1342 1468 1322 1410.5 c 128,-1,35
 1302 1353 1302 1353 1269 1308 c 128,-1,36
 1236 1263 1236 1263 1189.5 1232.5 c 128,-1,37
 1143 1202 1143 1202 1080 1189 c 1,38,39
 1107 1101 1107 1101 1112 1006 c 128,-1,40
 1117 911 1117 911 1105 823 c 2,41,-1
 1074 632 l 2,0,1
988 827 m 2,42,43
 995 878 995 878 997 937.5 c 128,-1,44
 999 997 999 997 992 1056.5 c 128,-1,45
 985 1116 985 1116 967.5 1171.5 c 128,-1,46
 950 1227 950 1227 918 1270 c 128,-1,47
 886 1313 886 1313 838 1340 c 128,-1,48
 790 1367 790 1367 722 1369 c 0,49,50
 652 1371 652 1371 594 1347.5 c 128,-1,51
 536 1324 536 1324 489 1283 c 128,-1,52
 442 1242 442 1242 406 1187 c 128,-1,53
 370 1132 370 1132 343.5 1070.5 c 128,-1,54
 317 1009 317 1009 299 946 c 128,-1,55
 281 883 281 883 271 825 c 2,56,-1
 239 630 l 2,57,58
 232 579 232 579 230 519.5 c 128,-1,59
 228 460 228 460 235 400.5 c 128,-1,60
 242 341 242 341 260 285 c 128,-1,61
 278 229 278 229 310 186 c 128,-1,62
 342 143 342 143 390 116 c 128,-1,63
 438 89 438 89 506 87 c 0,64,65
 577 84 577 84 635 107.5 c 128,-1,66
 693 131 693 131 740 172 c 128,-1,67
 787 213 787 213 822.5 268 c 128,-1,68
 858 323 858 323 884.5 384 c 128,-1,69
 911 445 911 445 928.5 509 c 128,-1,70
 946 573 946 573 956 631 c 2,71,-1
 988 827 l 2,42,43
EndSplineSet
EndChar
StartChar: ohorn
Encoding: 417 417 151
Width: 1202
Flags: W
LayerCount: 2
Back
Fore
SplineSet
104 550 m 2,0,1
 113 621 113 621 136 690 c 128,-1,2
 159 759 159 759 194 821 c 128,-1,3
 229 883 229 883 276.5 935.5 c 128,-1,4
 324 988 324 988 382 1025.5 c 128,-1,5
 440 1063 440 1063 508 1083.5 c 128,-1,6
 576 1104 576 1104 654 1102 c 0,7,8
 751 1100 751 1100 822.5 1063 c 128,-1,9
 894 1026 894 1026 942 965 c 1,10,11
 994 969 994 969 1030 987.5 c 128,-1,12
 1066 1006 1066 1006 1091 1036 c 128,-1,13
 1116 1066 1116 1066 1131 1106.5 c 128,-1,14
 1146 1147 1146 1147 1155 1195 c 1,15,-1
 1258 1196 l 1,16,17
 1242 1063 1242 1063 1178.5 983 c 128,-1,18
 1115 903 1115 903 994 880 c 1,19,20
 1027 809 1027 809 1038.5 727 c 128,-1,21
 1050 645 1050 645 1041 560 c 2,22,-1
 1037 526 l 2,23,24
 1023 419 1023 419 978.5 319.5 c 128,-1,25
 934 220 934 220 863.5 143.5 c 128,-1,26
 793 67 793 67 697.5 22 c 128,-1,27
 602 -23 602 -23 487 -20 c 0,28,29
 377 -17 377 -17 298.5 30 c 128,-1,30
 220 77 220 77 172.5 152.5 c 128,-1,31
 125 228 125 228 107 323.5 c 128,-1,32
 89 419 89 419 100 517 c 2,33,-1
 104 550 l 2,0,1
219 516 m 2,34,35
 211 443 211 443 220 367 c 128,-1,36
 229 291 229 291 261 228 c 128,-1,37
 293 165 293 165 349.5 124 c 128,-1,38
 406 83 406 83 493 80 c 0,39,40
 585 77 585 77 659 116 c 128,-1,41
 733 155 733 155 787 219 c 128,-1,42
 841 283 841 283 874 364 c 128,-1,43
 907 445 907 445 919 527 c 2,44,-1
 923 559 l 2,45,46
 931 632 931 632 922 709 c 128,-1,47
 913 786 913 786 881 850 c 128,-1,48
 849 914 849 914 792 956 c 128,-1,49
 735 998 735 998 648 1001 c 0,50,51
 555 1004 555 1004 481.5 964 c 128,-1,52
 408 924 408 924 354 859.5 c 128,-1,53
 300 795 300 795 267 713 c 128,-1,54
 234 631 234 631 223 550 c 2,55,-1
 219 516 l 2,34,35
EndSplineSet
EndChar
StartChar: Uhorn
Encoding: 431 431 152
Width: 1202
Flags: W
LayerCount: 2
Back
Fore
SplineSet
1189 1456 m 1,0,-1
 1156 1261 l 1,1,2
 1207 1271 1207 1271 1243 1294.5 c 128,-1,3
 1279 1318 1279 1318 1303 1353 c 128,-1,4
 1327 1388 1327 1388 1342 1433 c 128,-1,5
 1357 1478 1357 1478 1367 1532 c 1,6,-1
 1468 1533 l 1,7,8
 1459 1453 1459 1453 1435.5 1389 c 128,-1,9
 1412 1325 1412 1325 1372.5 1278.5 c 128,-1,10
 1333 1232 1333 1232 1275.5 1203.5 c 128,-1,11
 1218 1175 1218 1175 1140 1166 c 1,12,-1
 1022 471 l 2,13,14
 1007 373 1007 373 963 283.5 c 128,-1,15
 919 194 919 194 851.5 125.5 c 128,-1,16
 784 57 784 57 695.5 17.5 c 128,-1,17
 607 -22 607 -22 502 -20 c 0,18,19
 403 -18 403 -18 329 24.5 c 128,-1,20
 255 67 255 67 207.5 135 c 128,-1,21
 160 203 160 203 140.5 289.5 c 128,-1,22
 121 376 121 376 131 468 c 1,23,-1
 302 1456 l 1,24,-1
 414 1456 l 1,25,-1
 248 468 l 2,26,27
 240 400 240 400 251 333 c 128,-1,28
 262 266 262 266 293.5 211.5 c 128,-1,29
 325 157 325 157 378.5 122 c 128,-1,30
 432 87 432 87 509 84 c 0,31,32
 590 81 590 81 657 113.5 c 128,-1,33
 724 146 724 146 774.5 201 c 128,-1,34
 825 256 825 256 857.5 326 c 128,-1,35
 890 396 890 396 903 470 c 2,36,-1
 1074 1456 l 1,37,-1
 1189 1456 l 1,0,-1
EndSplineSet
EndChar
StartChar: uhorn
Encoding: 432 432 153
Width: 1202
Flags: W
LayerCount: 2
Back
Fore
SplineSet
823 169 m 1,0,1
 755 78 755 78 662.5 27.5 c 128,-1,2
 570 -23 570 -23 455 -20 c 0,3,4
 363 -18 363 -18 302 20 c 128,-1,5
 241 58 241 58 207 119 c 128,-1,6
 173 180 173 180 163.5 257.5 c 128,-1,7
 154 335 154 335 163 416 c 1,8,-1
 275 1082 l 1,9,-1
 393 1082 l 1,10,-1
 281 413 l 2,11,12
 274 355 274 355 277.5 297 c 128,-1,13
 281 239 281 239 302 192.5 c 128,-1,14
 323 146 323 146 364.5 116 c 128,-1,15
 406 86 406 86 476 84 c 0,16,17
 531 82 531 82 588.5 96.5 c 128,-1,18
 646 111 646 111 696.5 140.5 c 128,-1,19
 747 170 747 170 785.5 213.5 c 128,-1,20
 824 257 824 257 841 314 c 1,21,-1
 971 1082 l 1,22,-1
 1092 1082 l 1,23,-1
 1068 944 l 1,24,25
 1112 953 1112 953 1144 973 c 128,-1,26
 1176 993 1176 993 1198.5 1022.5 c 128,-1,27
 1221 1052 1221 1052 1235.5 1091.5 c 128,-1,28
 1250 1131 1250 1131 1259 1181 c 1,29,-1
 1361 1182 l 1,30,31
 1342 1030 1342 1030 1267.5 947 c 128,-1,32
 1193 864 1193 864 1051 848 c 1,33,-1
 903 0 l 1,34,-1
 792 0 l 1,35,-1
 823 169 l 1,0,1
EndSplineSet
EndChar
StartChar: uni0237
Encoding: 567 567 154
Width: 1202
Flags: W
LayerCount: 2
Back
Fore
SplineSet
340 1082 m 1,0,-1
 859 1082 l 1,1,-1
 674 0 l 2,2,3
 660 -95 660 -95 623 -175.5 c 128,-1,4
 586 -256 586 -256 527.5 -315 c 128,-1,5
 469 -374 469 -374 388.5 -407 c 128,-1,6
 308 -440 308 -440 208 -439 c 0,7,8
 155 -439 155 -439 103.5 -433.5 c 128,-1,9
 52 -428 52 -428 0 -420 c 1,10,-1
 21 -322 l 1,11,12
 66 -329 66 -329 112.5 -332 c 128,-1,13
 159 -335 159 -335 205 -336 c 0,14,15
 283 -337 283 -337 343.5 -312 c 128,-1,16
 404 -287 404 -287 447.5 -242 c 128,-1,17
 491 -197 491 -197 517.5 -135 c 128,-1,18
 544 -73 544 -73 555 0 c 2,19,-1
 721 975 l 1,20,-1
 321 975 l 1,21,-1
 340 1082 l 1,0,-1
EndSplineSet
EndChar
StartChar: schwa
Encoding: 601 601 155
Width: 1202
Flags: W
LayerCount: 2
Back
Fore
SplineSet
671 1101 m 0,0,1
 778 1098 778 1098 857 1052.5 c 128,-1,2
 936 1007 936 1007 985.5 933.5 c 128,-1,3
 1035 860 1035 860 1055 767 c 128,-1,4
 1075 674 1075 674 1065 576 c 2,5,-1
 1058 519 l 2,6,7
 1044 417 1044 417 999 319 c 128,-1,8
 954 221 954 221 883.5 144.5 c 128,-1,9
 813 68 813 68 719 22.5 c 128,-1,10
 625 -23 625 -23 514 -20 c 0,11,12
 416 -17 416 -17 343 20.5 c 128,-1,13
 270 58 270 58 224 120.5 c 128,-1,14
 178 183 178 183 159.5 265.5 c 128,-1,15
 141 348 141 348 152 441 c 2,16,-1
 167 543 l 1,17,-1
 942 543 l 1,18,-1
 947 573 l 2,19,20
 957 646 957 646 946.5 721 c 128,-1,21
 936 796 936 796 901.5 856.5 c 128,-1,22
 867 917 867 917 809 956.5 c 128,-1,23
 751 996 751 996 667 999 c 0,24,25
 568 1003 568 1003 479.5 972.5 c 128,-1,26
 391 942 391 942 314 881 c 1,27,-1
 272 965 l 1,28,29
 354 1039 354 1039 458 1071.5 c 128,-1,30
 562 1104 562 1104 671 1101 c 0,0,1
521 81 m 0,31,32
 600 79 600 79 664.5 109.5 c 128,-1,33
 729 140 729 140 779 191.5 c 128,-1,34
 829 243 829 243 865.5 308.5 c 128,-1,35
 902 374 902 374 925 441 c 1,36,-1
 270 441 l 1,37,-1
 265 411 l 2,38,39
 256 346 256 346 269 287 c 128,-1,40
 282 228 282 228 315 183 c 128,-1,41
 348 138 348 138 400 110.5 c 128,-1,42
 452 83 452 83 521 81 c 0,31,32
EndSplineSet
EndChar
StartChar: circumflex
Encoding: 710 710 156
Width: 1202
Flags: W
LayerCount: 2
Back
Fore
SplineSet
938 1276 m 1,0,-1
 936 1258 l 1,1,-1
 829 1258 l 1,2,-1
 696 1430 l 1,3,-1
 504 1259 l 1,4,-1
 395 1258 l 1,5,-1
 397 1278 l 1,6,-1
 664 1517 l 1,7,-1
 737 1517 l 1,8,-1
 938 1276 l 1,0,-1
EndSplineSet
EndChar
StartChar: caron
Encoding: 711 711 157
Width: 1202
Flags: W
LayerCount: 2
Back
Fore
SplineSet
715 1328 m 1,0,-1
 916 1510 l 1,1,-1
 1023 1511 l 1,2,-1
 1022 1495 l 1,3,-1
 755 1247 l 1,4,-1
 670 1247 l 1,5,-1
 477 1494 l 1,6,-1
 479 1512 l 1,7,-1
 583 1511 l 1,8,-1
 715 1328 l 1,0,-1
EndSplineSet
EndChar
StartChar: breve
Encoding: 728 728 158
Width: 1202
Flags: W
LayerCount: 2
Back
Fore
SplineSet
1010 1473 m 1,0,1
 1001 1413 1001 1413 975.5 1365 c 128,-1,2
 950 1317 950 1317 910.5 1283 c 128,-1,3
 871 1249 871 1249 819.5 1231.5 c 128,-1,4
 768 1214 768 1214 707 1215 c 0,5,6
 649 1216 649 1216 601.5 1234.5 c 128,-1,7
 554 1253 554 1253 520.5 1287 c 128,-1,8
 487 1321 487 1321 469.5 1368 c 128,-1,9
 452 1415 452 1415 453 1473 c 1,10,-1
 553 1472 l 1,11,12
 551 1395 551 1395 590 1349 c 128,-1,13
 629 1303 629 1303 709 1301 c 0,14,15
 751 1300 751 1300 784 1312 c 128,-1,16
 817 1324 817 1324 842.5 1346.5 c 128,-1,17
 868 1369 868 1369 885.5 1401 c 128,-1,18
 903 1433 903 1433 913 1471 c 1,19,-1
 1010 1473 l 1,0,1
EndSplineSet
EndChar
StartChar: dotaccent
Encoding: 729 729 159
Width: 1202
Flags: W
LayerCount: 2
Back
Fore
SplineSet
645 1378 m 0,0,1
 648 1413 648 1413 673.5 1437 c 128,-1,2
 699 1461 699 1461 734 1462 c 0,3,4
 770 1463 770 1463 793.5 1438.5 c 128,-1,5
 817 1414 817 1414 814 1378 c 0,6,7
 812 1343 812 1343 786 1319.5 c 128,-1,8
 760 1296 760 1296 725 1295 c 0,9,10
 707 1295 707 1295 692 1301 c 128,-1,11
 677 1307 677 1307 666 1318 c 128,-1,12
 655 1329 655 1329 649.5 1344.5 c 128,-1,13
 644 1360 644 1360 645 1378 c 0,0,1
EndSplineSet
EndChar
StartChar: ring
Encoding: 730 730 160
Width: 1202
Flags: W
LayerCount: 2
Back
Fore
SplineSet
546 1348 m 0,0,1
 552 1385 552 1385 570.5 1418.5 c 128,-1,2
 589 1452 589 1452 617 1477.5 c 128,-1,3
 645 1503 645 1503 680 1518.5 c 128,-1,4
 715 1534 715 1534 753 1534 c 0,5,6
 790 1534 790 1534 820.5 1518.5 c 128,-1,7
 851 1503 851 1503 871.5 1477 c 128,-1,8
 892 1451 892 1451 901 1417.5 c 128,-1,9
 910 1384 910 1384 904 1348 c 0,10,11
 898 1311 898 1311 879.5 1278 c 128,-1,12
 861 1245 861 1245 833.5 1220 c 128,-1,13
 806 1195 806 1195 771.5 1180.5 c 128,-1,14
 737 1166 737 1166 699 1166 c 256,15,16
 661 1166 661 1166 630.5 1181 c 128,-1,17
 600 1196 600 1196 579.5 1221 c 128,-1,18
 559 1246 559 1246 549.5 1279 c 128,-1,19
 540 1312 540 1312 546 1348 c 0,0,1
621 1348 m 0,20,21
 617 1327 617 1327 621 1307.5 c 128,-1,22
 625 1288 625 1288 635.5 1272.5 c 128,-1,23
 646 1257 646 1257 663 1247.5 c 128,-1,24
 680 1238 680 1238 702 1238 c 0,25,26
 725 1238 725 1238 746 1247 c 128,-1,27
 767 1256 767 1256 783.5 1271.5 c 128,-1,28
 800 1287 800 1287 811.5 1307 c 128,-1,29
 823 1327 823 1327 828 1348 c 0,30,31
 832 1369 832 1369 829 1389 c 128,-1,32
 826 1409 826 1409 816 1425 c 128,-1,33
 806 1441 806 1441 789 1451 c 128,-1,34
 772 1461 772 1461 750 1461 c 0,35,36
 727 1461 727 1461 705.5 1451.5 c 128,-1,37
 684 1442 684 1442 666.5 1426.5 c 128,-1,38
 649 1411 649 1411 637 1390.5 c 128,-1,39
 625 1370 625 1370 621 1348 c 0,20,21
EndSplineSet
EndChar
StartChar: ogonek
Encoding: 731 731 161
Width: 1202
Flags: W
LayerCount: 2
Back
Fore
SplineSet
597 -2 m 1,0,1
 565 -21 565 -21 529 -45 c 128,-1,2
 493 -69 493 -69 462 -98.5 c 128,-1,3
 431 -128 431 -128 409.5 -163 c 128,-1,4
 388 -198 388 -198 385 -240 c 0,5,6
 383 -275 383 -275 400.5 -295.5 c 128,-1,7
 418 -316 418 -316 453 -318 c 0,8,9
 482 -319 482 -319 509 -309 c 128,-1,10
 536 -299 536 -299 561 -286 c 1,11,-1
 577 -371 l 1,12,13
 543 -391 543 -391 506 -402 c 128,-1,14
 469 -413 469 -413 429 -413 c 0,15,16
 393 -413 393 -413 364 -401 c 128,-1,17
 335 -389 335 -389 315 -367.5 c 128,-1,18
 295 -346 295 -346 284.5 -316.5 c 128,-1,19
 274 -287 274 -287 276 -252 c 0,20,21
 278 -201 278 -201 302.5 -157.5 c 128,-1,22
 327 -114 327 -114 364 -78 c 128,-1,23
 401 -42 401 -42 444 -13 c 128,-1,24
 487 16 487 16 527 39 c 1,25,-1
 597 -2 l 1,0,1
EndSplineSet
EndChar
StartChar: tilde
Encoding: 732 732 162
Width: 1202
Flags: W
LayerCount: 2
Back
Fore
SplineSet
910 1484 m 1,0,1
 904 1445 904 1445 889 1407 c 128,-1,2
 874 1369 874 1369 849.5 1340 c 128,-1,3
 825 1311 825 1311 790.5 1293 c 128,-1,4
 756 1275 756 1275 711 1275 c 0,5,6
 672 1275 672 1275 640.5 1293 c 128,-1,7
 609 1311 609 1311 579.5 1332.5 c 128,-1,8
 550 1354 550 1354 519 1371.5 c 128,-1,9
 488 1389 488 1389 451 1388 c 0,10,11
 424 1388 424 1388 403.5 1377.5 c 128,-1,12
 383 1367 383 1367 368 1350.5 c 128,-1,13
 353 1334 353 1334 343 1313 c 128,-1,14
 333 1292 333 1292 326 1269 c 1,15,-1
 246 1282 l 1,16,17
 253 1322 253 1322 269.5 1359 c 128,-1,18
 286 1396 286 1396 311.5 1424.5 c 128,-1,19
 337 1453 337 1453 372.5 1469.5 c 128,-1,20
 408 1486 408 1486 452 1486 c 0,21,22
 491 1485 491 1485 522.5 1467 c 128,-1,23
 554 1449 554 1449 584 1427.5 c 128,-1,24
 614 1406 614 1406 645 1389 c 128,-1,25
 676 1372 676 1372 714 1373 c 0,26,27
 741 1374 741 1374 761 1385 c 128,-1,28
 781 1396 781 1396 796 1413 c 128,-1,29
 811 1430 811 1430 821 1452 c 128,-1,30
 831 1474 831 1474 837 1497 c 1,31,-1
 910 1484 l 1,0,1
EndSplineSet
EndChar
StartChar: uni02F3
Encoding: 755 755 164
Width: 1202
Flags: W
LayerCount: 2
Back
Fore
SplineSet
302 -225 m 256,0,1
 306 -198 306 -198 320.5 -174 c 128,-1,2
 335 -150 335 -150 356 -132 c 128,-1,3
 377 -114 377 -114 403.5 -103 c 128,-1,4
 430 -92 430 -92 457 -92 c 256,5,6
 484 -92 484 -92 507 -103 c 128,-1,7
 530 -114 530 -114 545.5 -133 c 128,-1,8
 561 -152 561 -152 568 -176 c 128,-1,9
 575 -200 575 -200 571 -227 c 256,10,11
 567 -254 567 -254 553 -277 c 128,-1,12
 539 -300 539 -300 518.5 -317.5 c 128,-1,13
 498 -335 498 -335 472.5 -345.5 c 128,-1,14
 447 -356 447 -356 420 -356 c 256,15,16
 393 -356 393 -356 369.5 -345.5 c 128,-1,17
 346 -335 346 -335 329.5 -317.5 c 128,-1,18
 313 -300 313 -300 305.5 -276 c 128,-1,19
 298 -252 298 -252 302 -225 c 256,0,1
373 -227 m 1,20,21
 377 -250 377 -250 386 -268.5 c 128,-1,22
 395 -287 395 -287 424 -287 c 0,23,24
 436 -287 436 -287 449 -282 c 128,-1,25
 462 -277 462 -277 472.5 -268.5 c 128,-1,26
 483 -260 483 -260 491 -248.5 c 128,-1,27
 499 -237 499 -237 501 -225 c 0,28,29
 506 -202 506 -202 491.5 -182 c 128,-1,30
 477 -162 477 -162 453 -162 c 0,31,32
 437 -161 437 -161 425 -166.5 c 128,-1,33
 413 -172 413 -172 403.5 -181.5 c 128,-1,34
 394 -191 394 -191 386.5 -203 c 128,-1,35
 379 -215 379 -215 373 -227 c 1,20,21
EndSplineSet
EndChar
StartChar: gravecomb
Encoding: 768 768 165
Width: 546
Flags: W
LayerCount: 2
Back
Fore
SplineSet
-427 1227 m 1,0,-1
 -525 1228 l 1,1,-1
 -648 1546 l 1,2,-1
 -529 1547 l 1,3,-1
 -427 1227 l 1,0,-1
EndSplineSet
EndChar
StartChar: acutecomb
Encoding: 769 769 166
Width: 546
Flags: W
LayerCount: 2
Back
Fore
SplineSet
-366 1547 m 1,0,-1
 -239 1547 l 1,1,-1
 -469 1230 l 1,2,-1
 -564 1230 l 1,3,-1
 -366 1547 l 1,0,-1
EndSplineSet
EndChar
StartChar: hook
Encoding: 777 777 168
Width: 546
Flags: W
LayerCount: 2
Back
Fore
SplineSet
-524 1234 m 1,0,-1
 -505 1358 l 1,1,2
 -481 1361 -481 1361 -451 1365 c 128,-1,3
 -421 1369 -421 1369 -394 1379.5 c 128,-1,4
 -367 1390 -367 1390 -347 1408.5 c 128,-1,5
 -327 1427 -327 1427 -324 1459 c 256,6,7
 -321 1491 -321 1491 -340.5 1509 c 128,-1,8
 -360 1527 -360 1527 -388.5 1535 c 128,-1,9
 -417 1543 -417 1543 -448.5 1545 c 128,-1,10
 -480 1547 -480 1547 -501 1548 c 1,11,-1
 -488 1624 l 1,12,13
 -450 1622 -450 1622 -403.5 1615 c 128,-1,14
 -357 1608 -357 1608 -317 1590 c 128,-1,15
 -277 1572 -277 1572 -251 1540.5 c 128,-1,16
 -225 1509 -225 1509 -227 1459 c 0,17,18
 -229 1419 -229 1419 -246 1390.5 c 128,-1,19
 -263 1362 -263 1362 -290 1342.5 c 128,-1,20
 -317 1323 -317 1323 -350.5 1312 c 128,-1,21
 -384 1301 -384 1301 -419 1296 c 1,22,-1
 -429 1233 l 1,23,-1
 -524 1234 l 1,0,-1
EndSplineSet
EndChar
StartChar: uni030F
Encoding: 783 783 169
Width: 546
Flags: W
LayerCount: 2
Back
Fore
SplineSet
-600 1252 m 1,0,-1
 -726 1252 l 1,1,-1
 -974 1518 l 1,2,-1
 -816 1518 l 1,3,-1
 -600 1252 l 1,0,-1
-365 1252 m 1,4,-1
 -478 1252 l 1,5,-1
 -675 1518 l 1,6,-1
 -530 1518 l 1,7,-1
 -365 1252 l 1,4,-1
EndSplineSet
EndChar
StartChar: dotbelow
Encoding: 803 803 170
Width: 546
Flags: W
LayerCount: 2
Back
Fore
SplineSet
-891 -226 m 0,0,1
 -889 -191 -889 -191 -863 -167 c 128,-1,2
 -837 -143 -837 -143 -802 -142 c 0,3,4
 -785 -142 -785 -142 -769.5 -148 c 128,-1,5
 -754 -154 -754 -154 -743 -165.5 c 128,-1,6
 -732 -177 -732 -177 -726.5 -192.5 c 128,-1,7
 -721 -208 -721 -208 -722 -226 c 0,8,9
 -723 -243 -723 -243 -731 -258 c 128,-1,10
 -739 -273 -739 -273 -751 -284.5 c 128,-1,11
 -763 -296 -763 -296 -779 -302.5 c 128,-1,12
 -795 -309 -795 -309 -812 -309 c 0,13,14
 -830 -309 -830 -309 -845 -303 c 128,-1,15
 -860 -297 -860 -297 -870.5 -285.5 c 128,-1,16
 -881 -274 -881 -274 -886.5 -259 c 128,-1,17
 -892 -244 -892 -244 -891 -226 c 0,0,1
EndSplineSet
EndChar
StartChar: tonos
Encoding: 900 900 171
Width: 1202
Flags: W
LayerCount: 2
Back
Fore
SplineSet
817 1617 m 1,0,-1
 952 1617 l 1,1,-1
 755 1289 l 1,2,-1
 680 1289 l 1,3,-1
 817 1617 l 1,0,-1
EndSplineSet
EndChar
StartChar: dieresistonos
Encoding: 901 901 172
Width: 1202
Flags: W
LayerCount: 2
Back
Fore
SplineSet
806 1691 m 1,0,-1
 949 1691 l 1,1,-1
 827 1439 l 1,2,-1
 727 1439 l 1,3,-1
 806 1691 l 1,0,-1
460 1391 m 0,4,5
 462 1425 462 1425 487 1449.5 c 128,-1,6
 512 1474 512 1474 547 1475 c 0,7,8
 564 1475 564 1475 579 1468.5 c 128,-1,9
 594 1462 594 1462 604.5 1451 c 128,-1,10
 615 1440 615 1440 620.5 1424.5 c 128,-1,11
 626 1409 626 1409 625 1391 c 0,12,13
 624 1374 624 1374 616.5 1359 c 128,-1,14
 609 1344 609 1344 597 1333 c 128,-1,15
 585 1322 585 1322 569.5 1315 c 128,-1,16
 554 1308 554 1308 537 1308 c 0,17,18
 502 1307 502 1307 480 1331.5 c 128,-1,19
 458 1356 458 1356 460 1391 c 0,4,5
908 1391 m 0,20,21
 911 1425 911 1425 935.5 1449.5 c 128,-1,22
 960 1474 960 1474 995 1475 c 256,23,24
 1030 1476 1030 1476 1053 1451 c 128,-1,25
 1076 1426 1076 1426 1074 1391 c 0,26,27
 1071 1357 1071 1357 1045.5 1333 c 128,-1,28
 1020 1309 1020 1309 985 1308 c 256,29,30
 950 1307 950 1307 928 1331.5 c 128,-1,31
 906 1356 906 1356 908 1391 c 0,20,21
EndSplineSet
EndChar
StartChar: Gamma
Encoding: 915 915 174
Width: 1202
Flags: W
LayerCount: 2
Back
Fore
SplineSet
1164 1354 m 1,0,-1
 433 1354 l 1,1,-1
 198 0 l 1,2,-1
 79 0 l 1,3,-1
 332 1456 l 1,4,-1
 1182 1456 l 1,5,-1
 1164 1354 l 1,0,-1
EndSplineSet
EndChar
StartChar: Delta
Encoding: 916 916 175
AltUni2: 002206.ffffffff.0
Width: 1202
Flags: W
LayerCount: 2
Back
Fore
SplineSet
820 1456 m 1,0,-1
 1054 0 l 1,1,-1
 -48 0 l 1,2,-1
 711 1456 l 1,3,-1
 820 1456 l 1,0,-1
130 101 m 1,4,-1
 922 101 l 1,5,-1
 741 1294 l 1,6,-1
 130 101 l 1,4,-1
EndSplineSet
EndChar
StartChar: Theta
Encoding: 920 920 176
Width: 1202
Flags: W
LayerCount: 2
Back
Fore
SplineSet
839 676 m 1,0,-1
 363 676 l 1,1,-1
 381 777 l 1,2,-1
 857 777 l 1,3,-1
 839 676 l 1,0,-1
1078 632 m 2,4,5
 1065 558 1065 558 1042 480 c 128,-1,6
 1019 402 1019 402 984 329 c 128,-1,7
 949 256 949 256 902.5 191.5 c 128,-1,8
 856 127 856 127 796 79 c 128,-1,9
 736 31 736 31 662.5 4 c 128,-1,10
 589 -23 589 -23 502 -20 c 0,11,12
 419 -18 419 -18 356 12.5 c 128,-1,13
 293 43 293 43 248 92.5 c 128,-1,14
 203 142 203 142 174.5 207 c 128,-1,15
 146 272 146 272 132 343.5 c 128,-1,16
 118 415 118 415 117 489 c 128,-1,17
 116 563 116 563 126 631 c 2,18,-1
 157 823 l 2,19,20
 169 897 169 897 192.5 974.5 c 128,-1,21
 216 1052 216 1052 251 1125.5 c 128,-1,22
 286 1199 286 1199 333 1263.5 c 128,-1,23
 380 1328 380 1328 440 1376 c 128,-1,24
 500 1424 500 1424 573.5 1451 c 128,-1,25
 647 1478 647 1478 734 1476 c 0,26,27
 818 1474 818 1474 881 1443.5 c 128,-1,28
 944 1413 944 1413 989 1363 c 128,-1,29
 1034 1313 1034 1313 1062 1248 c 128,-1,30
 1090 1183 1090 1183 1103.5 1111 c 128,-1,31
 1117 1039 1117 1039 1117.5 965 c 128,-1,32
 1118 891 1118 891 1109 823 c 2,33,-1
 1078 632 l 2,4,5
992 827 m 2,34,35
 999 878 999 878 1001 937.5 c 128,-1,36
 1003 997 1003 997 996 1056.5 c 128,-1,37
 989 1116 989 1116 971.5 1171.5 c 128,-1,38
 954 1227 954 1227 922 1270 c 128,-1,39
 890 1313 890 1313 842 1340 c 128,-1,40
 794 1367 794 1367 726 1369 c 0,41,42
 655 1371 655 1371 597.5 1347.5 c 128,-1,43
 540 1324 540 1324 493 1283 c 128,-1,44
 446 1242 446 1242 410 1187 c 128,-1,45
 374 1132 374 1132 347.5 1070.5 c 128,-1,46
 321 1009 321 1009 303 946 c 128,-1,47
 285 883 285 883 275 825 c 2,48,-1
 243 630 l 2,49,50
 236 579 236 579 234 519.5 c 128,-1,51
 232 460 232 460 239 400.5 c 128,-1,52
 246 341 246 341 264 285 c 128,-1,53
 282 229 282 229 314 186 c 128,-1,54
 346 143 346 143 394 116 c 128,-1,55
 442 89 442 89 510 87 c 0,56,57
 581 84 581 84 639 107.5 c 128,-1,58
 697 131 697 131 744 172 c 128,-1,59
 791 213 791 213 826.5 268 c 128,-1,60
 862 323 862 323 888.5 384 c 128,-1,61
 915 445 915 445 932.5 509 c 128,-1,62
 950 573 950 573 960 631 c 2,63,-1
 992 827 l 2,34,35
EndSplineSet
EndChar
StartChar: Xi
Encoding: 926 926 178
Width: 1202
Flags: W
LayerCount: 2
Back
Fore
SplineSet
61 101 m 1,0,-1
 954 101 l 1,1,-1
 936 0 l 1,2,-1
 43 0 l 1,3,-1
 61 101 l 1,0,-1
273 784 m 1,4,-1
 970 784 l 1,5,-1
 952 682 l 1,6,-1
 254 682 l 1,7,-1
 273 784 l 1,4,-1
307 1456 m 1,8,-1
 1163 1456 l 1,9,-1
 1145 1354 l 1,10,-1
 288 1354 l 1,11,-1
 307 1456 l 1,8,-1
EndSplineSet
EndChar
StartChar: Pi
Encoding: 928 928 179
Width: 1202
Flags: W
LayerCount: 2
Back
Fore
SplineSet
920 0 m 1,0,-1
 802 0 l 1,1,-1
 1038 1354 l 1,2,-1
 416 1354 l 1,3,-1
 181 0 l 1,4,-1
 63 0 l 1,5,-1
 316 1456 l 1,6,-1
 1173 1456 l 1,7,-1
 920 0 l 1,0,-1
EndSplineSet
EndChar
StartChar: Sigma
Encoding: 931 931 180
Width: 1202
Flags: W
LayerCount: 2
Back
Fore
SplineSet
765 743 m 1,0,-1
 182 102 l 1,1,-1
 1010 102 l 1,2,-1
 992 0 l 1,3,-1
 12 0 l 1,4,-1
 29 99 l 1,5,-1
 646 765 l 1,6,-1
 249 1369 l 1,7,-1
 265 1456 l 1,8,-1
 1191 1456 l 1,9,-1
 1173 1354 l 1,10,-1
 397 1354 l 1,11,-1
 769 780 l 1,12,-1
 765 743 l 1,0,-1
EndSplineSet
EndChar
StartChar: Phi
Encoding: 934 934 181
Width: 1202
Flags: W
LayerCount: 2
Back
Fore
SplineSet
765 1257 m 1,0,1
 865 1247 865 1247 940 1201 c 128,-1,2
 1015 1155 1015 1155 1062.5 1084 c 128,-1,3
 1110 1013 1110 1013 1129.5 924 c 128,-1,4
 1149 835 1149 835 1139 740 c 0,5,6
 1127 630 1127 630 1081.5 534.5 c 128,-1,7
 1036 439 1036 439 963.5 367 c 128,-1,8
 891 295 891 295 795.5 251.5 c 128,-1,9
 700 208 700 208 589 202 c 1,10,-1
 550 0 l 1,11,-1
 433 0 l 1,12,-1
 472 203 l 1,13,14
 371 213 371 213 296 259.5 c 128,-1,15
 221 306 221 306 174 377 c 128,-1,16
 127 448 127 448 107.5 537.5 c 128,-1,17
 88 627 88 627 99 722 c 0,18,19
 111 832 111 832 156.5 927.5 c 128,-1,20
 202 1023 202 1023 274 1094.5 c 128,-1,21
 346 1166 346 1166 441.5 1209 c 128,-1,22
 537 1252 537 1252 648 1258 c 1,23,-1
 686 1456 l 1,24,-1
 803 1456 l 1,25,-1
 765 1257 l 1,0,1
1021 740 m 0,26,27
 1030 814 1030 814 1019.5 884.5 c 128,-1,28
 1009 955 1009 955 977 1012 c 128,-1,29
 945 1069 945 1069 890 1107.5 c 128,-1,30
 835 1146 835 1146 754 1156 c 1,31,-1
 603 301 l 1,32,33
 692 308 692 308 764.5 345 c 128,-1,34
 837 382 837 382 890.5 441.5 c 128,-1,35
 944 501 944 501 977 577.5 c 128,-1,36
 1010 654 1010 654 1021 740 c 0,26,27
217 722 m 0,37,38
 208 648 208 648 218 577 c 128,-1,39
 228 506 228 506 259.5 448.5 c 128,-1,40
 291 391 291 391 346.5 352.5 c 128,-1,41
 402 314 402 314 483 304 c 1,42,-1
 635 1158 l 1,43,44
 546 1151 546 1151 473.5 1114 c 128,-1,45
 401 1077 401 1077 347.5 1018.5 c 128,-1,46
 294 960 294 960 260.5 884 c 128,-1,47
 227 808 227 808 217 722 c 0,37,38
EndSplineSet
EndChar
StartChar: Psi
Encoding: 936 936 182
Width: 1202
Flags: W
LayerCount: 2
Back
Fore
SplineSet
644 471 m 1,0,1
 726 483 726 483 790.5 521.5 c 128,-1,2
 855 560 855 560 902 617 c 128,-1,3
 949 674 949 674 978.5 745.5 c 128,-1,4
 1008 817 1008 817 1021 895 c 2,5,-1
 1118 1456 l 1,6,-1
 1235 1456 l 1,7,-1
 1140 895 l 2,8,9
 1123 789 1123 789 1082 698 c 128,-1,10
 1041 607 1041 607 975.5 537.5 c 128,-1,11
 910 468 910 468 822 424.5 c 128,-1,12
 734 381 734 381 624 371 c 1,13,-1
 556 0 l 1,14,-1
 437 0 l 1,15,-1
 506 372 l 1,16,17
 407 387 407 387 338 435.5 c 128,-1,18
 269 484 269 484 228 555.5 c 128,-1,19
 187 627 187 627 173.5 714.5 c 128,-1,20
 160 802 160 802 172 895 c 2,21,-1
 267 1456 l 1,22,-1
 385 1456 l 1,23,-1
 291 894 l 2,24,25
 282 825 282 825 288.5 757 c 128,-1,26
 295 689 295 689 320.5 631.5 c 128,-1,27
 346 574 346 574 394.5 532.5 c 128,-1,28
 443 491 443 491 518 476 c 1,29,-1
 691 1456 l 1,30,-1
 807 1456 l 1,31,-1
 644 471 l 1,0,1
EndSplineSet
EndChar
StartChar: Omega
Encoding: 937 937 183
AltUni2: 002126.ffffffff.0
Width: 1202
Flags: W
LayerCount: 2
Back
Fore
SplineSet
589 133 m 1,0,1
 683 172 683 172 751.5 236.5 c 128,-1,2
 820 301 820 301 867 382.5 c 128,-1,3
 914 464 914 464 943 557 c 128,-1,4
 972 650 972 650 987 745 c 2,5,-1
 1002 847 l 2,6,7
 1009 899 1009 899 1010.5 958 c 128,-1,8
 1012 1017 1012 1017 1004 1075 c 128,-1,9
 996 1133 996 1133 977 1186 c 128,-1,10
 958 1239 958 1239 925 1280.5 c 128,-1,11
 892 1322 892 1322 843.5 1347.5 c 128,-1,12
 795 1373 795 1373 727 1375 c 0,13,14
 657 1377 657 1377 598 1355 c 128,-1,15
 539 1333 539 1333 491.5 1294 c 128,-1,16
 444 1255 444 1255 406.5 1202.5 c 128,-1,17
 369 1150 369 1150 342 1090.5 c 128,-1,18
 315 1031 315 1031 296.5 968 c 128,-1,19
 278 905 278 905 269 846 c 2,20,-1
 254 744 l 2,21,22
 246 692 246 692 242 634 c 128,-1,23
 238 576 238 576 240.5 517.5 c 128,-1,24
 243 459 243 459 254 402 c 128,-1,25
 265 345 265 345 288 294.5 c 128,-1,26
 311 244 311 244 348 202.5 c 128,-1,27
 385 161 385 161 440 134 c 1,28,-1
 418 0 l 1,29,-1
 -1 0 l 1,30,-1
 18 101 l 1,31,-1
 313 104 l 1,32,33
 248 164 248 164 208 240.5 c 128,-1,34
 168 317 168 317 148 401 c 128,-1,35
 128 485 128 485 125.5 573 c 128,-1,36
 123 661 123 661 135 745 c 2,37,-1
 149 844 l 2,38,39
 161 919 161 919 185 995.5 c 128,-1,40
 209 1072 209 1072 245 1143 c 128,-1,41
 281 1214 281 1214 329.5 1275.5 c 128,-1,42
 378 1337 378 1337 439 1382.5 c 128,-1,43
 500 1428 500 1428 573.5 1453 c 128,-1,44
 647 1478 647 1478 733 1476 c 0,45,46
 816 1474 816 1474 879.5 1445.5 c 128,-1,47
 943 1417 943 1417 989 1370 c 128,-1,48
 1035 1323 1035 1323 1065 1260.5 c 128,-1,49
 1095 1198 1095 1198 1110 1128.5 c 128,-1,50
 1125 1059 1125 1059 1127 986 c 128,-1,51
 1129 913 1129 913 1120 844 c 2,52,-1
 1105 745 l 2,53,54
 1090 648 1090 648 1058 554 c 128,-1,55
 1026 460 1026 460 976 376 c 128,-1,56
 926 292 926 292 858.5 221 c 128,-1,57
 791 150 791 150 704 99 c 1,58,-1
 1004 101 l 1,59,-1
 986 0 l 1,60,-1
 568 0 l 1,61,-1
 589 133 l 1,0,1
EndSplineSet
EndChar
StartChar: alpha
Encoding: 945 945 184
Width: 1202
Flags: W
LayerCount: 2
Back
Fore
SplineSet
1039 1082 m 1,0,-1
 900 263 l 2,1,2
 898 242 898 242 896 213 c 128,-1,3
 894 184 894 184 898.5 157 c 128,-1,4
 903 130 903 130 917.5 110.5 c 128,-1,5
 932 91 932 91 963 90 c 0,6,7
 977 89 977 89 990 91.5 c 128,-1,8
 1003 94 1003 94 1017 96 c 1,9,-1
 1025 2 l 1,10,11
 1003 -7 1003 -7 981.5 -13 c 128,-1,12
 960 -19 960 -19 935 -19 c 0,13,14
 895 -19 895 -19 866 -5 c 128,-1,15
 837 9 837 9 818 33.5 c 128,-1,16
 799 58 799 58 789.5 90.5 c 128,-1,17
 780 123 780 123 779 160 c 1,18,19
 745 119 745 119 706.5 85 c 128,-1,20
 668 51 668 51 623.5 27 c 128,-1,21
 579 3 579 3 529.5 -10 c 128,-1,22
 480 -23 480 -23 425 -21 c 0,23,24
 355 -19 355 -19 303 5.5 c 128,-1,25
 251 30 251 30 214.5 69.5 c 128,-1,26
 178 109 178 109 155 161.5 c 128,-1,27
 132 214 132 214 121 272 c 128,-1,28
 110 330 110 330 108.5 390.5 c 128,-1,29
 107 451 107 451 114 508 c 2,30,-1
 117 530 l 2,31,32
 126 594 126 594 144 662 c 128,-1,33
 162 730 162 730 189.5 794 c 128,-1,34
 217 858 217 858 255.5 915 c 128,-1,35
 294 972 294 972 344 1014.5 c 128,-1,36
 394 1057 394 1057 457 1081 c 128,-1,37
 520 1105 520 1105 596 1103 c 0,38,39
 695 1101 695 1101 773 1051.5 c 128,-1,40
 851 1002 851 1002 893 913 c 1,41,-1
 957 1082 l 1,42,-1
 1039 1082 l 1,0,-1
236 505 m 2,43,44
 230 463 230 463 229 415 c 128,-1,45
 228 367 228 367 233.5 320.5 c 128,-1,46
 239 274 239 274 253.5 231 c 128,-1,47
 268 188 268 188 294 155 c 128,-1,48
 320 122 320 122 359 101.5 c 128,-1,49
 398 81 398 81 453 79 c 256,50,51
 508 77 508 77 556.5 93.5 c 128,-1,52
 605 110 605 110 646.5 139 c 128,-1,53
 688 168 688 168 722.5 207 c 128,-1,54
 757 246 757 246 785 291 c 1,55,-1
 865 773 l 1,56,57
 852 819 852 819 829.5 859.5 c 128,-1,58
 807 900 807 900 775 931 c 128,-1,59
 743 962 743 962 702 980.5 c 128,-1,60
 661 999 661 999 611 1001 c 0,61,62
 549 1003 549 1003 499 982.5 c 128,-1,63
 449 962 449 962 410 926 c 128,-1,64
 371 890 371 890 342 842 c 128,-1,65
 313 794 313 794 292.5 740.5 c 128,-1,66
 272 687 272 687 259 631.5 c 128,-1,67
 246 576 246 576 239 526 c 2,68,-1
 236 505 l 2,43,44
EndSplineSet
EndChar
StartChar: beta
Encoding: 946 946 185
Width: 1202
Flags: W
LayerCount: 2
Back
Fore
SplineSet
728 1477 m 0,0,1
 808 1475 808 1475 874.5 1446.5 c 128,-1,2
 941 1418 941 1418 988 1368.5 c 128,-1,3
 1035 1319 1035 1319 1058 1251 c 128,-1,4
 1081 1183 1081 1183 1074 1102 c 0,5,6
 1069 1044 1069 1044 1047.5 995 c 128,-1,7
 1026 946 1026 946 993 906 c 128,-1,8
 960 866 960 866 916 834 c 128,-1,9
 872 802 872 802 822 778 c 1,10,11
 880 756 880 756 923 719 c 128,-1,12
 966 682 966 682 993 634 c 128,-1,13
 1020 586 1020 586 1031 530 c 128,-1,14
 1042 474 1042 474 1037 413 c 0,15,16
 1028 314 1028 314 986 233 c 128,-1,17
 944 152 944 152 877 94.5 c 128,-1,18
 810 37 810 37 723.5 6.5 c 128,-1,19
 637 -24 637 -24 539 -22 c 0,20,21
 451 -20 451 -20 367 10.5 c 128,-1,22
 283 41 283 41 223 109 c 1,23,-1
 131 -399 l 1,24,-1
 12 -399 l 1,25,-1
 262 1062 l 2,26,27
 275 1147 275 1147 316.5 1223.5 c 128,-1,28
 358 1300 358 1300 419.5 1356.5 c 128,-1,29
 481 1413 481 1413 560 1445.5 c 128,-1,30
 639 1478 639 1478 728 1477 c 0,0,1
619 821 m 2,31,32
 685 822 685 822 743.5 840.5 c 128,-1,33
 802 859 802 859 846.5 895 c 128,-1,34
 891 931 891 931 919.5 983.5 c 128,-1,35
 948 1036 948 1036 955 1105 c 0,36,37
 961 1161 961 1161 946.5 1209.5 c 128,-1,38
 932 1258 932 1258 901 1294.5 c 128,-1,39
 870 1331 870 1331 824.5 1352 c 128,-1,40
 779 1373 779 1373 722 1375 c 0,41,42
 655 1377 655 1377 597.5 1351.5 c 128,-1,43
 540 1326 540 1326 495.5 1282.5 c 128,-1,44
 451 1239 451 1239 421.5 1182 c 128,-1,45
 392 1125 392 1125 382 1062 c 2,46,-1
 243 239 l 1,47,48
 264 198 264 198 295.5 168.5 c 128,-1,49
 327 139 327 139 365.5 119.5 c 128,-1,50
 404 100 404 100 447.5 90 c 128,-1,51
 491 80 491 80 535 79 c 0,52,53
 610 77 610 77 676 100.5 c 128,-1,54
 742 124 742 124 793 167.5 c 128,-1,55
 844 211 844 211 877 272.5 c 128,-1,56
 910 334 910 334 918 409 c 0,57,58
 925 472 925 472 910.5 527.5 c 128,-1,59
 896 583 896 583 862.5 625 c 128,-1,60
 829 667 829 667 778.5 692 c 128,-1,61
 728 717 728 717 663 720 c 2,62,-1
 515 721 l 1,63,-1
 533 822 l 1,64,-1
 619 821 l 2,31,32
EndSplineSet
EndChar
StartChar: gamma
Encoding: 947 947 186
Width: 1202
Flags: W
LayerCount: 2
Back
Fore
SplineSet
1082 1082 m 1,0,-1
 1213 1082 l 1,1,-1
 567 20 l 1,2,-1
 491 -415 l 1,3,-1
 370 -415 l 1,4,-1
 448 33 l 1,5,-1
 173 1082 l 1,6,-1
 292 1082 l 1,7,-1
 504 256 l 1,8,-1
 522 124 l 1,9,-1
 593 266 l 1,10,-1
 1082 1082 l 1,0,-1
EndSplineSet
EndChar
